<svg viewBox="0 0 905.62 1035.1" xmlns="http://www.w3.org/2000/svg"><path d="m731.93 86.66c82.52 51.43 153.6 134.4 169.83 227 16.45 92.57-21.94 195-72.69 296.68-50.74 101.91-113.82 203.66-215.99 273.56-102.17 70.17-243.42 108.8-351.54 65.37-107.88-43.2-182.62-168.68-223.54-289.36-40.68-120.69-47.31-236.57-26.51-347 20.57-110.14 68.34-214.59 147.88-266.48s190.86-51.2 293.48-40.91c102.4 10.06 196.57 29.94 279.08 81.14z" fill="#f0f0f0"/><path d="m780.06 1035.1c-6.81-11.89-97.8-209-97.8-224.52 0-5.3 28.85-167.2 41.62-169.08s43.43-14.75 53.26-18.29c1.14 13.11 68.86 411.89 68.86 411.89z" fill="#3b3744"/><path d="m569.42 1035.1c0-25.84.92-408.35.92-408.35s164.33 6.26 178.18 6.93c0 79.63-114.67 339.54-114.67 401.42z" fill="#3b3744"/><path d="m662.69 300.7c-4.91-7.73-27.74-46-29.76-52.62s-16-122.92-16-122.92l-39.45 2s-4.29 124.36 0 133.79 35.73 70.31 35.73 70.31l24.3 15.45z" fill="#fff"/><path d="m570.76 236.71c.26 10.06.78 17.24 1.69 19.24 4.29 9.43 35.73 70.31 35.73 70.31l24.3 15.45 25.21-46c-4.91-7.73-27.74-46-29.76-52.62s-16-122.92-16-122.92l-39.45 2s-1.61 46.74-1.87 85.08" fill="none" stroke="#1b3c87" stroke-linecap="round" stroke-linejoin="round" stroke-width="3.19"/><path d="m846.5 15.56h29.41a11.36 11.36 0 0 1 11.36 11.36v68.35a11.36 11.36 0 0 1 -11.36 11.36h-29.41a0 0 0 0 1 0 0v-91.07a0 0 0 0 1 0 0z" fill="#b2c3fb" transform="matrix(.99529528 -.09688808 .09688808 .99529528 -1.84 84.32)"/><path d="m296.94 70.86-74.08 52.96 82.91 37.68 545.24-53.11-8.83-90.64z" fill="#d8dfff"/><path d="m697.25 290.66c104.7 0 80.68 290.32 79.89 332.55-16.36 19.79-186.08 15-207.72 1.58-5.42-46.18 14.5-334.13 127.83-334.13z" fill="#46dbc9"/><g fill="none" stroke-linecap="round" stroke-linejoin="round" stroke-width="3.19"><path d="m767.29 399.28c13.59 86.37 5.31 194.42 4.85 218.93-9.28 11.22-67.86 14.55-120.8 12.88" stroke="#1b3c87"/><path d="m567.55 533.5c10.45-100.78 43.71-247.84 124.7-247.84 28.47 0 47.42 21.47 59.91 53.58" stroke="#1b3c87"/><path d="m610.22 628.65c-22.38-2.06-39.79-5.12-45.8-8.86-.78-6.62-1-18.21-.57-33.21" stroke="#1b3c87"/><path d="m711.48 756.25c-15.61 45.14-32.07 86.46-36.94 100.87-9.38 27.75-45.69 154.22-45.69 173" stroke="#1b3c87"/><path d="m743.52 627.7c0 18.64-6.43 46.77-15.41 77.14" stroke="#1b3c87"/><path d="m564.42 947.58v82.52" stroke="#1b3c87"/><path d="m564.42 619.79v265.92" stroke="#1b3c87"/><path d="m772.14 618.21c0 23.94 60 375.27 68.82 411.89" stroke="#1b3c87"/><path d="m737 951c-22.24-49.26-46.59-105.76-52-122.1" stroke="#1b3c87"/><path d="m775.06 1030.1c-3.1-4.72-10.14-18.91-19-37.78" stroke="#1b3c87"/></g><circle cx="135.42" cy="423.27" fill="#b2c3fb" r="17.54"/><circle cx="473.1" cy="452.62" fill="#fb5d64" r="16.56"/><circle cx="323.4" cy="824.15" fill="#fff" r="16.56"/><path d="m164.57 157.49h116.58v248.8h-116.58z" fill="#fff" transform="matrix(.7590441 -.65103921 .65103921 .7590441 -129.83 213.04)"/><path d="m733.52 254.68c-1.38 10.2-4 46.76-2.91 59.46-5.69 5.47-32.84 6.57-44-3.28 2.19-10.51 7.23-19.71 4.38-41.6s42.53-14.58 42.53-14.58z" fill="#fff"/><path d="m684.94 297.81c2.09-7.78 4.07-16.93 2-32.55-2.84-21.9 42.54-14.58 42.54-14.58-1.38 10.2-4 46.76-2.91 59.46-4.42 4.25-21.81 5.86-34.58 1.74" fill="none" stroke="#1b3c87" stroke-linecap="round" stroke-linejoin="round" stroke-width="3.19"/><ellipse cx="698.72" cy="207.24" fill="#fff" rx="50.19" ry="65.84"/><path d="m645.7 217.42a85.33 85.33 0 0 1 -1.17-14.18c0-36.36 22.47-65.84 50.19-65.84s50.19 29.48 50.19 65.84a80.71 80.71 0 0 1 -8.54 36.76" fill="none" stroke="#1b3c87" stroke-linecap="round" stroke-linejoin="round" stroke-width="3.19"/><path d="m711.34 265.39a39.58 39.58 0 0 1 -16.62 3.69c-18.24 0-34.22-12.77-43-31.87" fill="none" stroke="#1b3c87" stroke-linecap="round" stroke-linejoin="round" stroke-width="3.19"/><ellipse cx="672.39" cy="207.58" fill="#1b3c87" rx="2.15" ry="5.8"/><path d="m663 209c0 4.69-4.22 12.59-8.31 16.88" fill="none" stroke="#1b3c87" stroke-linecap="round" stroke-linejoin="round" stroke-width="3.19"/><path d="m667.49 248.5c2.19 0 9.92-2.77 15.45-10.84" fill="none" stroke="#1b3c87" stroke-linecap="round" stroke-linejoin="round" stroke-width="3.19"/><path d="m721.59 224.38c2.17 2.94 4.36 24.18 9 25.57s24.32-36 24.32-51c0-27.12-16-87.88-39.52-87.88-8.53 0-9.3 13.18-9.3 18.29-2.79-7-15.66-22-31.93-22-27.59 0-27.15 26-22.32 46.5-4.8-2.64-5-3.41-10.85-3.41-5.26 0-8.06 6.89-8.06 14.1 0 17.36 9.33 23.56 16.6 26.51s28.19 4.34 42 4c1.69 3.94 14.4 29.63 30.06 29.32z" fill="#ecc953"/><path d="m656.76 188.63a222.85 222.85 0 0 0 29.76 1.46c1.7 3.87 14.41 29.6 30.07 29.29 2.17 2.94 4.36 24.18 9 25.57 1.21.37 3.46-1.92 6.11-5.77" fill="none" stroke="#1b3c87" stroke-linecap="round" stroke-linejoin="round" stroke-width="3.19"/><path d="m650.79 109c-8.51 9-7.27 25.74-3.95 39.85-4.8-2.64-5-3.41-10.85-3.41-5.26 0-8.06 6.89-8.06 14.1 0 12.3 4.69 19 10 22.91" fill="none" stroke="#1b3c87" stroke-linecap="round" stroke-linejoin="round" stroke-width="3.19"/><path d="m723.75 112.82c-4.1-4.23-8.57-6.74-13.36-6.74-8.53 0-9.3 13.17-9.3 18.29-2.79-7-15.66-22-31.93-22-.73 0-1.44 0-2.13 0" fill="none" stroke="#1b3c87" stroke-linecap="round" stroke-linejoin="round" stroke-width="3.19"/><path d="m742.91 218.29c4-9.09 7-18.43 7-24.33 0-16.48-5.89-45.36-15.8-65.5" fill="none" stroke="#1b3c87" stroke-linecap="round" stroke-linejoin="round" stroke-width="3.19"/><circle cx="713.75" cy="215.69" fill="#fff" r="15.83"/><path d="m701.84 198a15.84 15.84 0 1 1 7.91 29.55" fill="none" stroke="#1b3c87" stroke-linecap="round" stroke-linejoin="round" stroke-width="3.19"/><path d="m668 337.89c-11-5-90.13-33.71-97-40.6s-58.23-105.61-59.88-110.29c1.47-1.62 4.16-9.3 4-18s-5.75-11.09-6.18-38.27c-.14-9.31-13.8.51-13.63 19.81-16.2-1.24-36.76-40.77-49.26-23.36 43 86.82 90.41 220.53 94.4 224.52s106.79 55.89 109.09 54.47 23.19-62.6 18.46-68.28z" fill="#fff"/><path d="m766.74 418.88c8.09-31.67-40.53-82.63-93.09-87.62-8.66 4.68-34.2 63.07-31.19 81.74 19.8 21.12 111.46 56.09 124.28 5.88z" fill="#46dbc9"/><path d="m665.21 329.68c-10.54 13.74-30.43 61.73-27.75 78.32 3.68 3.93 9.86 8.34 17.55 12.59" fill="none" stroke="#1b3c87" stroke-linecap="round" stroke-linejoin="round" stroke-width="3.19"/><path d="m668.65 326.26a12.73 12.73 0 0 0 -3.44 3.42" fill="none" stroke="#1b3c87" stroke-linecap="round" stroke-linejoin="round" stroke-width="3.19"/><path d="m693.83 435.83c29.76 7.53 60.84 5.75 67.91-21.95 6.39-25-22.56-62-60.88-79" fill="none" stroke="#1b3c87" stroke-linecap="round" stroke-linejoin="round" stroke-width="3.19"/><path d="m448 134.52q-3.42-6.28-7-12.36c-3.3-4.73 11.57-13.82 35.25 17.3" fill="none" stroke="#1b3c87" stroke-linecap="round" stroke-linejoin="round" stroke-width="3.19"/><path d="m555.92 358.49c-10.15-5.57-17.9-10-20.48-11.81-8.91-6.32-35.31-109.59-78.91-196" fill="none" stroke="#1b3c87" stroke-linecap="round" stroke-linejoin="round" stroke-width="3.19"/><path d="m637.38 401.15c-3-1.15-29.79-15-55.27-28.55" fill="none" stroke="#1b3c87" stroke-linecap="round" stroke-linejoin="round" stroke-width="3.19"/><path d="m520.93 211.33c-8.15-15.67-14.26-27.77-14.81-29.33 1.47-1.62 4.16-9.3 4-18s-5.75-11.09-6.18-38.27c-.14-9.31-13.8.51-13.63 19.81" fill="none" stroke="#1b3c87" stroke-linecap="round" stroke-linejoin="round" stroke-width="3.19"/><path d="m663 332.89c-11-5-90.13-33.71-97-40.6-2.84-2.84-13.22-21.28-24.56-42.3" fill="none" stroke="#1b3c87" stroke-linecap="round" stroke-linejoin="round" stroke-width="3.19"/><path d="m446.04 524.06-216.04 55.55 156.12 159.33z" fill="none" stroke="#d8dfff" stroke-linecap="round" stroke-linejoin="round" stroke-width="3.19"/></svg>