<svg viewBox="0 0 4615.65 4603.4" xmlns="http://www.w3.org/2000/svg"><g fill-rule="evenodd"><path d="m11.91 0h4591.83a11.91 11.91 0 0 1 11.91 11.91v4579.59a11.9 11.9 0 0 1 -11.91 11.9h-4591.83a11.9 11.9 0 0 1 -11.91-11.9v-4579.59a11.91 11.91 0 0 1 11.91-11.91z" fill="#eaf0ff"/><path d="m712.59 771h2649.51a11.9 11.9 0 0 1 11.9 11.9v274a11.9 11.9 0 0 1 -11.9 11.9h-2649.51a11.9 11.9 0 0 1 -11.91-11.9v-274a11.9 11.9 0 0 1 11.91-11.9z" fill="#fff"/><path d="m1349.44 1156.05h591.25a11.9 11.9 0 0 1 11.9 11.9v196.55a11.91 11.91 0 0 1 -11.9 11.9h-591.25a11.91 11.91 0 0 1 -11.91-11.9v-196.5a11.9 11.9 0 0 1 11.91-11.95z" fill="#b2c3fb"/><path d="m3443.92 1598.18c-.36-32.07-41.27-102.46-56-99.89s-109.83 52.72-140.05 68.56-379.93 4.56-423 3.31-60.34-34.35-112.47-60.88-72.1 106.75-73 130.27c-1.48 36.65 70.34-2.72 93.49 3.64s472.39 109.81 500.11 110.74 157.94-62.18 169.28-80.78 42.01-42.9 41.64-74.97z" fill="#fff"/><path d="m2832.16 2562.48h1242.48c13.82 0 25 15.68 25 35v578.2c0 19.33-11.2 35-25 35h-1242.48c-13.81 0-25-15.69-25-35v-578.2c-.02-19.32 11.19-35 25-35z" fill="#b2c3fb"/><path d="m2832.16 3278.55h1242.48c13.82 0 25 15.69 25 35v578.21c0 19.33-11.2 35-25 35h-1242.48c-13.81 0-25-15.69-25-35v-578.18c-.02-19.34 11.19-35.03 25-35.03z" fill="#b2c3fb"/></g><path d="m2867.5 1986.27 157 253.35" fill="none" stroke="#1b3c87" stroke-linecap="round" stroke-linejoin="round" stroke-width="17.9"/><path d="m2568.86 2641.65 144.68 242.08" fill="none" stroke="#1b3c87" stroke-linecap="round" stroke-linejoin="round" stroke-width="17.9"/><path d="m3047.62 3236.22 281.06-23.29" fill="none" stroke="#1b3c87" stroke-linecap="round" stroke-linejoin="round" stroke-width="17.9"/><path d="m3055.7 3289.07 281.06-23.3" fill="none" stroke="#1b3c87" stroke-linecap="round" stroke-linejoin="round" stroke-width="17.9"/><path d="m3666.24 2175.15c-24.93 2.06-482.53 117.46-541.85 137.11s-477.13 370.38-496.72 390.17c12.74 22.29 89.83 149.32 89.83 149.32l329.91-159.4s643.75-519.27 618.83-517.2z" fill="#3c3744" fill-rule="evenodd"/><path d="m2815.36 2503.05c-109 88.63-209.85 174.12-219.24 183.6 12.74 22.35 89.88 149.35 89.88 149.35l329.91-159.4s643.75-519.27 618.83-517.2-482.52 117.45-541.85 137.11c-18.79 6.22-73.56 45.67-140.25 97.29" fill="none" stroke="#1b3c87" stroke-linecap="round" stroke-linejoin="round" stroke-width="17.9"/><path d="m3998.05 2065.57c187.42 463.83-153 599.5-631.07 616.67-7.55 58-49.69 554.08-49.69 554.08l-204.48 16.77s-137.59-674.87-106.41-721.29 558.87-340.51 605.52-360.79 378.08-125.48 386.13-105.44z" fill="#3c3744" fill-rule="evenodd"/><path d="m3705.76 2613.2c-105 29.09-230.23 43.65-366.71 48.56-7.55 58-49.69 554.08-49.69 554.08l-204.48 16.77s-22.57-110.7-47.35-245.53" fill="none" stroke="#1b3c87" stroke-linecap="round" stroke-linejoin="round" stroke-width="17.9"/><path d="m3304.82 2304.21c131.55-75.49 257.46-144.24 279.17-153.69 46.66-20.29 378-125.47 386.13-105.43 111.18 275.14 36.61 434.8-142.23 522.75" fill="none" stroke="#1b3c87" stroke-linecap="round" stroke-linejoin="round" stroke-width="17.9"/><path d="m3014 2854.64c-27.84-163-50.07-321.64-35.51-343.32 13-19.34 112.32-81.77 227.1-149.43" fill="none" stroke="#1b3c87" stroke-linecap="round" stroke-linejoin="round" stroke-width="17.9"/><path d="m3407.73 1391.82c21-15.08 42.63-27.44 58.11-29.34" fill="none" stroke="#1b3c87" stroke-linecap="round" stroke-linejoin="round" stroke-width="17.9"/><path d="m3378.81 1565c-19.69-34.62-47.48-98.48-37.43-113.66 2.47-3.73 8.6-10.4 17-18.51" fill="none" stroke="#1b3c87" stroke-linecap="round" stroke-linejoin="round" stroke-width="17.9"/><path d="m3416.85 1612.83c-13.17-14.81-67.68-131-55.86-148.83s115.79-104.45 178-94.32c-16.7 49.75-108.99 257.96-122.14 243.15z" fill="#46dbc9" fill-rule="evenodd"/><path d="m3598.6 1309.72c317.51-115.63 429.61 685.7 410.65 765-81.21 81-402.23 137.2-442.22 112.58-161.98-175.54-289.2-760.78 31.57-877.58z" fill="#46dbc9" fill-rule="evenodd"/><path d="m3378.22 1741.28c-14.88-147.07 7.21-293.38 93-382.25" fill="none" stroke="#1b3c87" stroke-linecap="round" stroke-linejoin="round" stroke-width="17.9"/><path d="m3942.45 1739.43c35.83 151.11 48 288.78 40.67 319.32-81.21 81-402.23 137.2-442.22 112.58-61.85-67-118.63-193.8-147.34-331.4" fill="none" stroke="#1b3c87" stroke-linecap="round" stroke-linejoin="round" stroke-width="17.9"/><path d="m3471.17 1359c27.11-28.1 60.6-50.47 101.3-65.28 166.25-60.54 276.19 130.31 340.48 337.28" fill="none" stroke="#1b3c87" stroke-linecap="round" stroke-linejoin="round" stroke-width="17.9"/><path d="m2927.93 1553c-62.41.18-111.29-.2-118.28-1.42-19.85-3.44-105.68-68.52-128.92-68.85" fill="none" stroke="#1b3c87" stroke-linecap="round" stroke-linejoin="round" stroke-width="17.9"/><path d="m3345.21 1490.57c-34.43 16.74-88.38 43.24-111.88 57.58-18.62 1.43-87.94 2.84-165.33 3.78" fill="none" stroke="#1b3c87" stroke-linecap="round" stroke-linejoin="round" stroke-width="17.9"/><path d="m2627.4 1620.79c29.5 21.79 70.34-2.72 93.49 3.64s472.45 109.83 500.14 110.74 142-54.27 153.31-72.89" fill="none" stroke="#1b3c87" stroke-linecap="round" stroke-linejoin="round" stroke-width="17.9"/><path d="m3537.59 1684.68c-17 35.29-54.55 133-65.43 168.47-31.82 18.12-326.45 160.27-410.67 217.53-21.91 2.39-90.38-22.23-107.42-20.6s-20.53 12.73-20.53 12.73c-38.58 2.09-53.61 81.31-4.56 97s81 29.59 115.4 9.83 533.1-144.67 570.25-170c50.12-34.13 78.63-108 107.58-168.93 30.35-63.88 16.48-30.17 16.48-53.93s-184.08-127.39-201.1-92.1z" fill="#fff" fill-rule="evenodd"/><path d="m2864.77 2057.08c14.78 12.94 51.74 26.09 76 30" fill="none" stroke="#1b3c87" stroke-linecap="round" stroke-linejoin="round" stroke-width="17.9"/><path d="m2883.51 2098.58c16.88 14.88 66.88 30.87 87.14 26.81" fill="none" stroke="#1b3c87" stroke-linecap="round" stroke-linejoin="round" stroke-width="17.9"/><path d="m3534.75 2002c30.18-9.73 51.55-17.45 58.91-21.84 39.84-23.83 118.25-179.63 120.6-217.17" fill="none" stroke="#1b3c87" stroke-linecap="round" stroke-linejoin="round" stroke-width="17.9"/><path d="m2900.85 2139.34c21.16 12.62 75.21 27 96.38 23.2s40.88-22.5 73-29.83c18.31-4.19 172.81-45.42 309.7-84.5" fill="none" stroke="#1b3c87" stroke-linecap="round" stroke-linejoin="round" stroke-width="17.9"/><path d="m3516.45 1669.51c-17 35.28-54.54 133-65.42 168.47-31.82 18.11-326.46 160.27-410.67 217.53-21.91 2.4-90.38-22.24-107.42-20.59s-20.54 12.73-20.54 12.73" fill="none" stroke="#1b3c87" stroke-linecap="round" stroke-linejoin="round" stroke-width="17.9"/><path d="m3799.5 1365c140.53 60.78 25 410.23-21.66 442.6-59.56 12.59-260.84-95.38-292.11-130.11-6.49-30.94 141.76-386.85 313.77-312.49z" fill="#46dbc9" fill-rule="evenodd"/><path d="m3602.36 1737.36c-60-29.31-115.69-63.67-131-80.62" fill="none" stroke="#1b3c87" stroke-linecap="round" stroke-linejoin="round" stroke-width="17.9"/><path d="m3540.14 1493.81c58.39-96.39 147.93-191.54 245-149.54 140.53 60.77 25 410.22-21.66 442.59-16.62 3.52-44.28-2.36-76.19-13.41" fill="none" stroke="#1b3c87" stroke-linecap="round" stroke-linejoin="round" stroke-width="17.9"/><path d="m3310 3289.66-4.8 102.74 20.8 117.77-373.18 49.83 175.46-157.42-13.82-96.74" fill="#fff" fill-rule="evenodd"/><path d="m3108.54 3383.67-13.82-96.74" fill="none" stroke="#1b3c87" stroke-linecap="round" stroke-linejoin="round" stroke-width="17.9"/><path d="m3290.3 3270.71-4.81 102.75 20.73 117.77-373.14 49.87 96.05-86.18" fill="none" stroke="#1b3c87" stroke-linecap="round" stroke-linejoin="round" stroke-width="17.9"/><path d="m2667.88 2893.16-68.49 31-91.68 99.3-223.94-304.8 221.42 79.52 75.62-53.39" fill="#fff" fill-rule="evenodd"/><path d="m2382.78 2866-127.78-173.93 221.43 79.51 75.62-53.37" fill="none" stroke="#1b3c87" stroke-linecap="round" stroke-linejoin="round" stroke-width="17.9"/><path d="m2639.11 2866.56-68.49 31-91.68 99.3-45.81-62.34" fill="none" stroke="#1b3c87" stroke-linecap="round" stroke-linejoin="round" stroke-width="17.9"/><path d="m2525 2672.18 144.67 242.08" fill="none" stroke="#1b3c87" stroke-linecap="round" stroke-linejoin="round" stroke-width="17.9"/><path d="m2098.35 1356.77 584.56 88.73a11.88 11.88 0 0 1 10 13.54l-29.49 194.32a11.92 11.92 0 0 1 -13.56 10l-584.55-88.71a11.93 11.93 0 0 1 -10-13.57l29.5-194.31a11.9 11.9 0 0 1 13.54-10z" fill="#b2c3fb" fill-rule="evenodd"/><path d="m2754.46 1560.3c-14.58-3.28-47.47-3.26-64.2-6.57-30.81-6.13-57.85-22.34-77.84-24s-28 10.62-28.92 17.17c-3.77 26.34 72.66 51 98.06 54.08" style="fill-rule:evenodd;fill:#fff;stroke:#1b3c87;stroke-width:17.9;stroke-linecap:round;stroke-linejoin:round"/><path d="m323.4 1996.82c0-106.4 86.26-192.66 192.67-192.66s192.67 86.26 192.67 192.66-86.26 192.68-192.67 192.68-192.67-86.26-192.67-192.68z" fill="#fff" fill-rule="evenodd"/><path d="m871.17 1905.7h1635.62" fill="none" stroke="#d7e0ff" stroke-linecap="round" stroke-linejoin="round" stroke-width="28.22"/><path d="m871.17 2088h794.76" fill="none" stroke="#d7e0ff" stroke-linecap="round" stroke-linejoin="round" stroke-width="28.22"/><path d="m323.4 2596.06c0-106.4 86.26-192.66 192.67-192.66s192.67 86.26 192.67 192.66-86.26 192.68-192.67 192.68-192.67-86.26-192.67-192.68z" fill="#fff" fill-rule="evenodd"/><path d="m871.17 2504.93h1635.62" fill="none" stroke="#d7e0ff" stroke-linecap="round" stroke-linejoin="round" stroke-width="28.22"/><path d="m871.17 2687.2h794.76" fill="none" stroke="#d7e0ff" stroke-linecap="round" stroke-linejoin="round" stroke-width="28.22"/><path d="m323.4 3195.29c0-106.4 86.26-192.67 192.67-192.67s192.67 86.27 192.67 192.67-86.26 192.71-192.67 192.71-192.67-86.29-192.67-192.71z" fill="#fff" fill-rule="evenodd"/><path d="m871.17 3104.17h1635.62" fill="none" stroke="#d7e0ff" stroke-linecap="round" stroke-linejoin="round" stroke-width="28.22"/><path d="m871.17 3286.44h794.76" fill="none" stroke="#d7e0ff" stroke-linecap="round" stroke-linejoin="round" stroke-width="28.22"/><path d="m323.4 3794.54c0-106.42 86.26-192.67 192.67-192.67s192.67 86.25 192.67 192.67-86.26 192.67-192.67 192.67-192.67-86.27-192.67-192.67z" fill="#fff" fill-rule="evenodd"/><path d="m871.17 3703.4h1635.62" fill="none" stroke="#d7e0ff" stroke-linecap="round" stroke-linejoin="round" stroke-width="28.22"/><path d="m871.17 3885.67h794.76" fill="none" stroke="#d7e0ff" stroke-linecap="round" stroke-linejoin="round" stroke-width="28.22"/><path d="m2707.47 1899.89a116.74 116.74 0 1 1 116.74 116.75 116.74 116.74 0 0 1 -116.74-116.75z" fill="#fff" fill-rule="evenodd"/><path d="m2711.57 1816.75a116.73 116.73 0 1 1 -9.84 117" fill="none" stroke="#1b3c87" stroke-linecap="round" stroke-linejoin="round" stroke-width="17.9"/><path d="m3547.86 1235.78c13 23.54 30 72.34 35.23 111.17 18.23 4 96.76-13.18 114.54-29.18-7.05-33.25-31.1-152.1-28.4-171.2s-131.47 70.95-121.37 89.21z" fill="#fff" fill-rule="evenodd"/><path d="m3626.14 1325.33c22.47-5.69 44-13.42 52.33-20.9-7.06-33.23-31.11-152.1-28.41-171.21s-131.47 71-121.37 89.23c13 23.54 30 72.34 35.23 111.15" fill="none" stroke="#1b3c87" stroke-linecap="round" stroke-linejoin="round" stroke-width="17.9"/><path d="m3374.18 1052.58c0-114.15 68.71-206.7 153.48-206.7s153.48 92.55 153.48 206.7-68.71 206.7-153.48 206.7-153.48-92.54-153.48-206.7z" fill="#fff" fill-rule="evenodd"/><path d="m3445.62 1036.36c-2.21 18.44-13.27 45-26.17 54.92" fill="none" stroke="#1b3c87" stroke-linecap="round" stroke-linejoin="round" stroke-width="17.9"/><path d="m3484.6 1022.88c0-13 5.87-23.45 13.12-23.45s13.12 10.5 13.12 23.45-5.87 23.44-13.12 23.44-13.12-10.49-13.12-23.44z" fill="#1b3c87" fill-rule="evenodd"/><path d="m3493.15 1145.64c0-9.47 7.35-17.15 16.4-17.15s16.4 7.68 16.4 17.15-7.34 17.13-16.4 17.13-16.4-7.68-16.4-17.13z" fill="none" stroke="#1b3c87" stroke-linecap="round" stroke-linejoin="round" stroke-width="17.9"/><path d="m3362.61 1072.92a278.49 278.49 0 0 1 -2.37-36.41c0-114.18 68.72-206.71 153.48-206.71s153.49 92.53 153.49 206.71-68.72 206.7-153.49 206.7c-58.15 0-108.75-43.55-134.79-107.76" fill="none" stroke="#1b3c87" stroke-linecap="round" stroke-linejoin="round" stroke-width="17.9"/><path d="m3674.7 1087.33c10.29-15.43 46.77-230.82-30.06-263.75-15.33-6.59-18.47 10.87-27 29.11-12.47-55.53-86.57-124.35-111.92-121.81s-48.72 62.12-48.31 79.17c-16.13-23.59-63.76-58.76-81.94-56.53-48.46 5.94-20.73 116.86-12.69 136.82-19.74-2.2-56.77 16.4-59 44.74-3.65 45.71 40.45 78.09 61.9 80.72s61.18-49.06 97.5-59.62c22.31 16.56 27.24 22.09 37.59 20.65s43.21-17.67 52.87-12.1 32.79 82.11 45.18 86 65.58 52.05 75.88 36.6z" fill="#eecb55" fill-rule="evenodd"/><path d="m3348.39 873.08c-19.74-2.22-56.77 16.39-59 44.74-3.64 45.7 40.46 78.08 61.91 80.71 15.46 1.9 40.42-24.44 66.76-43.24" fill="none" stroke="#1b3c87" stroke-linecap="round" stroke-linejoin="round" stroke-width="17.9"/><path d="m3654.71 827.46c-6.45-9.56-14.5-16.89-24.46-21.15-15.33-6.59-18.47 10.87-27 29.11-12.47-55.53-86.57-124.34-111.92-121.83s-48.72 62.11-48.34 79.18c-16.13-23.57-63.76-58.75-81.95-56.53-28.32 3.48-30.61 42.82-26 78.9" fill="none" stroke="#1b3c87" stroke-linecap="round" stroke-linejoin="round" stroke-width="17.9"/><path d="m3448.76 938.91c22.31 16.56 27.24 22.08 37.58 20.66s43.22-17.68 52.88-12.11 32.78 82.12 45.18 86 65.61 52 75.91 36.61c6-9 20.89-85.9 17.07-155" fill="none" stroke="#1b3c87" stroke-linecap="round" stroke-linejoin="round" stroke-width="17.9"/><path d="m3588.45 1088.23a45.19 45.19 0 1 1 45.19 45.2 45.19 45.19 0 0 1 -45.19-45.2z" fill="#fff" fill-rule="evenodd"/><path d="m3588.44 1049.71a45.18 45.18 0 1 1 12.54 75.86" fill="none" stroke="#1b3c87" stroke-linecap="round" stroke-linejoin="round" stroke-width="17.9"/><path d="m11.91 0h4591.83c6.58 0 11.91.36 11.91.8v306c0 .44-5.33.8-11.91.8h-4591.83c-6.58 0-11.91-.36-11.91-.8v-306c0-.44 5.33-.8 11.91-.8z" fill="#d7e0ff" fill-rule="evenodd"/><path d="m149.81 153.78c0-45 35.92-81.47 80.22-81.47s80.22 36.47 80.22 81.47-35.91 81.48-80.25 81.48-80.19-36.48-80.19-81.48z" fill="#fb5e64" fill-rule="evenodd"/><path d="m461.3 153.78c0-45 35.91-81.47 80.22-81.47s80.22 36.47 80.22 81.47-35.91 81.48-80.22 81.48-80.22-36.48-80.22-81.48z" fill="#fb5e64" fill-rule="evenodd"/><path d="m772.79 153.78c0-45 35.91-81.47 80.22-81.47s80.22 36.47 80.22 81.47-35.91 81.48-80.23 81.48-80.21-36.48-80.21-81.48z" fill="#fb5e64" fill-rule="evenodd"/></svg>