<svg viewBox="0 0 4816.41 4299.87" xmlns="http://www.w3.org/2000/svg"><path d="m3497.07 547.87c314.28 350.22 478.1 792.39 524.08 1228.7 45.13 436.31-27.59 867.61-204 1303.09-175.53 434.64-454.7 873.46-865.1 1079.92-411.24 206.45-954.54 179.7-1360.77-45.14-405.28-224.84-674.48-648.62-951.14-1087.44s-561.69-892.69-464.73-1251.26 575.06-621 985.46-954.54c410.4-332.67 752.27-736.39 1155.13-809.11 402.89-71.88 866.79 185.56 1181.07 535.78z" fill="#f0f0f0"/><path d="m563.37 3498.87-272.85-754.38-272.86-754.39 789.74 140.9 789.75 140.88-516.89 613.5z" fill="none" stroke="#b7c7fb" stroke-linecap="round" stroke-linejoin="round" stroke-width="35.31"/><path d="m302.14 645.31h2554.41v2459.34h-2554.41z" fill="#eaf0ff" fill-rule="evenodd"/><path d="m1043 1049.38h1423.49v98.25h-1423.49z" fill="#b2c3fb" fill-rule="evenodd"/><path d="m1043 1487.41h1423.49v98.24h-1423.49z" fill="#b2c3fb" fill-rule="evenodd"/><path d="m1043 1925.43h1423.49v98.26h-1423.49z" fill="#b2c3fb" fill-rule="evenodd"/><path d="m818.53 1004.33-165.09 156-79-74.6" fill="none" stroke="#b2c3fb" stroke-linecap="round" stroke-linejoin="round" stroke-width="35.31"/><path d="m818.53 1463.1-165.09 156-79-74.6" fill="none" stroke="#b2c3fb" stroke-linecap="round" stroke-linejoin="round" stroke-width="35.31"/><path d="m818.53 1921.87-165.09 156-79-74.6" fill="none" stroke="#b2c3fb" stroke-linecap="round" stroke-linejoin="round" stroke-width="35.31"/><path d="m1043 2363.47h1423.49v98.25h-1423.49z" fill="#f4f7ff" fill-rule="evenodd"/><path d="m1043 2801.5h1423.49v98.26h-1423.49z" fill="#f4f7ff" fill-rule="evenodd"/><path d="m3575.24 2624.93c0-337.86 273.89-611.75 611.76-611.75s611.75 273.89 611.75 611.75-273.89 611.76-611.75 611.76-611.76-273.89-611.76-611.76z" fill="none" stroke="#e9efff" stroke-linecap="round" stroke-linejoin="round" stroke-width="35.31"/><path d="m2672.68 1726.72c-157.16-31.37-352.48 163.83-338.82 451.92l189.6 39.37s162.91-488.56 149.22-491.29z" fill="#46dbc9" fill-rule="evenodd"/><path d="m2312.75 2044.94a577.78 577.78 0 0 0 -4.39 105" fill="none" stroke="#1b3c87" stroke-linecap="round" stroke-linejoin="round" stroke-width="21.13"/><path d="m2647.16 1698c-99.53-19.86-214.35 51.13-281.72 179" fill="none" stroke="#1b3c87" stroke-linecap="round" stroke-linejoin="round" stroke-width="21.13"/><path d="m3037.22 1608.88c593.32 0 708.1 686 629.28 1641.63-257.24 107.88-889.28 163.2-1168.65-6.91-131.39-367.89-207.7-1634.72 539.37-1634.72z" fill="#46dbc9" fill-rule="evenodd"/><path d="m2609.69 993.35c0-251.74 152-455.82 339.51-455.82s339.5 204.08 339.5 455.82-152 455.83-339.5 455.83-339.51-204.08-339.51-455.83z" fill="#fff" fill-rule="evenodd"/><path d="m2885.75 993.67c0-22 9.13-39.79 20.37-39.79s20.38 17.81 20.38 39.79-9.12 39.77-20.38 39.77-20.37-17.81-20.37-39.77z" fill="#1b3c87" fill-rule="evenodd"/><path d="m2792 1067.74c-.65 24.57-7.77 77.62-42 111.91" fill="none" stroke="#1b3c87" stroke-linecap="round" stroke-linejoin="round" stroke-width="21.13"/><path d="m2869.58 1278.62c28.46-3.87 64-14.87 86.68-48.51" fill="none" stroke="#1b3c87" stroke-linecap="round" stroke-linejoin="round" stroke-width="21.13"/><path d="m3507.73 2340.42c19.21 54.83 61.51 200.85 61.51 200.85s-299.58-153.77-440.4-224.84" fill="none" stroke="#1b3c87" stroke-linecap="round" stroke-linejoin="round" stroke-width="21.13"/><path d="m2778 2367.29-35.76 117.91" fill="none" stroke="#1b3c87" stroke-linecap="round" stroke-linejoin="round" stroke-width="21.13"/><path d="m2891.44 1993.4-47.59 156.88" fill="none" stroke="#1b3c87" stroke-linecap="round" stroke-linejoin="round" stroke-width="21.13"/><path d="m3130.73 3313.87c-250.47 16-518.54-8.42-675.4-103.93-98.11-274.7-165.51-1050.58 117.64-1426" fill="none" stroke="#1b3c87" stroke-linecap="round" stroke-linejoin="round" stroke-width="21.13"/><path d="m2742.92 1634.94c71.09-38.22 154.45-59.72 251.78-59.72 593.31 0 708.1 686 629.27 1641.63-39.14 16.41-86.95 31.61-140.88 45" fill="none" stroke="#1b3c87" stroke-linecap="round" stroke-linejoin="round" stroke-width="21.13"/><path d="m3611.76 3204.12c0 63.79-9.89 1018.51-9.89 1018.51" fill="none" stroke="#1b3c87" stroke-linecap="round" stroke-linejoin="round" stroke-width="21.13"/><path d="m2881.47 2194.31c-35.76 0-190.43 19.7-102.87 162.71 50.17 81.95 70.88 58.38 91.92 32.46 16.38 8.53 41.65 28.66 57.93 42.16-.12.27-.21.54-.33.81 44.24 34.5 628.07 544.2 748.14 574.76s255.1-88.19 307-177.51c57.3-98.5-51.34-498.12-70.52-542.19s-370.62 97.63-370.62 97.63 56.91 170.24 71.92 240.61c-33.11-18.63-555.26-273.84-623.27-352.3-.1.23-.24.63-.36.85-24.89-25.45-81.41-79.99-108.94-79.99z" fill="#fff" fill-rule="evenodd"/><path d="m2447.28 3194.82-.72 923" fill="none" stroke="#1b3c87" stroke-linecap="round" stroke-linejoin="round" stroke-width="21.13"/><path d="m2889.55 3780.63c32.48 138.85 68.1 292.75 102.48 442" fill="none" stroke="#1b3c87" stroke-linecap="round" stroke-linejoin="round" stroke-width="21.13"/><path d="m3240.06 1182.1c-1.92 23.19-52.17 414.27-34.14 553.43-43.16 36.72-341.81 42.12-335.66-12.88 10.31-92.14 32.22-235.16 13.52-308" fill="#fff" fill-rule="evenodd"/><path d="m2843.88 1682.07c10.31-92.13 25.57-191.78 15.38-273.86" fill="none" stroke="#1b3c87" stroke-linecap="round" stroke-linejoin="round" stroke-width="21.13"/><path d="m3209.65 1197.4c-1.94 23.19-48.14 358.39-30.11 497.55-17 14.49-73.8 24.1-135.93 27" fill="none" stroke="#1b3c87" stroke-linecap="round" stroke-linejoin="round" stroke-width="21.13"/><path d="m3071.62 1367.18c-44.95 29.5-95.46 46-148.86 46-118.27 0-222.41-81.18-283.2-204.32" fill="none" stroke="#1b3c87" stroke-linecap="round" stroke-linejoin="round" stroke-width="21.13"/><path d="m2593.41 1068.51a606.6 606.6 0 0 1 -10.16-111.11c0-251.75 152-455.82 339.51-455.82s339.5 204.07 339.5 455.82c0 112.06-30.12 214.67-80.07 294.05" fill="none" stroke="#1b3c87" stroke-linecap="round" stroke-linejoin="round" stroke-width="21.13"/><path d="m3259.57 1244.41c38.08 6.9 102.43-198.83 115.57-322.92 23.38-221.06-208.46-502.31-381.66-519.7-34-3.41-72.4 31.58-51.55 90.13-42-44.06-152.11-102.33-247.21-114.56-144.48-18.56-214.29 77.45-214.29 120.22s25.94 176.64 77.79 218c-41.9-.52-79.18 3.33-83.84 37.26-14.38 104.63 44.93 199.16 145.28 189.5 7-58.94 19.62-116 40.27-154.4 16.77 151.06 400.81 100.43 400.07 125.65-2.91 97.15 112.39 97.16 116.39 99.56 89.04 53.4 22.46 220.23 83.18 231.26z" fill="#edca55" fill-rule="evenodd"/><path d="m2448.61 494.18c9 57.7 33.62 145.82 73.94 178-41.88-.52-79.18 3.33-83.84 37.26-12.37 90.12 29.89 172.69 105.93 187.77" fill="none" stroke="#1b3c87" stroke-linecap="round" stroke-linejoin="round" stroke-width="21.13"/><path d="m3233.74 557.15c-77.84-107.73-185-189.63-275.91-198.76-34-3.41-72.42 31.57-51.57 90.12-41.94-44.06-152.09-102.33-247.2-114.55-62.58-8-111.15 5.4-146.11 26.72" fill="none" stroke="#1b3c87" stroke-linecap="round" stroke-linejoin="round" stroke-width="21.13"/><path d="m3194.71 1142.22c2.11 31.22 7.61 54.85 29.2 58.77 38.07 6.91 102.44-198.82 115.56-322.91 3.85-36.32.8-74.25-7.74-112.36" fill="none" stroke="#1b3c87" stroke-linecap="round" stroke-linejoin="round" stroke-width="21.13"/><path d="m2607.15 785.6a253.88 253.88 0 0 1 17.13-41.07c16.77 151.06 400.8 100.43 400 125.65-.46 15.39 2 28.35 6.61 39.27" fill="none" stroke="#1b3c87" stroke-linecap="round" stroke-linejoin="round" stroke-width="21.13"/><path d="m3096.14 968a86 86 0 1 1 48.93 156.64 86.56 86.56 0 0 1 -15.55-1.4" fill="#fff" fill-rule="evenodd"/><path d="m3088.32 950.06a86 86 0 1 1 48.93 156.64 86.51 86.51 0 0 1 -15.53-1.39" fill="none" stroke="#1b3c87" stroke-linecap="round" stroke-linejoin="round" stroke-width="21.13"/><path d="m2075.38 2167.68 624.22 99.68-150.94 945.12-624.21-99.68z" fill="#b2c3fb" fill-rule="evenodd"/><path d="m1895.46 3052.88 150.93-945.12 624.22 99.7-48.61 304.61" fill="none" stroke="#1b3c87" stroke-linecap="round" stroke-linejoin="round" stroke-width="21.13"/><path d="m2566.38 2860.15-46.71 292.42-425.71-68" fill="none" stroke="#1b3c87" stroke-linecap="round" stroke-linejoin="round" stroke-width="21.13"/><path d="m1896.08 2932.79c-28.41-214.81-6.55-355.36 115.77-395.41 49.38-16.16.74 297.83-18.93 349.53s-73.55-7.28-96.84 45.88z" fill="#fff" fill-rule="evenodd"/><g fill="none" stroke-linecap="round" stroke-linejoin="round"><path d="m1876.3 2701.57c-13.57-44.54-5.82-140.38 147.16-194.61" stroke="#1b3c87" stroke-width="21.13"/><path d="m1866.61 2833.25c-13.55-44.53-5.81-140.39 147.17-194.6" stroke="#1b3c87" stroke-width="21.13"/><path d="m1875.33 2946.54c-13.56-44.54-5.82-140.4 147.16-194.62" stroke="#1b3c87" stroke-width="21.13"/><path d="m3058 987.51a86.28 86.28 0 0 1 30.35-37.45" stroke="#1b3c87" stroke-width="21.13"/><path d="m3971.7 2726.08c-2.59 18.55-7 34.06-13.66 45.5-51.94 89.32-187 208.08-307 177.52s-696.76-552.28-748.14-574.77" stroke="#1b3c87" stroke-width="21.13"/><path d="m3887.51 2229.4c9.87 22.69 43.46 139.62 65.91 261.17" stroke="#1b3c87" stroke-width="21.13"/><path d="m2958.68 2234.14c-42.49-119.28-134.06-86.58-223.22-8.82" stroke="#1b3c87" stroke-width="21.13"/><path d="m2860.18 2249.51c-25-1.83-86.91 21.64-115.19 45.9" stroke="#1b3c87" stroke-width="21.13"/><path d="m2878.26 2323.9c-27-.59-71 21.12-104.8 37.68" stroke="#1b3c87" stroke-width="21.13"/></g><path d="m3450.44 1683.42c278.73-94.75 546.74 507.36 533.62 570.48s-451.86 190.42-502.43 150.56-192.63-666.16-31.19-721.04z" fill="#46dbc9" fill-rule="evenodd"/><path d="m3556.51 2365.1c-54.35 9.08-96.41 10.54-110.09-.24-22.22-17.53-62.14-148.33-86.18-294.11" fill="none" stroke="#1b3c87" stroke-linecap="round" stroke-linejoin="round" stroke-width="21.13"/><path d="m3503.37 1635.73c244.36 35.17 457.21 522.16 445.48 578.56-7.16 34.43-141 88-269.34 123" fill="none" stroke="#1b3c87" stroke-linecap="round" stroke-linejoin="round" stroke-width="21.13"/><path d="m3631.57 4222.63.91-963.8-1153.64-7.34-4.07 971.14z" fill="#3c3744" fill-rule="evenodd"/></svg>