<svg viewBox="0 0 1095.62 853.17" xmlns="http://www.w3.org/2000/svg"><path d="m986.81 287c69.23 56.19 88.8 157.77 68.49 244.42-20.12 86.75-79.94 158.68-153.22 197.43-73.19 39-159.74 44.71-240.3 66-80.66 21.44-155.34 58.47-238.6 58.3-83.35 0-175-37.28-256.12-98.47-81.06-60.91-151.36-145.68-154.92-228.4-3.37-82.64 60-163.32 104.11-246 44.2-82.89 69-168.12 128.15-221.51s152.6-75.37 231-44.83 141.68 112.99 232.6 159.61c91.05 46.73 209.66 57.58 278.81 113.45z" fill="#f1f1f1"/><path d="m0 64.38h1074.32v684.67h-1074.32z" fill="#eaf0ff"/><path d="m1065.4 714.35 13.72 21.44 16.5 13.92-46.05 51.87 9.73-46.77-18.09-16.79z" fill="#fff"/><path d="m888.47 779.53c.42 3.37.78 11.78 1.24 17.51 2.47 4.74 3.89 9.07 5.81 12.66-4 4.73-35.06 33.13-37.29 34s-31.47 0-31.47 0c0-2.23 16-12.57 23.42-19.54 2.79-3.48 7.42-40.93 7.42-48.45z" fill="#fff"/><path d="m991.48 496.83c1.06 7.72 5.34 109.46 5.34 125.8 6.16 7.49 63.73 81.93 63.73 90.76-6.8 7.68-16.06 16-21.69 21.15-3.56 3.27-91.57-91-93.18-95.85s-13.92-33.69-13.92-40.43 27.31-96.12 27.31-96.12z" fill="#3b3744"/><path d="m990.41 599.15c.26 8.11.41 14.35.41 17.48 6.16 7.49 63.73 81.93 63.73 90.76-5.62 5.71-17.33 16.31-21.69 21.15-4.82-.26-91.57-91-93.18-95.85s-13.92-33.69-13.92-40.43 27.31-96.12 27.31-96.12l32.41-5.31c.64 4.67 2.47 43.83 3.81 77.61" fill="none" stroke="#1b3c87" stroke-linecap="round" stroke-linejoin="round" stroke-width="2"/><path d="m889.76 502.27c-1.57 8.69-32.62 271.26-32.62 279.58 3.63 4.68 24.59 5.35 28.23 3.12s36.2-156 38.91-165c10.16-6.77 51.81-101.16 51.8-115.48" fill="#3b3744"/><path d="m942.47 336.47c52 0 50.21 150 47.25 160.92s-101.36 12.37-101.57 3.88c-2.05-79.9-7.54-164.8 54.32-164.8z" fill="#46dbc9"/><path d="m903.58 688.89c7.6-35.22 14.8-69.62 16.09-73.91 10.15-6.77 51.81-101.16 51.8-115.48" fill="none" stroke="#1b3c87" stroke-linecap="round" stroke-linejoin="round" stroke-width="2"/><path d="m872.63 599.13c-8.82 73.75-19 161.24-19 166.1 6.43 1.63 26.23 3.27 30.74 3.83 1.39-.85 6.46-22.15 12.36-48.67" fill="none" stroke="#1b3c87" stroke-linecap="round" stroke-linejoin="round" stroke-width="2"/><path d="m885.15 497.27c-.37 2-2.24 16.93-4.92 38.8" fill="none" stroke="#1b3c87" stroke-linecap="round" stroke-linejoin="round" stroke-width="2"/><path d="m874.47 822.06c-9.28 8.53-19 17.15-20.24 17.61-2.23.84-31.47 0-31.47 0 0-2.23 16-12.57 23.42-19.54 1.16-1.45 2.64-8.75 4-17.32" fill="none" stroke="#1b3c87" stroke-linecap="round" stroke-linejoin="round" stroke-width="2"/><path d="m852.37 786.2c.75-6.53 1.23-12.09 1.23-14.52l30.87 3.85c.42 3.37.78 11.78 1.24 17.51 2.47 4.74 3.89 9.07 5.81 12.66-1.07 1.25-4 4.14-7.81 7.75" fill="none" stroke="#1b3c87" stroke-linecap="round" stroke-linejoin="round" stroke-width="2"/><path d="m0 64.38h1074.32v88h-1074.32z" fill="#d7dfff"/><path d="m219.62 87.15h665.02v42.46h-665.02z" fill="#fff"/><path d="m930.35 87.15h107.24v42.46h-107.24z" fill="#b2c3fb"/><circle cx="37.81" cy="108.38" fill="#fb5e64" r="14.83"/><circle cx="89.01" cy="108.38" fill="#fb5e64" r="14.83"/><circle cx="140.21" cy="108.38" fill="#fb5e64" r="14.83"/><path d="m462.51 256.49h263.52v299.52h-263.52z" fill="none" stroke="#b6c6fc" stroke-linecap="round" stroke-linejoin="round" stroke-width="6.88" transform="matrix(.17296061 -.98492874 .98492874 .17296061 91.39 921.33)"/><circle cx="400.92" cy="511.18" fill="none" r="144.85" stroke="#b6c6fc" stroke-linecap="round" stroke-linejoin="round" stroke-width="6.88"/><path d="m953.52 501.65c-29.59 2.37-68.24.93-68.37-4.38-.63-24.5-1.58-49.48-.81-72.32" fill="none" stroke="#1b3c87" stroke-linecap="round" stroke-linejoin="round" stroke-width="2"/><path d="m886.1 399.67c4.48-39.09 17.78-67.2 53.37-67.2 52 0 50.21 150 47.25 160.92-.54 2-4.14 3.62-9.69 5" fill="none" stroke="#1b3c87" stroke-linecap="round" stroke-linejoin="round" stroke-width="2"/><path d="m953.52 347.26c0 4.93-22.81 4.49-22.41-2.09l2.09-34.67h20.32z" fill="#fff"/><path d="m950.52 344.26c0 4.93-22.81 4.49-22.41-2.09l2.09-34.67h20.32z" fill="none" stroke="#1b3c87" stroke-linecap="round" stroke-linejoin="round" stroke-width="2"/><ellipse cx="950.23" cy="281.48" fill="#fff" rx="38.12" ry="25.54" transform="matrix(.21 -.98 .98 .21 479.42 1153.55)"/><path d="m921.06 286.36a55.4 55.4 0 0 1 1.18-13.13 50.91 50.91 0 0 1 10.14-21.87" fill="none" stroke="#1b3c87" stroke-linecap="round" stroke-linejoin="round" stroke-width="2"/><path d="m946.13 315.88a17.72 17.72 0 0 1 -6.73-.1c-7.49-1.57-13.18-7.9-16.12-16.65" fill="none" stroke="#1b3c87" stroke-linecap="round" stroke-linejoin="round" stroke-width="2"/><path d="m959.36 240.6c22 0 33 23.18 38 48 4 20 14 37 14 54 0 25.47-16.67 48-34 48-26.85 0-37-26.21-37-38 0-16.67 5-27.54 5-48 0-16.2-10-28.25-10-52 0-6.04 9.64-12 24-12z" fill="#eecb55"/><g fill="none" stroke-linecap="round" stroke-linejoin="round"><path d="m937.74 354a27.48 27.48 0 0 1 -.38-4.37c0-16.67 5-27.54 5-48 0-16.2-10-28.25-10-52 0-6 9.62-12 24-12 12 0 20.81 7 27.09 17.33" stroke="#1b3c87" stroke-width="2"/><path d="m995.39 376.3c-6 7-13.45 11.3-21 11.3a33.92 33.92 0 0 1 -26.23-11.6" stroke="#1b3c87" stroke-width="2"/><path d="m995.7 291.43c4.53 17.52 12.66 32.85 12.66 48.17a59.45 59.45 0 0 1 -5.49 24.92" stroke="#1b3c87" stroke-width="2"/><path d="m848.62 764.6 42.9 5.35" stroke="#1b3c87" stroke-width="2"/><path d="m847.25 770.89 42.89 5.35" stroke="#1b3c87" stroke-width="2"/><path d="m1028.96 732.51 32.22-31.67" stroke="#1b3c87" stroke-width="2"/><path d="m1031.95 738.21 32.22-31.66" stroke="#1b3c87" stroke-width="2"/><path d="m1054.09 786.85-9.52 10.73 9.73-46.77-18.09-16.79 24.19-23.67 13.72 21.44 16.5 13.92-22.68 25.54" stroke="#1b3c87" stroke-width="2"/></g><path d="m880.56 333.67a211.85 211.85 0 0 1 -20.88-6.67c-2-4.45-27.66-98.72-32-116.91-2.76.23-6.29 4.7-3.75 14.16-4.85 3.93-12.76 11.84-.48 24.33.54 3.42 15.89 96 17.38 98 4.84 6.55 23.72 15.73 27.86 17.38 1.31-3.59-.69-9.5 11.87-30.29z" fill="#fff"/><path d="m933.34 376c4.2-12-34.92-45.65-46.29-46.56-6.66 3.42-22.64 29.9-19 42.91 12.56 7.95 58.34 23.48 65.29 3.65z" fill="#46dbc9"/><path d="m836.11 246.77c-4.79-17.8-8.89-33.39-10.39-39.73-2.76.23-6.45 3-3.92 12.46" fill="none" stroke="#1b3c87" stroke-linecap="round" stroke-linejoin="round" stroke-width="2"/><path d="m878.56 330.67a211.85 211.85 0 0 1 -20.88-6.67c-1-2.31-8.44-28.85-15.94-56.37" fill="none" stroke="#1b3c87" stroke-linecap="round" stroke-linejoin="round" stroke-width="2"/><path d="m834.05 323.47c-4.9-26.27-11.25-69.6-12.56-77.94-4.49-3.77-10.22-14.61-4.9-19.31" fill="none" stroke="#1b3c87" stroke-linecap="round" stroke-linejoin="round" stroke-width="2"/><path d="m864.73 361c-3.89-.61-22.18-12.27-25.86-17.38a18.41 18.41 0 0 1 -1.59-4.65" fill="none" stroke="#1b3c87" stroke-linecap="round" stroke-linejoin="round" stroke-width="2"/><path d="m911.25 381.66c9.14 0 16.6-2.59 19.09-9.7 2.66-7.59-12-23.85-26.05-35" fill="none" stroke="#1b3c87" stroke-linecap="round" stroke-linejoin="round" stroke-width="2"/><path d="m884.05 325.4c-6.66 3.42-22.64 29.9-19 42.91a88.62 88.62 0 0 0 17.1 7.69" fill="none" stroke="#1b3c87" stroke-linecap="round" stroke-linejoin="round" stroke-width="2"/></svg>