<svg viewBox="0 0 920.37 981.45" xmlns="http://www.w3.org/2000/svg"><path d="m273.74 263.18h216.45v406.62h-216.45z" fill="none" stroke="#eaf0ff" stroke-miterlimit="10" stroke-width="3" transform="matrix(.51877326 -.85491187 .85491187 .51877326 -215.01 550.98)"/><path d="m120.07 966.46h800.3v9.99h-800.3z" fill="#d8dfff"/><path d="m553.81 0h127.84v966.46h-127.84z" fill="#d8dfff"/><path d="m455.65 445.91c-4.78 19.11-31.53 241.21-31 260.32 5.21 15.77 147.54 195.36 147.54 195.36l26.28-33.44-93.62-194.4 15.76-216.75z" fill="#3b3744"/><path d="m422.18 668.75c-1.68 16.76-2.67 28.66-2.58 32.48 5.26 15.77 147.59 195.36 147.59 195.36l26.28-33.44-93.62-194.4 15.76-216.75-65-11.07c-3 12-14.62 103.68-22.76 175.18" fill="none" stroke="#1b3c87" stroke-linecap="round" stroke-linejoin="round" stroke-width="3.19"/><path d="m488.65 898.77 20.06-432.28s118.79 14.38 118.79 22-94 410.24-94 410.24z" fill="#3b3744"/><path d="m382 314c2.1 6.75 34.67 95.85 44.67 104s41.41 3.49 42.81 1.63 11.16-87.94 11.16-87.94l-34.89-2.32c-4.19 10.46-8.15 24-9.31 27.68-3-8.14-31.65-53.26-32.82-56.52" fill="#fff"/><path d="m0 741.49 96.71 98.69 37.12-133.1z" fill="#eaf0ff"/><g fill="none"><path d="m427.86 345c-8.49-15.33-28.31-46.77-29.28-49.47" stroke="#1b3c87" stroke-linecap="round" stroke-linejoin="round" stroke-width="3.19"/><path d="m407.25 386.57c5.92 13.43 11.25 23.85 14.38 26.43 10 8.14 42.81-10.4 44.21-12.26s9.76-74.05 9.76-74.05l-34.89-2.32c-2.89 7.2-5.66 15.84-7.49 21.74" stroke="#1b3c87" stroke-linecap="round" stroke-linejoin="round" stroke-width="3.19"/><path d="m377 309c1.1 3.54 10.58 29.73 20.79 55" stroke="#1b3c87" stroke-linecap="round" stroke-linejoin="round" stroke-width="3.19"/><path d="m543.63 823.74c-9.58 41.18-16.08 69-16.08 69h-44.9l11.92-256.9" stroke="#1b3c87" stroke-linecap="round" stroke-linejoin="round" stroke-width="3.19"/><path d="m497.56 571.4 5.15-110.91s118.79 14.38 118.79 22c0 4.8-37.06 165.41-64.63 284.21" stroke="#1b3c87" stroke-linecap="round" stroke-linejoin="round" stroke-width="3.19"/><path d="m560.37 905.32 47.51-59.38" stroke="#1b3c87" stroke-linecap="round" stroke-linejoin="round" stroke-width="3.19"/><path d="m585.75 902.4 29.7-37.12" stroke="#1b3c87" stroke-linecap="round" stroke-linejoin="round" stroke-width="3.19"/><path d="m571.28 920.5 3.41-4.27" stroke="#1b3c87" stroke-linecap="round" stroke-linejoin="round" stroke-width="3.19"/><path d="m466.22 892.89h77.04" stroke="#1b3c87" stroke-linecap="round" stroke-linejoin="round" stroke-width="3.19"/><path d="m464.76 910.74h77.04" stroke="#1b3c87" stroke-linecap="round" stroke-linejoin="round" stroke-width="3.19"/><path d="m557.39 517.29 24.7 54.13" stroke="#1b3c87" stroke-linecap="round" stroke-linejoin="round" stroke-width="3.19"/><path d="m402.25 295.39-28.56.81-26.89-58.95 28.55-.8z" stroke="#1b3c87" stroke-linecap="round" stroke-linejoin="round" stroke-width="3.19"/><path d="m377 309c-1-4-3.91-14.2-4.68-15.87" stroke="#1b3c87" stroke-linecap="round" stroke-linejoin="round" stroke-width="3.19"/></g><path d="m462.94 346.54c-4.93-3.08-20.87-11.8-24.06-19 6.13-35.87 35.22-92.76 73.39-78.94 9.94 3.4-29.27 108.89-49.33 97.94z" fill="#46dbc9"/><path d="m447.64 282.06c13.3-26 34.5-47.59 59.63-38.49 9.94 3.4-29.31 108.92-49.33 98-4.93-3.08-20.87-11.8-24.06-19a127.23 127.23 0 0 1 3.25-13.93" fill="none" stroke="#1b3c87" stroke-linecap="round" stroke-linejoin="round" stroke-width="3.19"/><path d="m546.75 241.45c106.65 0 81.17 233.23 64.6 243.37s-145.52-10.14-159.7-29.18c-5.52-55.64 18.87-214.19 95.1-214.19z" fill="#46dbc9"/><path d="m517.17 474.66c-33.06-6.21-64-15.25-70.52-24-2-20.27 0-54.17 6.93-89.09" fill="none" stroke="#1b3c87" stroke-linecap="round" stroke-linejoin="round" stroke-width="3.19"/><path d="m574.22 245.44c68.29 43 46.75 225.44 32.13 234.38-5.74 3.52-25 3.38-48.27.9" fill="none" stroke="#1b3c87" stroke-linecap="round" stroke-linejoin="round" stroke-width="3.19"/><path d="m464.69 319.16c13.59-40.63 35.13-75.26 66.48-81.66" fill="none" stroke="#1b3c87" stroke-linecap="round" stroke-linejoin="round" stroke-width="3.19"/><path d="m601.22 354c1.42 11.34 12.62 42.67 11 48.69s-39.58 127.31-44.22 131.74c1.77 4.25 10.62 23 11 25.5 5.67-5.49 78.93-136.3 80-147.29s4.56-69.06 2.79-76.5-61.86 9.61-60.57 17.86z" fill="#fff"/><path d="m575.58 496.44c-6.09 18-11.06 31.56-12.54 33 1.77 4.25 10.62 23 11 25.5 5.67-5.49 78.93-136.3 80-147.29.11-1.08.24-2.64.38-4.55" fill="none" stroke="#1b3c87" stroke-linecap="round" stroke-linejoin="round" stroke-width="3.19"/><path d="m656.58 365.58c.72-15.92 1.06-30.9.22-34.44-1.77-7.44-61.87 9.61-60.58 17.89 1.42 11.34 12.62 42.67 11 48.69-.83 3.14-11.51 37.44-22.22 70.26" fill="none" stroke="#1b3c87" stroke-linecap="round" stroke-linejoin="round" stroke-width="3.19"/><path d="m604.84 252.24c38.12-8.72 66.28 68.92 61.77 88.68-12.14 11.82-59.74 24.42-72.35 17.73-8.26-15.56-17.49-100 10.58-106.41z" fill="#46dbc9"/><path d="m582.29 277.34c2.24-15.53 7.51-27.81 17.55-30.1 38.12-8.72 66.28 68.92 61.77 88.68-12.14 11.82-59.74 24.42-72.35 17.73-3.38-6.37-6.92-24.32-8-43.72" fill="none" stroke="#1b3c87" stroke-linecap="round" stroke-linejoin="round" stroke-width="3.19"/><path d="m580 204.5c-1 10-5.87 43.36-4.74 52.94-4.84 4.22-31.21 7.62-39.55-1.65 3.5-9.17 4.74-27.4 4.32-35.43s39.97-15.86 39.97-15.86z" fill="#fff"/><path d="m552.47 257.68c-8.16.18-16.68-1.31-20.8-5.89" fill="none" stroke="#1b3c87" stroke-linecap="round" stroke-linejoin="round" stroke-width="3.19"/><path d="m535.35 233.1a123.13 123.13 0 0 0 .64-16.74c-.41-8 40-15.86 40-15.86-1 10-5.87 43.36-4.74 52.94a16.12 16.12 0 0 1 -6.06 2.58" fill="none" stroke="#1b3c87" stroke-linecap="round" stroke-linejoin="round" stroke-width="3.19"/><ellipse cx="543.14" cy="164.19" fill="#fff" rx="61.88" ry="49.05" transform="matrix(.05373025 -.99855549 .99855549 .05373025 350.03 697.73)"/><path d="m569.15 110.3c12.5 11.8 20.11 31.12 19 52.52a76.94 76.94 0 0 1 -3 17.53" fill="none" stroke="#1b3c87" stroke-linecap="round" stroke-linejoin="round" stroke-width="3.19"/><path d="m495.27 189.34a74.36 74.36 0 0 1 -5.11-31.78c1.84-34.13 25.25-60.62 52.3-59.16a39.56 39.56 0 0 1 14.61 3.65" fill="none" stroke="#1b3c87" stroke-linecap="round" stroke-linejoin="round" stroke-width="3.19"/><path d="m551.35 219.7a39.7 39.7 0 0 1 -15.53 2.3c-13.05-.7-24.56-7.77-32.77-18.74" fill="none" stroke="#1b3c87" stroke-linecap="round" stroke-linejoin="round" stroke-width="3.19"/><path d="m562.06 150c-.13 6 8.78 29.44 15.14 30.72 2.13.43 7.17 2.31 12.93 4.62a76.94 76.94 0 0 0 3-17.53c1.84-34.12-18.6-63-45.65-64.42-20.32-1.09-38.58 13.58-47.19 35.41 11.36 5.87 31.21 12.36 61.77 11.2z" fill="#fb5d64"/><path d="m524 162.93c0 3.71-6.4 17.42-11.77 17.42" fill="none" stroke="#1b3c87" stroke-linecap="round" stroke-linejoin="round" stroke-width="3.19"/><ellipse cx="506.31" cy="159.53" fill="#1b3c87" rx="3.26" ry="5.95"/><path d="m529.66 200.5c3-.06 10.71-5.12 14.5-11" fill="none" stroke="#1b3c87" stroke-linecap="round" stroke-linejoin="round" stroke-width="3.19"/><path d="m518.15 141.86a151.66 151.66 0 0 0 38.91 3.14c0 2 .89 5.8 2.37 10.11" fill="none" stroke="#1b3c87" stroke-linecap="round" stroke-linejoin="round" stroke-width="3.19"/><path d="m556.43 101.76a39.65 39.65 0 0 0 -14-3.36c-20.32-1.09-38.58 13.58-47.19 35.41a85.49 85.49 0 0 0 9.92 4.3" fill="none" stroke="#1b3c87" stroke-linecap="round" stroke-linejoin="round" stroke-width="3.19"/><path d="m585.13 180.35a76.94 76.94 0 0 0 3-17.53c1.12-20.83-6.06-39.69-18-51.55" fill="none" stroke="#1b3c87" stroke-linecap="round" stroke-linejoin="round" stroke-width="3.19"/><circle cx="575.2" cy="174.47" fill="#fff" r="13.5"/><path d="m563.71 160a13.48 13.48 0 1 1 6.57 23.86" fill="none" stroke="#1b3c87" stroke-linecap="round" stroke-linejoin="round" stroke-width="3.19"/><path d="m407.25 300.39-28.56.81-26.89-58.95 28.55-.8z" fill="#3b3744"/><path d="m612.96 879.65 26.9 32.53 22.18 4.37-44.83 64.9h-42.25l26.06-14.89-3.88-36.01-14.53-12.97" fill="#fff"/><path d="m635.27 943.06-23.06 33.39h-42.25l26.06-14.89-3.88-36.01-14.53-12.97" fill="none" stroke="#1b3c87" stroke-linecap="round" stroke-linejoin="round" stroke-width="3.19"/><path d="m607.96 874.65 26.9 32.53 22.18 4.37-5.78 8.36" fill="none" stroke="#1b3c87" stroke-linecap="round" stroke-linejoin="round" stroke-width="3.19"/><path d="m531.59 915.74-4.7 35.61 7.94 30.1h-100.67l52.76-40.46.16-25.25" fill="#fff"/><path d="m472.66 943.09 9.26-7.1.16-25.25" fill="none" stroke="#1b3c87" stroke-linecap="round" stroke-linejoin="round" stroke-width="3.19"/><path d="m524.29 928.15-2.4 18.2 7.94 30.1h-100.67l24.19-18.56" fill="none" stroke="#1b3c87" stroke-linecap="round" stroke-linejoin="round" stroke-width="3.19"/><path d="m401.87 284.54c.17-6.26 4.91-24 0-25.7s-26.25-9.63-23.35-3 4.25 7.94 7.8 10.14" fill="#fff"/><path d="m397.87 280.54c.17-6.26 4.91-24 0-25.7s-26.25-9.63-23.35-3 4.25 7.94 7.8 10.14" fill="none" stroke="#1b3c87" stroke-linecap="round" stroke-linejoin="round" stroke-width="3.19"/><path d="m372.23 288.23c-11-5-20.62-20.42 0-14" fill="#fff"/><path d="m360.85 273.66c-7-6.25-9.39-14.58 6.72-9.57" fill="#fff"/><path d="m368.23 284.23c-11-5-20.62-20.42 0-14" fill="none" stroke="#1b3c87" stroke-linecap="round" stroke-linejoin="round" stroke-width="3.19"/><path d="m356.85 269.66c-7-6.25-9.39-14.58 6.72-9.57" fill="none" stroke="#1b3c87" stroke-linecap="round" stroke-linejoin="round" stroke-width="3.19"/><path d="m390 82.69h-152.23a10.07 10.07 0 0 0 -10.07 10.07v58.69a10.07 10.07 0 0 0 10.07 10.07h42.35l33.77 44.48 33.78-44.48h42.33a10.07 10.07 0 0 0 10.07-10.07v-58.69a10.07 10.07 0 0 0 -10.07-10.07z" fill="#d8dfff"/><circle cx="266.19" cy="121.62" fill="#fff" r="16.28"/><path d="m299.97 110.95h79.55" fill="none" stroke="#fff" stroke-linecap="round" stroke-miterlimit="10" stroke-width="5"/><path d="m299.97 129.77h41.09" fill="none" stroke="#fff" stroke-linecap="round" stroke-miterlimit="10" stroke-width="5"/></svg>