<svg viewBox="0 0 828.05 684.69" xmlns="http://www.w3.org/2000/svg"><path d="m474.51 571.6c-79.18 4.15-154 30.44-221.67 11.94s-127.93-82-139.35-152.5c-11.43-70.29 25.78-147.55 74-199.83 48-52.29 107.1-79.59 164.23-100.32s112.28-34.99 183.67-38.63 158.87 3.54 187.19 49.25-2.43 129.64-12.64 213.07.2 166.05-36.41 198.42-119.83 14.46-199.02 18.6z" fill="#f0f0f0"/><path d="m423.47 411.4c5.26.77 19.43 3.07 19.43 3.07l22.75 10.14 30.25-55-38 22.41-18.82-10.65" fill="#fff"/><path d="m202.6 532.55h-154.07l-48.53-251.97h154.07z" fill="#eaf0ff"/><path d="m332.28 349c47.26 12.39 97.47 27 97.47 27-3.28 7.08-14.55 33.26-14.55 33.26l-244.42 23.82c3.82-13.46 58.92-101.2 82.93-101.2 6.48 0 22.29 3.21 41.91 7.91" fill="none" stroke="#1b3c87" stroke-linecap="round" stroke-linejoin="round" stroke-width="2"/><path d="m453.93 371.44 13.5 34.9" fill="none" stroke="#1b3c87" stroke-linecap="round" stroke-linejoin="round" stroke-width="2"/><path d="m431.33 372.14-18.89 43.49" fill="none" stroke="#1b3c87" stroke-linecap="round" stroke-linejoin="round" stroke-width="2"/><path d="m437.38 372.14-18.89 43.49" fill="none" stroke="#1b3c87" stroke-linecap="round" stroke-linejoin="round" stroke-width="2"/><path d="m458.69 368.14 13.5 34.9" fill="none" stroke="#1b3c87" stroke-linecap="round" stroke-linejoin="round" stroke-width="2"/><path d="m419.47 407.4c5.26.77 19.43 3.07 19.43 3.07l22.75 10.14 30.25-55-38 22.41-18.82-10.65" fill="none" stroke="#1b3c87" stroke-linecap="round" stroke-linejoin="round" stroke-width="2"/><path d="m279.14 417.28h496.73v10.98h-496.73z" fill="#d8dfff"/><g fill="none" stroke-linecap="round" stroke-linejoin="round" stroke-width="2"><path d="m305.01 679.69 61.85-251.43" stroke="#d8dfff"/><path d="m365.22 683.69 62.71-254.92" stroke="#d8dfff"/><path d="m463.27 570.14-34.77-141.37" stroke="#d8dfff"/><path d="m491.21 683.69-17.37-70.59" stroke="#d8dfff"/><path d="m431 683.69-62.71-254.92" stroke="#d8dfff"/><path d="m580.69 679.69 61.85-251.43" stroke="#d8dfff"/><path d="m684.54 506.29 19.08-77.52" stroke="#d8dfff"/><path d="m640.9 683.69 23.75-96.53" stroke="#d8dfff"/><path d="m766.89 683.69-62.71-254.92" stroke="#d8dfff"/><path d="m706.68 683.69-62.71-254.92" stroke="#d8dfff"/><path d="m48.53 532.55h183.22" stroke="#1b3c87"/><path d="m140.14 656.23v16.7" stroke="#1b3c87"/><path d="m140.14 610.82v11.8" stroke="#1b3c87"/><path d="m140.14 532.55v66.4" stroke="#1b3c87"/><path d="m110.35 672.93h59.58" stroke="#1b3c87"/></g><path d="m463.89 49.73h256.02v256.02h-256.02z" fill="#d8dfff"/><rect fill="#fff" height="41.54" rx="18.52" width="158.66" x="485.28" y="96.04"/><circle cx="677.75" cy="116.8" fill="#fff" r="20.77"/><path d="m485.28 160.91h213.24" fill="none" stroke="#fff" stroke-linecap="round" stroke-linejoin="round" stroke-width="2"/><path d="m485.28 191.59h213.24" fill="none" stroke="#fff" stroke-linecap="round" stroke-linejoin="round" stroke-width="2"/><path d="m485.28 222.27h108.04" fill="none" stroke="#fff" stroke-linecap="round" stroke-linejoin="round" stroke-width="2"/><rect fill="#d8dfff" height="62.24" rx="12" width="62.24" x="360.89" y="218.34"/><circle cx="419.76" cy="218.08" fill="#fa5d63" r="15.68"/><path d="m348.09 0h238.43v83.11h-238.43z" fill="#eaf0ff"/><path d="m389.04 24.55h156.53" fill="none" stroke="#b2c3fb" stroke-linecap="round" stroke-linejoin="round" stroke-width="2"/><path d="m389.04 58.56h73.02" fill="none" stroke="#b2c3fb" stroke-linecap="round" stroke-linejoin="round" stroke-width="2"/><path d="m255.74 114.58-22 50.66 54.87-6.27z" fill="none" stroke="#b6c6fc" stroke-linecap="round" stroke-linejoin="round" stroke-width="2"/><path d="m772.15 71.81h23.52v46.38h-23.52z" fill="none" stroke="#b6c6fc" stroke-linecap="round" stroke-linejoin="round" stroke-width="2" transform="matrix(.23514211 -.971961 .971961 .23514211 507.27 834.6)"/><path d="m90.57 474.83c.61 6.81 12 61.72 48.11 61.72 53.68 0 141.09-67.76 170.23-90.52 18.62-3.79 159-44 159-44-2.59-7.76-8.11-22.07-8.11-22.07s-128.69 8.15-151.5 11.95-129.66 37-134.84 38.49-82.89 44.43-82.89 44.43z" fill="#3b3744"/><path d="m174.78 437.08c3.82-13.46 58.92-101.2 82.93-101.2s176 44.11 176 44.11c-3.28 7.08-14.55 33.26-14.55 33.26z" fill="#3b3744"/><path d="m321.47 385.93c-7.66.74-13.68 1.43-17.19 2-22.8 3.8-129.66 37-134.84 38.49s-82.87 44.4-82.87 44.4c.61 6.81 12 61.72 48.11 61.72 25.7 0 59.13-15.53 90.2-34.22" fill="none" stroke="#1b3c87" stroke-linecap="round" stroke-linejoin="round" stroke-width="2"/><path d="m260.68 475c18.85-13.17 34.67-25.48 44.23-32.94 18.62-3.79 159-44 159-44-2.59-7.76-8.11-22.07-8.11-22.07s-44 2.79-85.08 5.86" fill="none" stroke="#1b3c87" stroke-linecap="round" stroke-linejoin="round" stroke-width="2"/><path d="m159.14 326c4.29 5.4 11.27 17.94 12.86 21.75 8.25-3.34 84-31 90.47-32.38s33.33-6.83 36.19 13c-4.92 4.13-16.19.47-24.6 2.3s-99.06 54.4-105.42 55.81-42.67-10-42.67-10 17.03-47.8 33.17-50.48z" fill="#fff"/><path d="m117.68 272.45c19.09 0 43.81 34.39 48.39 47.86-2.62 5.49-12.69 14.78-15.7 15.56s-54.66-63.42-32.69-63.42z" fill="#46dbc9"/><path d="m159.56 310.58a45.35 45.35 0 0 1 2.51 5.73c-2.62 5.49-12.69 14.78-15.7 15.56s-54.66-63.42-32.69-63.42c12.37 0 27.11 14.44 37.19 28.27" fill="none" stroke="#1b3c87" stroke-linecap="round" stroke-linejoin="round" stroke-width="2"/><path d="m255.44 333.57c-28.12 14.73-85.8 47.8-90.8 48.91-6.32 1.4-42.67-10-42.67-10s17-47.78 33.17-50.48c4.29 5.4 11.27 17.94 12.86 21.75 2-.82 8.08-3.09 16.17-6.07" fill="none" stroke="#1b3c87" stroke-linecap="round" stroke-linejoin="round" stroke-width="2"/><path d="m212.88 327.19c21.12-7.63 42.29-15.12 45.59-15.84 6.51-1.43 33.33-6.83 36.19 13-4.92 4.13-16.19.47-24.6 2.3" fill="none" stroke="#1b3c87" stroke-linecap="round" stroke-linejoin="round" stroke-width="2"/><path d="m120 278c34 24.55 45.7 96.6 58 151.19-10.33 11.59-73.71 52-87.56 48.89-30.83-75-68.51-208.69 3.09-208.69a44.23 44.23 0 0 1 26.47 8.61" fill="#46dbc9"/><path d="m83.09 465.78c-30.09-76.11-62.6-200.39 6.43-200.39 14.68 0 26.46 6.55 36.13 17.43" fill="none" stroke="#1b3c87" stroke-linecap="round" stroke-linejoin="round" stroke-width="2"/><path d="m141.68 308.15c15.58 33 23.8 79.21 32.31 117-4.92 5.51-21.85 17.55-39.74 28.32" fill="none" stroke="#1b3c87" stroke-linecap="round" stroke-linejoin="round" stroke-width="2"/><path d="m44.19 368.29c-.49 7.23-7.55 110.79-4.91 147.15 1.24 17.11 6.66 29.33 6.77 35.18.42 20.8 16.86 31.36 23.2 31.36s7.07-2.17 7.07-4.71-13.23-30.09-13.23-40.27 16.91-157.86 18.85-166.56-37.75-2.15-37.75-2.15z" fill="#fff"/><path d="m59.21 530.55c1.51-21.93 16.84-155.84 18.73-164.11 2-8.7-37.75-2.15-37.75-2.15-.26 3.77-2.3 33.73-3.82 66.7" fill="none" stroke="#1b3c87" stroke-linecap="round" stroke-linejoin="round" stroke-width="2"/><path d="m34.79 478.24c-.21 13.25-.11 24.95.49 33.2 1.24 17.11 6.66 29.33 6.77 35.18.42 20.8 16.86 31.36 23.2 31.36s7.07-2.17 7.07-4.71c0-1.18-2.88-7.81-5.95-15.57" fill="none" stroke="#1b3c87" stroke-linecap="round" stroke-linejoin="round" stroke-width="2"/><path d="m72.54 288c22.89 1.19 19.89 82.44 12.49 85.43s-42.83-.7-46.53-5.81 2.58-81.22 34.04-79.62z" fill="#46dbc9"/><path d="m65.93 244.9c2.58 7.8 5.73 26.63 5.66 32.36 4.08 2 15.89 2.72 20.55-.79-1.86-5.08-3.72-17.18-3.58-25.05s-22.63-6.52-22.63-6.52z" fill="#fff"/><path d="m87.11 269a97.09 97.09 0 0 1 -2.55-21.56c.14-7.88-22.63-6.52-22.63-6.52 2.58 7.8 5.73 26.63 5.66 32.36 2.68 1.32 8.69 2.08 13.82 1.45" fill="none" stroke="#1b3c87" stroke-linecap="round" stroke-linejoin="round" stroke-width="2"/><circle cx="84.56" cy="232.15" fill="#fff" r="26.92"/><path d="m103.49 242.27a27 27 0 0 1 -31 11.55" fill="none" stroke="#1b3c87" stroke-linecap="round" stroke-linejoin="round" stroke-width="2"/><path d="m60.56 246.17a26.92 26.92 0 1 1 46.93-18 27.79 27.79 0 0 1 -.3 4" fill="none" stroke="#1b3c87" stroke-linecap="round" stroke-linejoin="round" stroke-width="2"/><path d="m109.28 211.4c-9.26 13-29.86 14.12-34 14.12s-5.12 11.58-10.45 11.58-19-3.48-19-19.45c0-11.81 9.26-17.94 22.34-22 10.28-3.19 32.18-10 38.89-10 11.23 0 17 11.11 17 22 0 9.37-2.76 13.81-13.48 17.67" fill="#ecc953"/><path d="m70.44 189.73c11.16-3.4 27.09-8 32.64-8 11.23 0 17 11.11 17 22 0 9.37-2.76 13.81-13.48 17.67" fill="none" stroke="#1b3c87" stroke-linecap="round" stroke-linejoin="round" stroke-width="2"/><path d="m81.32 220.49a59 59 0 0 1 -10.07 1c-4.17 0-5.09 11.58-10.42 11.58s-19-3.48-19-19.45a19.26 19.26 0 0 1 .73-5.4" fill="none" stroke="#1b3c87" stroke-linecap="round" stroke-linejoin="round" stroke-width="2"/><path d="m105.28 207.4a29.94 29.94 0 0 1 -12.72 9.74" fill="none" stroke="#1b3c87" stroke-linecap="round" stroke-linejoin="round" stroke-width="2"/><circle cx="65.55" cy="234.23" fill="#fff" r="6.89"/><path d="m63.55 239.12a6.89 6.89 0 1 1 4.86-11.78" fill="none" stroke="#1b3c87" stroke-linecap="round" stroke-linejoin="round" stroke-width="2"/><path d="m76.2 370.35c-12.22 1-38.54-2.35-41.7-6.71-1.77-2.45-1.26-21.19 3.22-39.87" fill="none" stroke="#1b3c87" stroke-linecap="round" stroke-linejoin="round" stroke-width="2"/><path d="m48.1 297.05c5.14-8.12 11.85-13.47 20.44-13 18.6 1 20.11 54.78 16 76.54" fill="none" stroke="#1b3c87" stroke-linecap="round" stroke-linejoin="round" stroke-width="2"/><path d="m473.68 399.55 15.85-5.88 18.46-1.78-20.09-58.51-7.13 37.27-15.67 6.72" fill="#fff"/><path d="m478.11 360.66-1.34 6.99-15.67 6.72" fill="none" stroke="#1b3c87" stroke-linecap="round" stroke-linejoin="round" stroke-width="2"/><path d="m496.9 368.25-13-37.87-4.16 21.73" fill="none" stroke="#1b3c87" stroke-linecap="round" stroke-linejoin="round" stroke-width="2"/><path d="m469.68 396.55 15.85-5.88 18.46-1.78" fill="none" stroke="#1b3c87" stroke-linecap="round" stroke-linejoin="round" stroke-width="2"/><path d="m93 227.34c0 2.63 1.59 7.38 4 9.15" fill="none" stroke="#1b3c87" stroke-linecap="round" stroke-linejoin="round" stroke-width="2"/><ellipse cx="100.68" cy="224.92" fill="#1b3c87" rx="1.69" ry="3.23"/><path d="m83.27 240.27c1.26 1.52 4.74 3.62 7.16 3.62" fill="none" stroke="#1b3c87" stroke-linecap="round" stroke-linejoin="round" stroke-width="2"/><path d="m689.8 207.44h138.25v181.81h-138.25z" fill="#eaf0ff"/><path d="m689.8 207.44h138.25v25.18h-138.25z" fill="#d8dfff"/><circle cx="705.14" cy="219.85" fill="#b2c3fb" r="6.23"/><circle cx="724.11" cy="219.85" fill="#b2c3fb" r="6.23"/><circle cx="743.09" cy="219.85" fill="#b2c3fb" r="6.23"/><path d="m706.56 253.17h38.2v53h-38.2z" fill="#d8dfff"/><path d="m758.01 253.17h51.8" fill="none" stroke="#b2c3fb" stroke-linecap="round" stroke-linejoin="round" stroke-width="2"/><path d="m706.56 335.25h103.25" fill="none" stroke="#b2c3fb" stroke-linecap="round" stroke-linejoin="round" stroke-width="2"/><path d="m706.56 362.61h103.25" fill="none" stroke="#b2c3fb" stroke-linecap="round" stroke-linejoin="round" stroke-width="2"/><path d="m758.01 280.53h51.8" fill="none" stroke="#b2c3fb" stroke-linecap="round" stroke-linejoin="round" stroke-width="2"/><path d="m758.01 307.89h51.8" fill="none" stroke="#b2c3fb" stroke-linecap="round" stroke-linejoin="round" stroke-width="2"/></svg>