<svg viewBox="0 0 913.03 1046.09" xmlns="http://www.w3.org/2000/svg"><path d="m817.25 72.83c80.79 55.83 110.19 185.06 89.25 290s-92.42 185.45-157.14 243.82c-64.93 58.35-123.3 94.35-192.89 135.35-69.58 41.24-150.58 87.56-247 89.89-96.23 2.32-207.9-39.34-263.53-120.77-55.86-81.42-55.65-202.39-26.67-310.05 28.76-107.65 86.29-202 166.45-258s183.15-73.63 300.75-91.18 249.78-35.11 330.78 20.94z" fill="#f0f0f0"/><path d="m236.09 756.61-116.17-74.83-6.72 138.02z" fill="#d8dfff"/><path d="m234.37 1.6h505.45v841.49h-505.45z" fill="none" stroke="#1b3c87" stroke-linecap="round" stroke-linejoin="round" stroke-width="3.19"/><path d="m328.32 555.08c-14.92 10.4-130.64 121.15-131.55 144.2s35.23 221.5 41.14 230.09h55.6s-5-190.76-.9-195.73 156-89.51 156-89.51-49.32-135.61-120.29-89.05z" fill="#3b3744"/><circle cx="60.87" cy="383.66" fill="none" r="36.96" stroke="#b6c6fc" stroke-linecap="round" stroke-linejoin="round" stroke-width="3.19"/><circle cx="108.78" cy="181.05" fill="none" r="17.07" stroke="#b6c6fc" stroke-linecap="round" stroke-linejoin="round" stroke-width="3.19"/><path d="m416.48 630.5-83.09-102s91.75-62.33 148.72-62.06c3.77 7.51 144.57 272 200.28 376.67" fill="none" stroke="#1b3c87" stroke-linecap="round" stroke-linejoin="round" stroke-width="3.19"/><path d="m589.62 843.09-127.24-156.23" fill="none" stroke="#1b3c87" stroke-linecap="round" stroke-linejoin="round" stroke-width="3.19"/><path d="m217.56 653c-15.54 18-26.51 33.24-26.79 40.27-.9 23.06 35.26 221.5 41.14 230.09h55.6s-5-190.76-.9-195.73 156-89.51 156-89.51-49.27-135.61-120.24-89c-6.62 4.61-33.05 28.95-60.51 56.63" fill="none" stroke="#1b3c87" stroke-linecap="round" stroke-linejoin="round" stroke-width="3.19"/><path d="m207.83 923.37h112.53" fill="none" stroke="#1b3c87" stroke-linecap="round" stroke-linejoin="round" stroke-width="3.19"/><path d="m206.82 946.35h112.52" fill="none" stroke="#1b3c87" stroke-linecap="round" stroke-linejoin="round" stroke-width="3.19"/><path d="m296.25 952.35c-.58 8.68-2 24.09-2 24.09l18.27 44-137.87 25.69 73.93-59.13-7.71-34.65" fill="#fff"/><path d="m227.29 993.22 15.29-12.22-7.71-34.65" fill="none" stroke="#1b3c87" stroke-linecap="round" stroke-linejoin="round" stroke-width="3.19"/><path d="m290.24 946.35c-.57 8.68-2 24.09-2 24.09l18.27 44-137.87 25.69 31.73-25.36" fill="none" stroke="#1b3c87" stroke-linecap="round" stroke-linejoin="round" stroke-width="3.19"/><path d="m687.2 843.08c-57.71-108.4-193.39-363.3-197.09-370.67-57-.27-148.72 62.06-148.72 62.06l251.34 308.61z" fill="#3b3744"/><path d="m201.53 388.66c-1 12.55-5.09 74.3-5.09 79.72s-58.35 73.62-63.78 74.3-37.28-11.92-40.43-11.92-33.5 6.3-38.47 6-1 9.45 17.74 9.29l-9.66-1c-4.77.64-5.71 1-10.05 1s-2.18 11.11 23.36 11.11c4.82 4.73 0 7.38 18.92 11.89s37.83 11.11 41.83 8.68c7.38-7.49 16.48-16.36 32.1-17.39 12.53-7.59 83.42-79.95 84.85-84s2.81-63.51 2.81-63.51-13.09-49.93-54.13-24.17z" fill="#fff"/><path d="m569.66 486.55c-14.17-14.5-19.86-31-22.49-39.21-5.55-6.63-96.07-81.07-101.17-83.34s-54.06-18.48-54.06-18.48l21.06-62.73c7 3.55 53.76 28 59.88 32.57s98.34 115.42 100.6 118 18.74 4.79 20 9.67c3.87 15.16 17.41 29.37 32.89 38.55.29 4.29 1.9 19.51-20.84 26.69a85.48 85.48 0 0 1 -35.81-21.72" fill="#fff"/><path d="m215.4 102.08c48 0 71.08 62 78 74 27 47 82 59 82 111 0 14-132 45-140 45s-19-26-19-63c0-34-48-40-48-97 0-44 6-70 47-70z" fill="#ecc953"/><g fill="none" stroke-linecap="round" stroke-linejoin="round" stroke-width="3.19"><path d="m70.15 552.13c-25.54 0-27.7-11.11-23.36-11.11s5.28-.34 10.05-1l9.66 1c-18.74.16-22.72-9.62-17.75-9.29s35.33-6 38.48-6 35 12.6 40.43 11.92 63.78-68.87 63.78-74.3 4.07-67.17 5.09-79.72" stroke="#1b3c87"/><path d="m203.75 517c-17.8 18-34.9 34.79-37.93 36.82-6.64 4.44-14.13 2.3-19.27 5.72s-12.21 13.46-17.35 13.46-36.62-8.78-48.62-10.7 6.64-12.52 27-8.51" stroke="#1b3c87"/><path d="m250.66 447.08c0 7.08-1.53 21.65-2.81 24.22-.29.56-4.09 4.65-9.92 10.74" stroke="#1b3c87"/><path d="m520.45 371.12c23.8 28.26 46.86 56 48 57.24 2.26 2.58 18.74 4.79 20 9.67 3.87 15.16 17.41 29.37 32.88 38.55" stroke="#1b3c87"/><path d="m408 277.79c7 3.55 53.76 28 59.88 32.57 1.7 1.24 10 10.61 21.09 23.58" stroke="#1b3c87"/><path d="m564.29 480.34c11.09 11.19 24.42 19.69 36.18 22.93" stroke="#1b3c87"/><path d="m383.28 340.49c9.11 2.75 50.72 14.36 59.72 19.51s95.3 71 99.63 85.76a71.27 71.27 0 0 0 8.18 17.75" stroke="#1b3c87"/><path d="m586.9 471c4.75 4.41 25.76 15.59 36.94 20" stroke="#1b3c87"/><path d="m592 487.56c6.15 4.15 10.38 6 21.56 10.36" stroke="#1b3c87"/><path d="m341.16 226.18c16.36 14.93 29.24 30.73 29.24 55.9 0 14-132 45-140 45s-19-26-19-63c0-34-48-40-48-97a246.32 246.32 0 0 1 1-25.18" stroke="#1b3c87"/><path d="m196.07 98.39a71.25 71.25 0 0 1 14.33-1.31c48 0 71.08 62 78 74 6.75 11.75 15.25 21.31 24.2 29.86" stroke="#1b3c87"/></g><path d="m233.18 299.88c-24.47-6-42.92 60.56-41.89 87.93 14.52 16 46.87 16.8 55 15.76s-13.11-103.69-13.11-103.69z" fill="#46dbc9"/><path d="m187.8 363.19a106.91 106.91 0 0 0 -1.51 19.62c14.52 16 46.87 16.8 55 15.76s-13.07-103.69-13.07-103.69c-14.57-3.58-27 18.57-34.46 42.86" fill="none" stroke="#1b3c87" stroke-linecap="round" stroke-linejoin="round" stroke-width="3.19"/><path d="m257.22 264.26c69.83-31.26 163.34 88.67 233.89 208.15-8.9 19.39-125.52 88-164.29 87.39-36.23-40.99-167.47-251.68-69.6-295.54z" fill="#46dbc9"/><path d="m301 532c-19.84-28.1-47.06-73.28-66-119.3" fill="none" stroke="#1b3c87" stroke-linecap="round" stroke-linejoin="round" stroke-width="3.19"/><path d="m477.14 458.05q2.5 4.18 5 8.36c-6.23 13.58-65.33 51.33-113.5 72.51" fill="none" stroke="#1b3c87" stroke-linecap="round" stroke-linejoin="round" stroke-width="3.19"/><path d="m220.32 370.58c-13.78-49.86-11.55-94.64 27.9-112.32 61.67-27.63 141.78 62.74 208.29 166.49" fill="none" stroke="#1b3c87" stroke-linecap="round" stroke-linejoin="round" stroke-width="3.19"/><path d="m296.83 263.37c14.67-31.16 93.49-1.23 117 14.56 1.93 13.15-17.54 67-28.76 72.26-16.33-1.41-106.48-48.06-88.24-86.82z" fill="#46dbc9"/><path d="m267.4 204.61c1.45 9.22 11.4 52.76 21.36 65.21-3.32 7.05-17.21 21.36-35.36 16.79-5.08-12-15.56-36.33-18.82-40.56s32.82-41.44 32.82-41.44z" fill="#fff"/><path d="m244.44 272.33c-5.35-12.39-12.31-28-14.86-31.28-3.26-4.23 32.82-41.44 32.82-41.44 1.45 9.22 11.4 52.76 21.36 65.21-2.31 4.9-9.74 13.32-20.16 16.45" fill="none" stroke="#1b3c87" stroke-linecap="round" stroke-linejoin="round" stroke-width="3.19"/><ellipse cx="222.22" cy="184.28" fill="#fff" rx="46.52" ry="70.44" transform="matrix(.93788893 -.34693565 .34693565 .93788893 -50.14 88.56)"/><path d="m264.72 217.08c-3.78 13.65-11.69 24.07-23.06 28.27-10.5 3.89-22.21 1.83-33.2-4.74" fill="none" stroke="#1b3c87" stroke-linecap="round" stroke-linejoin="round" stroke-width="3.19"/><path d="m203.4 189.08c1 3 1.36 15.14 0 21.07" fill="none" stroke="#1b3c87" stroke-linecap="round" stroke-linejoin="round" stroke-width="3.19"/><ellipse cx="189" cy="194.66" fill="#1b3c87" rx="2.32" ry="5.78" transform="matrix(.96 -.28 .28 .96 -47.05 60.89)"/><path d="m222.88 222.87c2.3-1.56 6.57-7.84 6.7-13.92" fill="none" stroke="#1b3c87" stroke-linecap="round" stroke-linejoin="round" stroke-width="3.19"/><path d="m196.4 156.08c6 14 42 31 79 29 0-5-12-49-21-56s-50-29-68-11 10 38 10 38z" fill="#ecc953"/><path d="m199.4 145.08c0 6-16 53.78-23.51 61.39-8.49-16.39-10.49-62.39-.49-73.39 9.6-10.52 24 12 24 12z" fill="#ecc953"/><path d="m192.66 153.41c7.44 11.52 33.38 24.19 62.58 26.47" fill="none" stroke="#1b3c87" stroke-linecap="round" stroke-linejoin="round" stroke-width="3.19"/><path d="m189.58 158.18c-3.86 11.84-9.36 26.58-14 35.72" fill="none" stroke="#1b3c87" stroke-linecap="round" stroke-linejoin="round" stroke-width="3.19"/><circle cx="252.4" cy="183.08" fill="#fff" r="12"/><path d="m239.46 171.08a12 12 0 1 1 11.36 19.75" fill="none" stroke="#1b3c87" stroke-linecap="round" stroke-linejoin="round" stroke-width="3.19"/><path d="m376.81 256.65c13 5.07 24.28 10.75 31 15.28 1.93 13.15-17.54 67-28.76 72.26-2.95-.26-8.29-2-15-4.87" fill="none" stroke="#1b3c87" stroke-linecap="round" stroke-linejoin="round" stroke-width="3.19"/><path d="m334.42 323.37c-27.31-17.45-54.36-43.1-43.59-66 7.08-15 29.08-15.85 52.61-10.89" fill="none" stroke="#1b3c87" stroke-linecap="round" stroke-linejoin="round" stroke-width="3.19"/></svg>