<svg viewBox="0 0 6120.9 5275.15" xmlns="http://www.w3.org/2000/svg"><path d="m4777.44 1045.43c497.86 576.33 882.56 1186.12 919.82 1831.92 36 645.81-276.59 1328.92-774.45 1785.61-496.57 456.7-1179.68 687-1765 590.49-584.06-97.77-1072.91-522.31-1693-979-618.81-456.69-1370.09-945.55-1346.94-1409.96 21.87-465.7 818.19-908.25 1438.27-1485.87 620.07-576.33 1062.62-1286.46 1588.78-1370.08s1135.95 460.55 1632.52 1036.89z" fill="#f7f7f7"/><path d="m659.78 2052.34 352.41-380.77 352.41-380.77 153.55 495.58 153.56 495.62-506-114.81z" fill="none" stroke="#b2c3fb" stroke-linecap="round" stroke-linejoin="round" stroke-width="10"/><path d="m5237.57 1238.58-197.18 718.05 648.3-125.63z" fill="none" stroke="#eaf0ff" stroke-linecap="round" stroke-linejoin="round" stroke-width="10"/><path d="m1145.14 1297.46h1650.55v1726.79h-1650.55z" fill="#d7e0ff"/><path d="m1747.26 1099.76h3211.41v2314.37h-3211.41z" fill="#eaf0ff" opacity=".67"/><path d="m3757.75 1705.78c0-227.82 184.69-412.5 412.5-412.5s412.51 184.68 412.51 412.5-184.69 412.5-412.51 412.5-412.5-184.68-412.5-412.5z" fill="#d7e0ff"/><path d="m3033.84 3742.32c0-232.59 188.56-421.15 421.15-421.15s421.14 188.56 421.14 421.15-188.55 421.14-421.13 421.14-421.16-188.55-421.16-421.14z" fill="none" stroke="#eaf0ff" stroke-linecap="round" stroke-linejoin="round" stroke-width="10"/><path d="m4332.74 913.82v319.25h2v340.81l-238.12-254.6h-684.69v-405.46z" fill="#fff"/><path d="m2248.45 1459.45v319.25h-2v340.81l238.13-254.59h684.71v-405.47z" fill="#fff"/><path d="m4773.45 2273.13c0 228.33 99.24 269.73 99.24 311.14s-45 268.51-57.84 298.35c33.49 46.88 269.73 71.24 314.79 59.06 3.65-44.45 60.28-333.67 73.07-353.15s155.87-134 155.87-228.94c0-212.5-14-495-155.26-495-171.71-.02-429.87 83.41-429.87 408.54z" fill="#fff"/><path d="m5486.22 2952.49c-110.46 2.74-349.13 45.53-349.13 45.53-1.37 116.6 30.42 1352.47 35.22 1538.39h681.62l241.47-1402.27a181.64 181.64 0 0 0 -181.65-181.65s-293.37 4.25-407.28 0c-6.12-.2-12.89-.19-20.25 0z" fill="#3c3744"/><path d="m1903 4002.43c38.87-21.43 414.52-299.43 435.06-325.43s94.27-174.55 100.47-184.24 45.64-27.81 50.57-23.63c30.26 25.69-18.24 113.15-24 126.52 28.17-25.71 206.39-165.06 228.23-158.21 157 49.29 98.25 258.81-.42 309.86-27 14-174.83 70.42-189 82.78s-636 530.08-649.93 540c-7.77-35.69 10.08-346.25 49.02-367.65z" fill="#fff"/><path d="m4154.11 3276.08c-26.76 39.61-94.44 138.43-121.21 177-287.91-378.81-586-598.17-664.25-972-75.76-48.21-71.41 123.84-14.5 252.64-88.85 56.84-173 113.85-147.15 156 99 161.17 128.79 110.46 165.77 113.78s333.23 610.6 418.58 706.12c62.9 70.41 111.77 152.73 306.2 236.38 20.9-177.94 151.93-599.27 178.68-631.25-24.03-17.2-95.36-78.27-122.12-38.67z" fill="#fff"/><path d="m4249.67 3357.6c-89.15-68-149.42-121.52-151-146.65-3.77-59.43 352.43-565.88 594.8-405.27 102.83 74.72-267.47 683.44-443.8 551.92z" fill="#46dbc9"/><path d="m4445.43 2782.1c78.1-38.74 158.23-48.46 228.73-1.74" fill="none" stroke="#1b3c87" stroke-linecap="round" stroke-linejoin="round" stroke-width="25"/><path d="m4230.38 3332.28c-90.48-66.18-149.42-121.52-151-146.65-1.63-25.7 64-135 158.68-237.73" fill="none" stroke="#1b3c87" stroke-linecap="round" stroke-linejoin="round" stroke-width="25"/><path d="m4919.22 2765.74c-712.79 6.51-855 1230.58-888 1770.67h1349.4c170.27-529.81 296.16-1660.16-349.44-1762.17a681.66 681.66 0 0 0 -111.96-8.5z" fill="#46dbc9"/><path d="m219.9 2916.42a181.65 181.65 0 0 0 -181.65 181.66s130.67 1058 178.31 1443.66h982.19c-.09-62.22-2-1374.53-12.06-1625.32z" fill="#3c3744"/><path d="m1435.34 2873c-653.51 0-782.65 1139.83-763.63 1668.72h1197.79c106.63-523.72 124.32-1668.72-434.16-1668.72z" fill="#46dbc9"/><path d="m1882.44 3703.12c16.19 309-16.62 630.73-62.88 836.37" fill="none" stroke="#1b3c87" stroke-linecap="round" stroke-linejoin="round" stroke-width="25"/><path d="m1558.61 2872.88c116.35 61.92 195.63 191.24 247.06 354.53" fill="none" stroke="#1b3c87" stroke-linecap="round" stroke-linejoin="round" stroke-width="25"/><path d="m1037 2982.8c51.66-51 109.25-91.57 173.33-118.79" fill="none" stroke="#1b3c87" stroke-linecap="round" stroke-linejoin="round" stroke-width="25"/><path d="m1890.38 3969.79c43.9-23.11 391.41-280 423.71-314.09s86-173.8 109.49-194.47 39.13-32 53.11-16.59-10.57 92.72-41 133.29c57.36-59.54 192.31-154 240-170.56" fill="none" stroke="#1b3c87" stroke-linecap="round" stroke-linejoin="round" stroke-width="25"/><path d="m2109.24 4119.72c-122.41 105.47-233.18 201.63-252.66 219.08" fill="none" stroke="#1b3c87" stroke-linecap="round" stroke-linejoin="round" stroke-width="25"/><path d="m2677.62 3712.56c-53.52 27.27-159.16 67.06-208 101.92-13.94 9.95-66.25 53.68-134.91 112" fill="none" stroke="#1b3c87" stroke-linecap="round" stroke-linejoin="round" stroke-width="25"/><path d="m2511.29 3589c16.66-13.8 68.3-50.7 119.76-84 47.79-31 95.43-58.82 114.73-62.21" fill="none" stroke="#1b3c87" stroke-linecap="round" stroke-linejoin="round" stroke-width="25"/><path d="m2552.78 3637.22c16.66-13.79 68.3-50.7 119.76-84 47.79-30.95 95.43-58.81 114.73-62.2" fill="none" stroke="#1b3c87" stroke-linecap="round" stroke-linejoin="round" stroke-width="25"/><path d="m2572.77 3702.45c14.8-12.44 60.65-45.72 106.33-75.77 42.44-27.91 84.73-53 101.87-56.09" fill="none" stroke="#1b3c87" stroke-linecap="round" stroke-linejoin="round" stroke-width="25"/><path d="m5202.93 2584.88c-13 37.1-71.55 311.56-75.88 354.85-55 19.79-281.27-13.07-309.72-56.36 27.83-81.63 57.41-243.59 54.93-311.62" fill="#fff"/><g fill="none" stroke="#1b3c87" stroke-linecap="round" stroke-linejoin="round" stroke-width="25"><path d="m4800.32 2858.73c27.83-81.63 57.41-243.59 54.93-311.61"/><path d="m5185.92 2560.24c-13 37.11-71.55 311.56-75.88 354.85-26.73 9.61-93.82 6.81-159-3.58"/><path d="m4779.8 2107.48c17.47-52.19 43.41-103.22 69.91-141.77"/><path d="m5064.4 2613.49c-29.82 6-60.07 6.21-89.85-.16-139.41-29.81-228.16-185.25-220.27-366.31"/><path d="m5139.37 2779.77c498.73 240 370.55 1285.89 208.27 1759.3"/><path d="m4124.52 3695.35c109.29-456.35 314.88-900.22 701.48-959.7"/><path d="m4007.74 4539.56c6.07-108.79 17.26-251.12 37.84-408.25"/><path d="m5286.48 4075.46c9 133 18.79 255.82 26.32 292.48-39.78 48.37-132.27 171.22-132.27 171.22"/><path d="m5261.48 3669.45c1.14 16.67 4.46 75.13 9 151.87"/><path d="m4129.17 3252.46c-13.34 19.52-118.86 176.32-118.86 176.32s-472-558.51-504-602.29c-95.69-130.74-141.31-290.41-146.56-325.49-5-33.14-21-72.26-48.73-53.92-43.78 33-15.16 201.77 18.45 259.44"/><path d="m3274.76 2725.82c1.14 29.1 27.89 118.55 71 159.14"/><path d="m3223.49 2777.55c4 28.84 39.46 115.22 86.4 151.35"/><path d="m3172.63 2830.51c5.74 28.55 46.33 112.63 95.36 145.87"/><path d="m3652.21 3512.68c-97.74-173.55-180.68-366.94-282.21-508.48"/><path d="m4077.63 3919.1c-90.36-21.75-166.35-71-232.85-137.41"/><path d="m4832.51 2142.63c7.19-34.13 33-57.59 57.67-52.4s38.83 37.06 31.65 71.2"/><path d="m5068.75 2197.44c7.18-34.13 33-57.59 57.67-52.4s38.83 37.06 31.65 71.2"/><path d="m4964.19 2212.23c-14.65 20.26-53 65.46-71.07 74.19"/><path d="m4974.19 2356c21 4.23 66.72 7.21 113-1.54 9.54 33.91 0 107.83-86.24 120.19"/><path d="m611.32 2888.11h549.68"/><path d="m194 4539.2-181.5-1469.43a181.66 181.66 0 0 1 181.67-181.66h68.44"/><path d="m5852.52 2930.08h-380.22"/><path d="m5813.75 4539.49 215.69-1243.12"/><path d="m2209.93 1957-.18 118.91 245.9-251.22h677.88v-405.92h-97.2"/><path d="m2822.62 1418.77h-612.5v337.74"/><path d="m2317.36 1541.73h670.31"/><path d="m2317.36 1700.14h234"/><path d="m4164.82 876.46h127.69v405.93l.37 251.22-245.88-251.22h-677.9v-54.61"/><path d="m3369.1 1070.9v-194.44h511.14"/><path d="m4185.27 999.42h-670.27"/><path d="m3753.24 1157.83h-234"/></g><path d="m501.46 3584.11.69 1.78c-23.81 53.37-237.19 657.46-227.81 707.52 9.43 50.39 59.44 139.21 96.22 159.75 16.81 9.41 185.18 45.46 386 88.58h1211.13c-24.74-63-128.13-114.95-223.79-115.14-32.45-1.07-83.22 1.15-120.09 43.29-364.87-168.4-773.59-264.65-892.41-295.59l-13-33.66c39.51-75.57 158.62-294.25 175.25-328.31-63.3-32.17-387.83-225.61-390.65-227.33l-.21-.6c0 .07-.13.28-.16.35z" fill="#fff"/><path d="m318.55 4037.81c-36 113.43-62.47 206.83-59 225.24 9.43 50.38 59.41 139.17 96.19 159.73 20.34 11.36 258.6 62.09 512.74 117" fill="none" stroke="#1b3c87" stroke-linecap="round" stroke-linejoin="round" stroke-width="25"/><path d="m486.19 3553.78c-9.38 20.35-55.08 147.11-103 288.22" fill="none" stroke="#1b3c87" stroke-linecap="round" stroke-linejoin="round" stroke-width="25"/><path d="m881.79 3779.93c-24.63 40.1-184.64 342.37-188.67 355 75.66 22.11 525.09 120.86 918.87 302.61 36.88-42.15 87.63-44.36 120.08-43.28 110.44.21 229.35 57.34 229.35 145" fill="none" stroke="#1b3c87" stroke-linecap="round" stroke-linejoin="round" stroke-width="25"/><path d="m1059.75 3042.47c272.37 159.25-13.08 765.11-86.78 784.38-144.83 10-478.35-199.1-510.45-283.74s328.48-657.8 597.23-500.64z" fill="#46dbc9"/><path d="m1141.8 3393.71c-40.56 193.68-145.22 381.87-185.78 392.48-144.83 10-478.35-199.11-510.45-283.76-11.76-31 29.21-127.65 99.07-229.89" fill="none" stroke="#1b3c87" stroke-linecap="round" stroke-linejoin="round" stroke-width="25"/><path d="m713 3080.77c104.54-89.76 224.27-140.7 329.84-79 42 24.57 70.77 59.78 89.07 101.83" fill="none" stroke="#1b3c87" stroke-linecap="round" stroke-linejoin="round" stroke-width="25"/><path d="m1220.14 2997.36c39.66-107.81 33.53-470.22 29.6-506.07-4.74-43.27-37.32-355.3 40.91-421.22s198.47-139.79 269.45-134.72 282.22 217.63 282.22 475-234 380.31-288.89 382c-7.5 57.15-6.92 210.12-6.92 265.53-22.51 21.59-268.84 14.33-326.37-60.52z" fill="#fff"/><path d="m1259.2 2265.68c-36.67-2.24-65.15 30.84-95.77 62.41-27.43-203.09 68.26-560.22 205.57-584.65 23.6.93 26.57 32.21 19.68 59.74 86.13-78.56 247.91-122.21 316.58-122.79 89 0 120.46 70.19 120.46 94.28 0 61-40 152.14-54.71 175.74 23.54-12.52 42.4-17.09 60.59-17.09 45.78 0 57 71 57 92.16 0 73.84-78.19 149-117 149-18.19 0-68.47-28.33-83.71-49.47 5.37 15.7 11.33 20.1 11.55 44.23.17 19.91-28.77 30.84-46 30.84-45.62 0-136.06-89-218.8-89-27.53 0-62.27 39.45-62.27 61.69s11.63 127.23 4.63 130.88c-21.36 16.83-31.27-33.23-116.07-38.67" fill="#eecb55"/><path d="m1777.92 2538.88c-52.85 130.67-160.88 220.21-285.57 220.21-63.14 0-122-23-171.6-62.6" fill="none" stroke="#1b3c87" stroke-linecap="round" stroke-linejoin="round" stroke-width="25"/><path d="m1765.89 2148.79c31.51 62.26 46.55 129.07 46.55 208.3a509.08 509.08 0 0 1 -3 55.36" fill="none" stroke="#1b3c87" stroke-linecap="round" stroke-linejoin="round" stroke-width="25"/><path d="m1517 3025.08c-3.45-63.75-1.5-229.93 7.11-266.11" fill="none" stroke="#1b3c87" stroke-linecap="round" stroke-linejoin="round" stroke-width="25"/><path d="m1219.66 2795.48c-5 65.13-13.3 126.11-26.6 168.15 25.34 29.72 93.29 52.45 164 63.09" fill="none" stroke="#1b3c87" stroke-linecap="round" stroke-linejoin="round" stroke-width="25"/><path d="m1219.48 2462.81c3.89 18.6 7.78 104.86 6 204.19" fill="none" stroke="#1b3c87" stroke-linecap="round" stroke-linejoin="round" stroke-width="25"/><path d="m1447 2278.2c0-19.23 8.27-34.83 18.48-34.83s18.47 15.6 18.47 34.83-8.27 34.83-18.47 34.83-18.48-15.59-18.48-34.83z" fill="#1b3c87"/><path d="m1709.86 2292.13c0-19.23 8.27-34.82 18.47-34.82s18.48 15.59 18.48 34.82-8.27 34.83-18.48 34.83-18.47-15.59-18.47-34.83z" fill="#1b3c87"/><path d="m1635.8 2370.21c4.33 30.69 29.4 82.12 57.06 102" fill="none" stroke="#1b3c87" stroke-linecap="round" stroke-linejoin="round" stroke-width="25"/><path d="m1620.68 2546.56c-19-2.59-79.54-35-91.64-58.35-22.48 10.81-33.72 87.31 12.1 99" fill="none" stroke="#1b3c87" stroke-linecap="round" stroke-linejoin="round" stroke-width="25"/><path d="m1766.32 2148.68a45.32 45.32 0 0 1 -14.83 2.9c-36.62 0-98.11-61.5-98.11-61.5 13.82 33.86 22.11 43.53 22.11 57.35s-17.28 29-42.83 29.71c-62.24 1.77-131-88.72-218.36-88.72-22.77 0-67.26 31.17-67.26 68.84 0 25.42 8 98.5 8 116 0 7-4 11.68-11.46 14.81" fill="none" stroke="#1b3c87" stroke-linecap="round" stroke-linejoin="round" stroke-width="25"/><path d="m1637.14 1663.91a318.46 318.46 0 0 1 41.86-2.91c67.71 0 122.29 45.6 122.29 96.73s-38 152-63.57 176.19c33.86-15.2 43.53-20.73 67-20.73 49.52 0 58.73 52.51 58.73 91.89 0 69.13-58.15 129.87-97.1 143.58" fill="none" stroke="#1b3c87" stroke-linecap="round" stroke-linejoin="round" stroke-width="25"/><path d="m1214.29 1864.09c44.55-93.44 96.58-143 120.72-143 46.61 0 31.5 49.13 29.61 64.88 17-17.43 83.8-62.38 164.45-93.33" fill="none" stroke="#1b3c87" stroke-linecap="round" stroke-linejoin="round" stroke-width="25"/><path d="m1138.49 2198.11c3.23-94.18 18.85-175.57 40.22-243.13" fill="none" stroke="#1b3c87" stroke-linecap="round" stroke-linejoin="round" stroke-width="25"/><path d="m1280.43 2473.85a111.32 111.32 0 1 1 80.75-161.79" fill="#fff"/><path d="m1267.61 2463.17a111.32 111.32 0 1 1 80.75-161.79" fill="none" stroke="#1b3c87" stroke-linecap="round" stroke-linejoin="round" stroke-width="25"/><path d="m5716.5 3629.83c-81.5 41.85-238 66.27-436 73.19 5.5 116.25 32.1 482.79 46.25 683.94-30.82 44.95-75.84 103.66-111.69 149.45h337.22c52.81-85 125.77-206.9 136.59-235.95 16.63-44.65 21.32-476.86 27.63-670.63z" fill="#fff"/><path d="m5700.08 3592.52c-1.5 53.19-16.48 657-29.21 694.46s-116 208.64-149 253" fill="none" stroke="#1b3c87" stroke-linecap="round" stroke-linejoin="round" stroke-width="25"/><path d="m5357.89 2921.42c273.7-59.76 461.59 605.44 421.54 661.37s-533.34 137.08-577.38 97-73.37-708.32 155.84-758.37z" fill="#46dbc9"/><path d="m5426.29 3652.29c-118.9 17.53-228.76 23.9-248.49 5.94-25.83-23.52-46.61-263.26-13.08-467.51" fill="none" stroke="#1b3c87" stroke-linecap="round" stroke-linejoin="round" stroke-width="25"/><path d="m5378.54 2896.4c249 15.89 414.46 612 376.65 664.83-11 15.39-56.35 32.69-117.19 48.85" fill="none" stroke="#1b3c87" stroke-linecap="round" stroke-linejoin="round" stroke-width="25"/><path d="m5416.11 2322.78c70.3-69.66 108.34-221.09 108.34-303.89 0-170.23-100.13-240.1-118.86-240.1s-38.41 39.39-35.41 66.94c-16.91-23.46-165.29-168.6-432.75-168.6-74.09 0-127.3 35.89-127.3 94.91 0 26.84 12.43 68.73 34 83.13-21.93 1.63-53 17.31-53 60.87 0 49.76 66.77 73.3 93.27 73.3s65.78-27.49 84.76-53.34c5.9 28.47-11.92 74.86 50.08 75.27 26.18.17 136.46-55.64 157.08-74.29-20.94 36-49.74 52.53-49.74 93.27 0 38.11 18.65 64.8 47.45 64.8s111.92-39.27 127.31-57c3.27 25.86-25.56 206.29-16.88 255.48 28.94 2.17 64.46-34.68 64.92-4.47" fill="#e49d75"/><path d="m5097.28 1950.73c27.13-13.93 51.27-28.14 59.85-35.9-20.94 36-49.74 52.52-49.74 93.27 0 38.11 18.65 64.79 47.45 64.79s111.92-39.27 127.3-56.94c3.28 25.85-25.55 206.28-16.87 255.47 28.94 2.18 64.46-34.67 64.92-4.46" fill="none" stroke="#1b3c87" stroke-linecap="round" stroke-linejoin="round" stroke-width="25"/><path d="m4997.33 1659.34a710.26 710.26 0 0 0 -79.1-4.36c-74.09 0-127.31 35.89-127.31 94.91 0 26.83 12.44 68.72 34 83.12-21.93 1.64-53 17.32-53 60.87 0 49.77 66.76 73.31 93.27 73.31s65.78-27.49 84.76-53.35c5.4 26.06-9.07 67.14 36 74.22" fill="none" stroke="#1b3c87" stroke-linecap="round" stroke-linejoin="round" stroke-width="25"/><path d="m5495.66 2083.06c6.34-32.13 9.59-62.15 9.59-86.33 0-170.22-100.13-240.1-118.86-240.1s-38.39 39.37-35.39 66.94c-11.36-15.75-82.07-86.44-208.36-131.13" fill="none" stroke="#1b3c87" stroke-linecap="round" stroke-linejoin="round" stroke-width="25"/><path d="m5396.91 2300.63c24.27-24.06 44.7-57.86 61.05-95.22" fill="none" stroke="#1b3c87" stroke-linecap="round" stroke-linejoin="round" stroke-width="25"/><path d="m5312.19 2272.21a72.78 72.78 0 1 1 -43.81 91.72" fill="none" stroke="#1b3c87" stroke-linecap="round" stroke-linejoin="round" stroke-width="25"/><path d="m77.5 4539.73h6030.9" fill="none" stroke="#1b3c87" stroke-linecap="round" stroke-linejoin="round" stroke-width="25"/></svg>