<svg viewBox="0 0 654.27 816.52" xmlns="http://www.w3.org/2000/svg"><path d="m562.72 172.88c52.5 33.7 76.37 111.93 82.64 187.45s-4.91 148.34-32 227.58-69.94 165.09-137.36 194.4c-67.57 29.46-159.68 2.37-228.94-42.34-69.06-44.7-115.46-107.18-158.81-174.92s-83.82-140.88-87.88-223.18c-4.23-82.29 27.94-173.87 91.78-205.57 64-31.66 159.68-3.22 248.24 5.42s169.84-2.54 222.33 31.16z" fill="#f0f0f0"/><path d="m400 816.52c28.14-70.85 83-107.18 86-194.17.1-6.44-106-74.87-155.5-73.72s-114.29 267.89-114.29 267.89z" fill="#fff"/><path d="m183.97 51.61h317.49v565.74h-317.49z" fill="#eaefff"/><path d="m215.62 299.31h254.21v98.43h-254.21z" fill="#fff"/><path d="m319.12 327.68h116.19" fill="none" stroke="#b0c3fa" stroke-linecap="round" stroke-linejoin="round" stroke-width="4.78"/><path d="m319.12 358.14h47.2" fill="none" stroke="#b0c3fa" stroke-linecap="round" stroke-linejoin="round" stroke-width="4.78"/><circle cx="266.25" cy="348.52" fill="#ecc953" r="26.85"/><path d="m439.2 733.55c21.13-32.78 40.07-66.08 41.8-116.2" fill="none" stroke="#1b3c87" stroke-linecap="round" stroke-linejoin="round" stroke-width="4.78"/><path d="m395 811.52a287.5 287.5 0 0 1 21.47-42.41" fill="none" stroke="#1b3c87" stroke-linecap="round" stroke-linejoin="round" stroke-width="4.78"/><path d="m215.62 154.8h254.21v98.43h-254.21z" fill="#fff"/><path d="m183.97 51.61h317.49v58.26h-317.49z" fill="#d6dfff"/><path d="m183.97 559.08h317.49v58.26h-317.49z" fill="#d6dfff"/><path d="m319.12 80.74h47.2" fill="none" stroke="#1b3c87" stroke-linecap="round" stroke-linejoin="round" stroke-width="4.78"/><circle cx="342.72" cy="588.21" fill="#b0c3fa" r="13.99"/><path d="m137.47 816.52c15-57 18-275 0-325 26-19 133-100 149-113 15 10 8 93-41 129v25c26 0 65 87 43 179-12.71 40.3 26.65 105 26.65 105z" fill="#fff"/><g fill="none" stroke-linecap="round" stroke-linejoin="round" stroke-width="4.78"><path d="m265.21 548.51c19.08 31.29 33.7 93.42 18.26 158" stroke="#1b3c87"/><path d="m266.25 385.42c7.14-5.51 12.5-9.69 15.22-11.9 15 10 8 93-41 129v18.19" stroke="#1b3c87"/><path d="m147.5 475.38c22.55-16.82 59.33-44.6 89-67.16" stroke="#1b3c87"/><path d="m132.47 811.52c11.82-44.91 16.18-189.74 8.7-273.63" stroke="#1b3c87"/><path d="m413.3 183.17h22.01" stroke="#b0c3fa"/><path d="m319.12 183.17h72.17" stroke="#b0c3fa"/><path d="m319.12 213.63h47.2" stroke="#b0c3fa"/></g><circle cx="266.25" cy="204.01" fill="#fb5d64" r="26.85"/><path d="m534.72 471.19c73.83 49.34-45.7 143-77.62 168.87-8.26-5.92-13.99-86.27 77.62-168.87z" fill="#fff"/><path d="m478.17 613.46c-10.59 9.17-19.95 16.63-26.07 21.6-11.49-6.23-7.53-51.65 25-102.27" fill="none" stroke="#1b3c87" stroke-linecap="round" stroke-linejoin="round" stroke-width="4.78"/><path d="m529.72 466.19c40.41 27 22.89 67.28-6.48 102.46" fill="none" stroke="#1b3c87" stroke-linecap="round" stroke-linejoin="round" stroke-width="4.78"/><circle cx="566.64" cy="109.81" fill="none" r="13.24" stroke="#b0c3fa" stroke-linecap="round" stroke-linejoin="round" stroke-width="4.78"/><path d="m524.55 33.41c0-.41 0-.83 0-1.25a29.77 29.77 0 1 1 13.12 24.68" fill="none" stroke="#b0c3fa" stroke-linecap="round" stroke-linejoin="round" stroke-width="4.78"/><path d="m624.81 73.38a21 21 0 1 1 23-7.72" fill="none" stroke="#b0c3fa" stroke-linecap="round" stroke-linejoin="round" stroke-width="4.78"/><path d="m508.47 426.52c-78 47-87 149-77 155 28-11 132-126 132-179 0-12-34.78-34.7-42.77-37.95-4.48-1.75.29-9.12-15.66 5.63.1 14.65-1.04 42 3.43 56.32z" fill="#fff"/><path d="m515.7 359.57c8 3.25 42.77 25.95 42.77 37.95 0 13-6.29 29.82-16.19 47.88" fill="none" stroke="#1b3c87" stroke-linecap="round" stroke-linejoin="round" stroke-width="4.78"/><path d="m503.18 502.5c-29.55 36.87-62.68 68.51-76.71 74-10-6-1-108 77-155" fill="none" stroke="#1b3c87" stroke-linecap="round" stroke-linejoin="round" stroke-width="4.78"/><path d="m506.47 299.52c16-12 72-66 78-74 13-4 36 59-78 151" fill="#fff"/><path d="m546.82 329.14a392 392 0 0 1 -45.35 42.38" fill="none" stroke="#1b3c87" stroke-linecap="round" stroke-linejoin="round" stroke-width="4.78"/><path d="m501.47 294.52c16-12 72-66 78-74 9.2-2.83 23.42 27.93-9.53 78.79" fill="none" stroke="#1b3c87" stroke-linecap="round" stroke-linejoin="round" stroke-width="4.78"/></svg>