<svg viewBox="0 0 5216.14 4728.99" xmlns="http://www.w3.org/2000/svg"><path d="m2391.68 458.06h1946.32a11.9 11.9 0 0 1 11.9 11.91v2111.45a11.9 11.9 0 0 1 -11.9 11.9h-1946.32a11.9 11.9 0 0 1 -11.89-11.9v-2111.42a11.9 11.9 0 0 1 11.89-11.94z" fill="#eaf0ff" fill-rule="evenodd"/><path d="m3867.43 1399.1-533.58-1394.1 1474.15 235z" fill="none" stroke="#b2c3fb" stroke-linecap="round" stroke-linejoin="round" stroke-width="10"/><path d="m3151.92 2335.27h2052.32a11.9 11.9 0 0 1 11.9 11.9v52.26a11.9 11.9 0 0 1 -11.9 11.91h-2052.32a11.91 11.91 0 0 1 -11.91-11.91v-52.26a11.91 11.91 0 0 1 11.91-11.9z" fill="#8088dc" fill-rule="evenodd"/><path d="m3277.81 2390.11h-161.26a11.9 11.9 0 0 1 -11.91-11.9v-52.27a11.9 11.9 0 0 1 11.91-11.9h1680.13" fill="none" stroke="#1b3c87" stroke-linecap="round" stroke-linejoin="round" stroke-width="20"/><path d="m4981.85 2314h187a11.92 11.92 0 0 1 11.91 11.9v52.27a11.92 11.92 0 0 1 -11.91 11.9h-1691" fill="none" stroke="#1b3c87" stroke-linecap="round" stroke-linejoin="round" stroke-width="20"/><path d="m3328 3222.45v1393.36" fill="none" stroke="#1b3c87" stroke-linecap="round" stroke-linejoin="round" stroke-width="20"/><path d="m3328 2396.43v543" fill="none" stroke="#1b3c87" stroke-linecap="round" stroke-linejoin="round" stroke-width="20"/><path d="m3029 3999.09 251.62 289.2 461.89-462.64-416.39 88.44-95.22-101.51" fill="#fff" fill-rule="evenodd"/><path d="m1756.89 4143-29.89 252-57.1 146.14 593 187.81-281.33-309.77 68.37-200.18" fill="#fff" fill-rule="evenodd"/><path d="m1434.46 1954.16c25.36-10.63 216.19-79 241-84.48s36.33-67 85.53-70.67" fill="none" stroke="#1b3c87" stroke-linecap="round" stroke-linejoin="round" stroke-width="20"/><path d="m1694.71 1725.83h248.63l-45.62 342.52h-163.41z" fill="#d7e0ff" fill-rule="evenodd"/><path d="m1661.22 1678.36h315.61c7.38 0 13.37 4.36 13.37 9.72v27.28c0 5.37-6 9.72-13.37 9.72h-315.61c-7.38 0-13.37-4.35-13.37-9.72v-27.28c0-5.36 5.99-9.72 13.37-9.72z" fill="#b2c3fb" fill-rule="evenodd"/><path d="m1696.69 1640.32h244.67c7.38 0 13.37 4.35 13.37 9.72v18.43c0 5.37-6 9.72-13.37 9.72h-244.67c-7.37 0-13.36-4.35-13.36-9.72v-18.47c0-5.33 5.99-9.68 13.36-9.68z" fill="#d7e0ff" fill-rule="evenodd"/><path d="m1719.8 1381.79c-20 35.29 4.86 75.16 23.27 107.7s17.84 80.65-3.8 106.32" fill="none" stroke="#1b3c87" stroke-linecap="round" stroke-linejoin="round" stroke-width="20"/><path d="m1799.19 1381.79c-20 35.29 4.88 75.16 23.27 107.7s17.87 80.65-3.79 106.32" fill="none" stroke="#1b3c87" stroke-linecap="round" stroke-linejoin="round" stroke-width="20"/><path d="m1878.61 1381.79c-20 35.29 4.86 75.16 23.26 107.7s17.85 80.65-3.79 106.32" fill="none" stroke="#1b3c87" stroke-linecap="round" stroke-linejoin="round" stroke-width="20"/><path d="m254.1 3118h1302a11.9 11.9 0 0 1 11.9 11.91v1395.25a11.9 11.9 0 0 1 -11.9 11.91h-1302a11.91 11.91 0 0 1 -11.91-11.91v-1395.25a11.91 11.91 0 0 1 11.91-11.91z" fill="#d7e0ff" fill-rule="evenodd"/><path d="m3445.94 4052.81 260-260.42-416.38 88.44-95.2-101.51" fill="none" stroke="#1b3c87" stroke-linecap="round" stroke-linejoin="round" stroke-width="20"/><path d="m2992.43 3965.83 251.63 289.17 124.73-124.94" fill="none" stroke="#1b3c87" stroke-linecap="round" stroke-linejoin="round" stroke-width="20"/><path d="m2310 3531.69c78.27 49.79 649 453.36 682.89 480.51 43.2-36.72 166.91-151.07 203.85-190.77-33.91-45.8-697.31-796.71-735.89-818.28s-229.13 478.74-150.85 528.54z" fill="#3c3744" fill-rule="evenodd"/><path d="m2914.72 3964.81 272.41-251.41" fill="none" stroke="#1b3c87" stroke-linecap="round" stroke-linejoin="round" stroke-width="20"/><path d="m2945.92 4003.41 278.08-253.25" fill="none" stroke="#1b3c87" stroke-linecap="round" stroke-linejoin="round" stroke-width="20"/><path d="m2267 3449.66c78.28 49.79 649 453.36 682.88 480.52 43.2-36.73 166.91-151.07 203.87-190.78-33.92-45.79-697.32-796.7-735.91-818.28s-229.08 478.75-150.84 528.54z" fill="none" stroke="#1b3c87" stroke-linecap="round" stroke-linejoin="round" stroke-width="20"/><path d="m1694 4081.68 354.79 100.54" fill="none" stroke="#1b3c87" stroke-linecap="round" stroke-linejoin="round" stroke-width="20"/><path d="m1707.6 4024.67 363.56 96.65" fill="none" stroke="#1b3c87" stroke-linecap="round" stroke-linejoin="round" stroke-width="20"/><path d="m2039.6 4465.49-81.3-89.49 68.36-200.24" fill="none" stroke="#1b3c87" stroke-linecap="round" stroke-linejoin="round" stroke-width="20"/><path d="m1733.61 4099.71-29.9 252.1-57.11 146.13 593 187.81-129.6-142.75" fill="none" stroke="#1b3c87" stroke-linecap="round" stroke-linejoin="round" stroke-width="20"/><path d="m632.73 2697c-119.13 667.63 1071.68 656.41 1231.27 648.81-3.8 89.31-87.84 660.4-85.71 739.89 70.11 15.26 250.57 64.74 296.46 79 35-65.71 449.69-966.51 409.46-1218.69-15.2-95.29-1039.66-373.73-1123.39-371.49s-721.88 87.76-728.09 122.48z" fill="#3c3744" fill-rule="evenodd"/><path d="m1754.76 3855.29c-10.43 86.51-17.6 155-17 179 70.1 15.27 250.56 64.75 296.45 79 35-65.71 449.69-966.51 409.46-1218.69-7.47-46.83-258.74-137.91-522.3-218.16" fill="none" stroke="#1b3c87" stroke-linecap="round" stroke-linejoin="round" stroke-width="20"/><path d="m1723.75 2618.75c-199.69-55.83-371.21-96.53-403.43-95.67-83.72 2.25-721.88 87.76-728.09 122.5-119.13 667.61 1071.67 656.42 1231.27 648.79-1.74 40.86-20.27 182.57-39.66 331.91" fill="none" stroke="#1b3c87" stroke-linecap="round" stroke-linejoin="round" stroke-width="20"/><path d="m1463.42 700.11c3.75-90.39-117.69-216.11-289.63-216.11-348.5 0-416.06 357.65-683.17 843.9-74.16 135-452.3 424-452.3 775.83s278.76 438.17 541.82 438.17 837.08-534 837.08-684.74-99.22-358.41-99.22-570.28 29.23-331.41 29.23-387.21 114.42-35.83 116.19-199.56z" fill="#fb5d64" fill-rule="evenodd"/><path d="m393.9 1401.08c-133.17 153.92-383.9 398.76-383.9 685.27 0 351.84 278.76 438.17 541.82 438.17s837.08-534 837.08-684.74-99.25-358.39-99.25-570.25 29.23-331.42 29.23-387.21 114.46-35.84 116.22-199.57c3.75-90.39-117.67-216.13-289.63-216.13-271.3 0-372.34 216.74-529.8 542.18" fill="none" stroke="#1b3c87" stroke-linecap="round" stroke-linejoin="round" stroke-width="20"/><path d="m1322.81 1394c122.41-28.31 217.24 310.65 201 374.34-44.58 16.27-98.37 18.4-108.27 2.83s-166.12-360.17-92.73-377.17z" fill="#46dbc9" fill-rule="evenodd"/><path d="m1290.25 1364.73c122.43-28.3 217.24 310.66 201 374.34-44.58 16.28-98.37 18.4-108.26 2.84s-166.13-360.21-92.74-377.18z" fill="none" stroke="#1b3c87" stroke-linecap="round" stroke-linejoin="round" stroke-width="20"/><path d="m1112.47 1283.5c535.62 0 359.51 1185.68 270 1282.53s-721.97 212.78-777.74 159.97-1.46-1444 507.74-1442.5z" fill="#46dbc9" fill-rule="evenodd"/><path d="m1050.14 2649.77c-204.28 47.64-437.43 75.12-470.3 44-19.25-18.24-25.39-196.1-4.2-421.08" fill="none" stroke="#1b3c87" stroke-linecap="round" stroke-linejoin="round" stroke-width="20"/><path d="m1452.93 1786.32c26 328.2-47.2 695.39-95.35 747.49-19.31 20.89-63.87 42.67-122.48 63.45" fill="none" stroke="#1b3c87" stroke-linecap="round" stroke-linejoin="round" stroke-width="20"/><path d="m592 2131.61c55.56-405.55 197.77-881.19 495.63-880.33 206.41 0 307.14 176.12 347.84 398.14" fill="none" stroke="#1b3c87" stroke-linecap="round" stroke-linejoin="round" stroke-width="20"/><path d="m784.07 1953.85c16.78 46.92 184.17 496.05 262.5 528 156.49 63.73 676.8-415.61 733.16-439.19 63.16-25.47 55.11-.43 109.59-.43s103.61-63.35 103.61-108.12-53.93-112.63-101-112.63-144.14 92-180.52 107.74-455.24 222.62-476.64 228.33c-12.13-54.23-65.65-227.62-95.62-296.83s-371.86 46.22-355.08 93.13z" fill="#fff" fill-rule="evenodd"/><path d="m1637.71 1929.68c-115 55.34-417.09 204-435.19 208.78-12.13-54.23-65.64-227.62-95.6-296.83s-371.86 46.27-355.07 93.18 184.17 496.05 262.5 528c33 13.44 82.14 2.73 139.73-22.75" fill="none" stroke="#1b3c87" stroke-linecap="round" stroke-linejoin="round" stroke-width="20"/><path d="m1314.73 2348.52c191.65-126.84 398.42-310.58 432.77-325 63.16-25.47 52.5-11.51 87 .43 54.47 0 126.16-64.21 126.16-109s-53.92-112.63-101-112.63c-27.69 0-72.64 31.82-112.39 61.24" fill="none" stroke="#1b3c87" stroke-linecap="round" stroke-linejoin="round" stroke-width="20"/><path d="m806 1387c180.87-77.35 389 416.31 354.89 493.65s-361.7 159.25-411.76 120.57-111.53-542.22 56.87-614.22z" fill="#46dbc9" fill-rule="evenodd"/><path d="m1080.35 1914.66c-107.15 55.89-309.45 97.34-347.89 67.64-13-10-26.71-51.25-37-108.1" fill="none" stroke="#1b3c87" stroke-linecap="round" stroke-linejoin="round" stroke-width="20"/><path d="m682.72 1597.79c9.89-106.89 40.59-201.48 106.61-229.72 142.84-61.09 302.69 234 346.78 398.86" fill="none" stroke="#1b3c87" stroke-linecap="round" stroke-linejoin="round" stroke-width="20"/><path d="m1056.09 1045.3c6.5 48.75 4.54 239.19-11.71 303.54 24.06 25.35 138.46 54 204.75 29.25-3.9-42.25 1.31-148.85 10.41-185.9s-209.95-195.64-203.45-146.89z" fill="#fff" fill-rule="evenodd"/><path d="m1229.25 1352c-3.9-42.25 1.31-148.84 10.4-185.89s-209.93-195.64-203.43-146.9 4.54 239.2-11.71 303.54c12.75 13.44 50.89 27.79 93.8 34.63" fill="none" stroke="#1b3c87" stroke-linecap="round" stroke-linejoin="round" stroke-width="20"/><path d="m1005.8 931.51c-19.88-167.68 60.66-314.34 179.91-327.58s232 112 251.89 279.66-60.66 314.34-179.9 327.57-232.02-111.97-251.9-279.65z" fill="#fff" fill-rule="evenodd"/><path d="m1414.31 950.81c-13.14 125.81-84.29 223.81-180.73 234.51-119.24 13.24-232-112-251.9-279.65s60.67-314.34 179.91-327.58c115.52-12.82 225 104.33 249.77 264.15" fill="none" stroke="#1b3c87" stroke-linecap="round" stroke-linejoin="round" stroke-width="20"/><path d="m1420.36 786.74c-23.12 0-83.51-20.76-99.54-72.19-17.47 48.6-155.23 209.49-241.1 237.79 7.08 32.56 13.22 149.57-73.13 210.9s-151.46-335.45-110.4-405.75 215.62-207.13 266.56-206.66 266.11 1.42 257.61 235.91z" fill="#fb5d64" fill-rule="evenodd"/><path d="m1186.72 840.4c-42 41.11-87.87 77.08-124.36 89.11 5.4 24.87 10.26 99-26.23 160" fill="none" stroke="#1b3c87" stroke-linecap="round" stroke-linejoin="round" stroke-width="20"/><path d="m1403 763.9c-23.12 0-83.51-20.76-99.55-72.18-5.73 15.93-24.38 43.94-49.9 75.39" fill="none" stroke="#1b3c87" stroke-linecap="round" stroke-linejoin="round" stroke-width="20"/><path d="m1006.42 969.53a54.4 54.4 0 1 1 54.4 54.39 54.39 54.39 0 0 1 -54.4-54.39z" fill="#fff" fill-rule="evenodd"/><path d="m1045.6 1008.2a54.4 54.4 0 1 1 24.16-103.15" fill="none" stroke="#1b3c87" stroke-linecap="round" stroke-linejoin="round" stroke-width="20"/><path d="m1313.35 942.55c0 26.7 16.55 64 31.47 80.24" fill="none" stroke="#1b3c87" stroke-linecap="round" stroke-linejoin="round" stroke-width="20"/><path d="m1226.93 896.9c0-15 6.79-27.24 15.16-27.24s15.14 12.2 15.14 27.24-6.77 27.23-15.14 27.23-15.16-12.19-15.16-27.23z" fill="#1b3c87" fill-rule="evenodd"/><g fill="none" stroke="#1b3c87" stroke-linecap="round" stroke-linejoin="round" stroke-width="20"><path d="m1205.29 1044.13c9.56 23.87 28.11 36.07 51.46 37.67"/><path d="m4940.39 4244.45v371.36"/><path d="m4940.39 2396.43v1549.64"/><path d="m3439.66 2086.59v-191.59"/><path d="m3644.68 1891v353.07a69.6 69.6 0 0 1 -69.59 69.6h-65.84a69.6 69.6 0 0 1 -69.59-69.6v-67.52"/><path d="m3439.93 1892.45c0-60.16 61.09-106.87 61.09-167"/><path d="m3644.29 1891.27c0-60.16-60.15-105.69-60.15-165.85"/><path d="m3483.66 1668.51h117a15.47 15.47 0 0 1 15.48 15.46v11.35a15.48 15.48 0 0 1 -15.48 15.47h-117a15.48 15.48 0 0 1 -15.48-15.47v-11.32a15.47 15.47 0 0 1 15.48-15.49z"/><path d="m4025.47 1943.9c75.92.72 154 1.95 177.4 1.95l31.1 225.33c0 78.1-50.93 141.41-113.75 141.41h-137.16c-62.84 0-113.77-63.31-113.77-141.41l26.2-227.56c13.54-.19 30.07-.25 48.4-.23"/><path d="m4207.62 1976.51a98.85 98.85 0 0 1 31.48 192.55"/><path d="m3892.72 1943.37h-89.39c30.14 67.71 69.91 156.21 69.91 156.21"/><path d="m4799.79 2062.3v245.76h-216.23v-418.82h216.23v69.76"/><path d="m4519.74 1768.2h216.26l63.8 121.8h-216.24z"/><path d="m4518.41 1708.34h214.19v57.77h-214.19z"/><path d="m4519.22 1768.2-63.81 121.8h126.25"/><path d="m4455.64 1889.24h126.5v418.82h-126.5z"/><path d="m3439.42 1921.54c11.57-24.54 38-33.34 66.22-33.34s56 33.8 79.18 33.8 60.15-12 60.15-31.39"/></g></svg>