<svg viewBox="0 0 764.64 994.24" xmlns="http://www.w3.org/2000/svg"><path d="m113.52 648.59c-.85 8.29-16.94 127.88-20.27 156.86s-24.94 104.55-31.11 115.03c6.45 4 25.57 14.68 25.57 14.68s58.28-89.8 60.66-98.35 12.51-49.89 12.51-49.89l-13.94-146.33z" fill="#3b3744"/><path d="m510.68 180.67c59.06 50.44 104.61 116 102.6 178.75s-51.44 123.14-94.12 178.17-78.74 104.46-132.33 137.94-124.58 50.47-182.48 29.88-102.74-78.59-131.19-140.09-40.95-126.59-18.53-173.57 79.74-76 127.59-128.31 86.35-128.31 141.78-148.44 127.77 15.24 186.68 65.67z" fill="#f0f0f0"/><path d="m106.18 497c-3.92-5.52-12.81-29.3-12.81-34s27-98.8 28.7-106.8 1.65-30.63 0-38.08c.72-2.78 2.63-3.68 3.13-2 1.31 1.06 8.76 5.53 8.76 5.53s17.42 24 13.53 29.42a88.08 88.08 0 0 0 -8.33 13.68c-.94 6.05-14.69 84-14 89s14.54 30.21 14.9 32c-2.99 1.59-32.12 13.1-33.88 11.25z" fill="#fff"/><path d="m104.75 400.9c6.41-23.07 12.56-45 13.32-48.7 1.65-8 1.65-30.63 0-38.08.72-2.78 2.63-3.68 3.13-2" fill="none" stroke="#1b3c87" stroke-linecap="round" stroke-linejoin="round" stroke-width="2"/><path d="m102.18 493c-3.92-5.52-12.81-29.3-12.81-34 0-1.77 3.88-16.38 8.79-34.28" fill="none" stroke="#1b3c87" stroke-linecap="round" stroke-linejoin="round" stroke-width="2"/><path d="m121.32 54.1h489.79v437.01h-489.79z" fill="#eaf0ff" transform="matrix(.96849629 -.24902797 .24902797 .96849629 -56.34 99.77)"/><path d="m127.02 99.16h127.8v437.01h-127.8z" fill="#d8dfff" transform="matrix(.96849629 -.24902797 .24902797 .96849629 -73.08 57.54)"/><circle cx="152.28" cy="167.37" fill="#eaf0ff" r="39.59"/><path d="m121.24 226.88h96.05v9.23h-96.05z" fill="#eaf0ff" transform="matrix(.96849629 -.24902797 .24902797 .96849629 -52.31 49.44)"/><path d="m126.78 248.41h96.05v9.23h-96.05z" fill="#eaf0ff" transform="matrix(.96849629 -.24902797 .24902797 .96849629 -57.5 51.49)"/><circle cx="328.21" cy="264.86" fill="#b2c3fb" r="11"/><path d="m351.13 230.94h182.06v9.23h-182.06z" fill="#d8dfff" transform="matrix(.96849629 -.24902797 .24902797 .96849629 -44.73 117.52)"/><path d="m290.8 77.92h219.82v144.43h-219.82z" fill="#fff" transform="matrix(.96849629 -.24902797 .24902797 .96849629 -24.76 104.5)"/><circle cx="379.08" cy="462.73" fill="#b2c3fb" r="11"/><path d="m402 428.82h182.06v9.23h-182.06z" fill="#d8dfff" transform="matrix(.96849629 -.24902797 .24902797 .96849629 -92.39 136.41)"/><path d="m341.67 275.79h219.82v144.43h-219.82z" fill="#fff" transform="matrix(.96849629 -.24902797 .24902797 .96849629 -72.43 123.4)"/><path d="m57.25 928.22-9.85 17.35-12.33 9.5 33.7 39.17h27.65l-18.01-27.8 3.04-24.45" fill="#fff"/><path d="m183.85 955.86 4.84 17.54-3.41 20.84h74.4l-43.68-25.79 1.06-12.59" fill="#fff"/><g fill="none" stroke-linecap="round" stroke-linejoin="round" stroke-width="2"><path d="m92.17 769c-1.74 13.58-3.16 24.86-3.92 31.45-3.32 29-24.94 104.58-31.11 115 6.45 4 25.57 14.68 25.57 14.68s58.28-89.8 60.66-98.35 12.51-49.89 12.51-49.89l-13.94-146.3-33.42 8c-.42 4.15-4.66 36.12-9.2 70.67" stroke="#1b3c87"/><path d="m171.36 943.77h49.31" stroke="#1b3c87"/><path d="m171.36 951.86h49.31" stroke="#1b3c87"/><path d="m246.6 990.24h9.08l-43.68-25.79 1.06-12.59" stroke="#1b3c87"/><path d="m179.85 951.86 4.84 17.54-3.41 20.84h43.63" stroke="#1b3c87"/><path d="m50.81 912.12 34.83 19.81" stroke="#1b3c87"/><path d="m47.35 920.86 34.84 19.82" stroke="#1b3c87"/><path d="m76.79 966.12-2.38-3.68 3.04-24.45" stroke="#1b3c87"/><path d="m46.62 935.89-3.22 5.68-12.33 9.5 33.7 39.17h27.65l-7.14-11.02" stroke="#1b3c87"/></g><path d="m128.26 655.84c0 5 4.16 64.44 18.4 111.5 9.41 44.94 36.7 181.43 36.7 181.43h34.7l-12.49-304.9z" fill="#3b3744"/><path d="m160.88 856.69c9.08 45.08 17.48 87.08 17.48 87.08h34.7l-12.49-304.9-77.31 12c0 5 4.16 64.44 18.4 111.5 2.14 10.21 5.2 25.14 8.65 42.13" fill="none" stroke="#1b3c87" stroke-linecap="round" stroke-linejoin="round" stroke-width="2"/><path d="m247.09 521.38c8 4.24 33.46 15.75 36.53 15.75s47-14.5 49.32-18.93 4.72-16.23 8.74-17.41 1.75 9.2 1.75 9.2c2.38-.78 39.95-10.57 39.78-10.37 1 5.38-19.33 20.63-21.45 21.18-10.45 11.72-75.52 48.2-78.35 48.2s-46.79-12-49.56-13c.55-4.09 9.44-31.73 13.24-34.62z" fill="#fff"/><path d="m138.7 355.79c2.51-3.36 5.29-7 5.16-12.19" fill="none" stroke="#1b3c87" stroke-linecap="round" stroke-linejoin="round" stroke-width="2"/><path d="m135.38 480c-2-6.08-13.87-25.84-14.18-31-.3-5 11.52-74.88 13.66-85.65" fill="none" stroke="#1b3c87" stroke-linecap="round" stroke-linejoin="round" stroke-width="2"/><path d="m140.76 552.06c-13.83 6-45-43.72-38.22-51.63 9.48-10.9 36.18-19.29 45.33-15.76 4.62 6.33 16.41 57.24-7.11 67.39z" fill="#46dbc9"/><path d="m136.76 548.06c-13.83 6-45-43.72-38.22-51.63 9.48-10.9 36.18-19.29 45.33-15.76 4.62 6.33 16.41 57.24-7.11 67.39z" fill="none" stroke="#1b3c87" stroke-linecap="round" stroke-linejoin="round" stroke-width="2"/><path d="m266.25 562.61c6.07 1.41 11 2.38 12.66 2.38 5.19 0 66.08-35.16 78.35-47.9 11.81-6.85 19.24-14.5 21.95-20.39" fill="none" stroke="#1b3c87" stroke-linecap="round" stroke-linejoin="round" stroke-width="2"/><path d="m231.37 553.16c2.16.82 7.17 2.3 13.19 3.94" fill="none" stroke="#1b3c87" stroke-linecap="round" stroke-linejoin="round" stroke-width="2"/><path d="m306.7 524.55c10.89-4 21.14-8.27 22.24-10.35 2.36-4.43 4.72-16.23 8.74-17.41s1.75 9.2 1.75 9.2" fill="none" stroke="#1b3c87" stroke-linecap="round" stroke-linejoin="round" stroke-width="2"/><path d="m243.09 517.38c8 4.24 33.46 15.75 36.53 15.75a35.6 35.6 0 0 0 5.5-1.37" fill="none" stroke="#1b3c87" stroke-linecap="round" stroke-linejoin="round" stroke-width="2"/><path d="m169 492.57c46.09 0 49.63 91.47 36.87 162.37-12.41 5-82.6 7.09-94.3-4.26-4.25-15.59-19.38-158.1 57.43-158.11z" fill="#46dbc9"/><path d="m107.5 552.07c6.52-33.78 22.43-63.5 57.5-63.5 31.56 0 43.17 42.9 43.26 92.71" fill="none" stroke="#1b3c87" stroke-linecap="round" stroke-linejoin="round" stroke-width="2"/><path d="m110.3 648.59a12.13 12.13 0 0 1 -2.73-1.91c-1.48-5.41-4.26-26.09-4.06-50.8" fill="none" stroke="#1b3c87" stroke-linecap="round" stroke-linejoin="round" stroke-width="2"/><path d="m206.85 613.35c-1.09 12.76-2.8 25.47-5 37.59-7 2.78-32.07 4.67-54.86 3.8" fill="none" stroke="#1b3c87" stroke-linecap="round" stroke-linejoin="round" stroke-width="2"/><path d="m176.74 512.41c4.31-15.58 67.77-8.49 69.9 2.5 2.84 15.24-8.15 43.25-17.37 48.56-8.51-.35-59.87-24.54-52.53-51.06z" fill="#46dbc9"/><path d="m239 506.86c2.09 1.25 3.4 2.62 3.68 4.05 2.84 15.24-8.15 43.25-17.37 48.56-2.72-.11-19.49-7.55-27.63-11.82" fill="none" stroke="#1b3c87" stroke-linecap="round" stroke-linejoin="round" stroke-width="2"/><path d="m172.07 514.91a19.6 19.6 0 0 1 .67-6.5c2.72-9.82 28.9-10.64 48.44-7.15" fill="none" stroke="#1b3c87" stroke-linecap="round" stroke-linejoin="round" stroke-width="2"/><path d="m172.4 502.9c0 4.07-25.8 4.59-25.8 0v-36.6h25.8z" fill="#fff"/><path d="m168.4 487.13v11.77" fill="none" stroke="#1b3c87" stroke-linecap="round" stroke-linejoin="round" stroke-width="2"/><path d="m157.79 502.08c-7.11.36-15.19-.61-15.19-3.18v-36.6h25.8v16.43" fill="none" stroke="#1b3c87" stroke-linecap="round" stroke-linejoin="round" stroke-width="2"/><ellipse cx="165.48" cy="439.59" fill="#fff" rx="26.38" ry="34.69"/><path d="m179.64 461.94c-4.61 5.2-10.61 8.34-17.16 8.34-14.57 0-26.39-15.53-26.39-34.69s11.82-34.69 26.39-34.69 26.38 15.53 26.38 34.69a42.92 42.92 0 0 1 -3.86 18.14" fill="none" stroke="#1b3c87" stroke-linecap="round" stroke-linejoin="round" stroke-width="2"/><path d="m134.53 443.37c0-27.63 9.17-54.08 18.41-54.08s4.15 13.11 4.15 13.11c3.84-7.68 15.71-19.55 20.9-19.55s6.45 8 1.13 16.16a26.31 26.31 0 0 1 18.2-8.7c6 0 6.78 7.12 6.78 14.13 0 12.39-26 31.41-28.93 34.69-.23 4.07-3.62 37.18-11.87 37.18s-28.77-2.03-28.77-32.94z" fill="#ecc953"/><path d="m168.22 462.9c-1.76 5.4-4.05 9.41-6.92 9.41-4.64 0-13.16-.64-19.73-6.7" fill="none" stroke="#1b3c87" stroke-linecap="round" stroke-linejoin="round" stroke-width="2"/><path d="m200 407.34c-4.81 9-16.8 19.07-23.11 24.44" fill="none" stroke="#1b3c87" stroke-linecap="round" stroke-linejoin="round" stroke-width="2"/><path d="m188.48 387.58a22.07 22.07 0 0 1 6.84-1.27c5 0 6.37 4.95 6.69 10.65" fill="none" stroke="#1b3c87" stroke-linecap="round" stroke-linejoin="round" stroke-width="2"/><path d="m132.57 436c.7-26.38 9.51-50.73 18.37-50.73 9.23 0 4.15 13.11 4.15 13.11 3.84-7.68 15.71-19.55 20.9-19.55s6.45 8 1.13 16.16" fill="none" stroke="#1b3c87" stroke-linecap="round" stroke-linejoin="round" stroke-width="2"/><circle cx="176.37" cy="443.41" fill="#fff" r="8.39"/><path d="m166 442.3a8.7 8.7 0 0 1 0-.89 8.38 8.38 0 0 1 12.37-7.41" fill="none" stroke="#1b3c87" stroke-linecap="round" stroke-linejoin="round" stroke-width="2"/><path d="m176.75 449.46a8.21 8.21 0 0 1 -2.38.35 8.35 8.35 0 0 1 -5.79-2.32" fill="none" stroke="#1b3c87" stroke-linecap="round" stroke-linejoin="round" stroke-width="2"/><path d="m658.41 108.74h-55.24l27.62 47.83z" fill="none" stroke="#b6c6fc" stroke-linecap="round" stroke-linejoin="round" stroke-width="2"/><path d="m11.68 170.04h23.52v46.38h-23.52z" fill="none" stroke="#b6c6fc" stroke-linecap="round" stroke-linejoin="round" stroke-width="2" transform="matrix(.84066114 .5415615 -.5415615 .84066114 108.38 18.09)"/><path d="m337.81 619.68h135.65v254.84h-135.65z" fill="#eaf0ff" transform="matrix(.93981195 .34169211 -.34169211 .93981195 279.65 -93.63)"/><circle cx="379.08" cy="608.9" fill="none" r="23.16" stroke="#b6c6fc" stroke-linecap="round" stroke-linejoin="round" stroke-width="2"/><path d="m691.83 491.06-4.21 86.5 77.02-39.61z" fill="#eaf0ff"/></svg>