<svg viewBox="0 0 989.58 863.28" xmlns="http://www.w3.org/2000/svg"><path d="m864.5 396.21c8.9 115.13 42.83 221.53 6.53 290.09s-143.1 99.31-267.18 132.82c-124.36 33.54-266 69.55-373.77 19.25-107.79-50.59-181.37-187.54-157-298.48 24.48-111.11 147.11-195.81 236.76-289.43 89.49-93.74 146.21-196 237-233.67 91-37.57 216.22-10.45 270.77 65 54.26 75.52 38.13 199.38 46.86 314.39" fill="#f2f2f2"/><path d="m803.43 731.72h55.15v73.41h-55.15z" fill="#d7e0ff"/><path d="m71.68 125.41h689.01v521.42h-689.01z" fill="#d7e0ff"/><path d="m105.3 146.74a9.82 9.82 0 1 1 -9.81-9.81 9.81 9.81 0 0 1 9.81 9.81" fill="#fb5d64"/><path d="m143 146.74a9.82 9.82 0 1 1 -9.82-9.81 9.82 9.82 0 0 1 9.82 9.81" fill="#fb5d64"/><path d="m180.73 146.74a9.81 9.81 0 1 1 -9.81-9.81 9.81 9.81 0 0 1 9.81 9.81" fill="#fb5d64"/><path d="m811.24 758.92h13.86v13.86h-13.86z" fill="#fb5d64"/><path d="m818.17 758.92v-27.2" fill="#d7e0ff" stroke="#1b3c87" stroke-miterlimit="10" stroke-width="2.33"/><circle cx="857.76" cy="769.02" fill="none" r="18.94" stroke="#d7e0ff" stroke-miterlimit="10" stroke-width="6.99"/><path d="m436.12 161.32h333.51v333.51h-333.51z" fill="none" stroke="#b2c3fb" stroke-linecap="round" stroke-linejoin="round" stroke-width="3.49" transform="matrix(.5 -.8660254 .8660254 .5 17.32 686.15)"/><path d="m177.14 662c0-1.82-3.91-9.81-13.86-9.81-5.79 0-14.73 5.47-14.73 6.24 7 1.54 13.48 10.62 17.8 10.62 4.5 0 10.79-2.54 10.79-7.05" fill="#8088dc"/><path d="m897.64 788.92h91.94v25.88h-91.94z" fill="#8088dc"/><path d="m834.56 185.34a69.19 69.19 0 1 0 -133.27 0z" fill="#8088dc"/><path d="m476.12 553.45c0 9-7.84 40.92-43 40.92-31.93 0-113.07-137.45-115.6-142.73-8.45-.84-23.12-11.73-27.31-26.57-.64-2.27 9-15.28 19.53-12.16 2.47.74-8.14-12.48-9.59-14.76-3.31-5.19-1.34-12.27.29-12.27s22.69 28.64 24.26 28.76 13.92 5.79 14.56 7-.08 18.39 2.32 21.62 84.62 90.84 84.62 90.84c.75-8.4 9.16-31.47 10.51-33.87s39.37 26.82 39.37 53.26" fill="#fff"/><path d="m303.48 417.6c-1.75-2.4-2.9-9.73 2.76-9.75 19.18-.05 29.15 5.94 29.15 8.9s0 18 1.58 20.73c.5.87 8.64 9.84 19.66 21.83 5 5.69 13.23 14.35 13.23 14.35 22.42 24.27 48.46 52.25 50.81 54.82.79-5.13 6.51-23.69 9.23-29.37" fill="none" stroke="#1b3c87" stroke-linecap="round" stroke-linejoin="round" stroke-width="4.3"/><path d="m376.11 543.26c-29.88-39.26-60.11-90.53-64.11-96.86" fill="none" stroke="#1b3c87" stroke-linecap="round" stroke-linejoin="round" stroke-width="4.3"/><path d="m464.75 566.22c-1.95 5.15-11 22.58-38.42 22.58-5.12 0-11.59-3.77-18.84-10.09" fill="none" stroke="#1b3c87" stroke-linecap="round" stroke-linejoin="round" stroke-width="4.3"/><path d="m495.59 360.85c-2-11.47-10.71-35.25-10.71-56 0-31.21 19.25-48.86 55.49-48.86 25.55 0 35.67 16.73 39.55 25 3.24 6.91 1.31 14.49 4.94 21.67 14.42 28.59 26.25 25.66 47.23 61.12 5.07 8.57 8.06 38.62 6.39 48.07-9 .38-21 4.5-21 4.5a24.58 24.58 0 0 0 -6.82 17.18c-4.19-3.45-26.15-21.21-51.48-21.21-6.82 0-39.3 5.93-47.77 12.33-1.48-2.05-8.39-5.76-11.1-5.76-4.77.58-8.73 1-12.47 2.29-4.23-14.48 8.13-33.9 8.13-56.49a22.61 22.61 0 0 0 -.42-3.85" fill="#eecb55"/><path d="m501.71 419.9c-52.57 0-70.39 71.52-70.39 78.74s40.38 32.36 46.02 32.36 39.48-83.32 39.48-88.73-4.74-22.34-15.11-22.34" fill="#46dbc9"/><path d="m464.75 424.31c-28.54 19.94-39 63.22-39 68.75 0 7.22 40.38 32.34 46 32.34s39.48-83.32 39.48-88.74-4.73-22.33-15.11-22.33" fill="none" stroke="#1b3c87" stroke-linecap="round" stroke-linejoin="round" stroke-width="4.3"/><path d="m553.55 413.62c128.05-8.43 110.09 265 100.25 275.77s-120.72 43.19-134 36.24-130.2-301.22 33.74-312" fill="#46dbc9"/><path d="m572.09 356.24s-2.09 12.76-2.25 16.76c-.5 6.69 2.33 47.29 3.35 54.23-4 4.45-32.91 8.54-36.15 6 .05-5.58-2.79-34.39-3.88-38.39-21.66-2.8-38.64-28.84-38.64-60.55a84.74 84.74 0 0 1 2.09-18.88c6.52-2.1 16-12.35 17.44-16.1l-1.5-3.69c6.13 19.79 43.23 38 56.86 39.58l-1.48 2.34c1.93-3.87 5.37-6.44 9.31-6.44 6 0 10.94 6.08 10.94 13.6s-4.9 13.6-10.94 13.6a9.9 9.9 0 0 1 -7.57-3.78" fill="#fff"/><g fill="none" stroke="#1b3c87" stroke-linecap="round" stroke-linejoin="round"><path d="m506.41 377.53c-10.37-11.09-17.09-28.8-17.09-48.75a84.81 84.81 0 0 1 2.09-18.88" stroke-width="4.3"/><path d="m555.66 379.15c-6.8 6.59-15 10.44-23.83 10.44a30.61 30.61 0 0 1 -11.1-2.1" stroke-width="4.3"/><path d="m562.72 332c1.93-3.87 5.38-6.45 9.31-6.45 6.05 0 10.94 6.09 10.94 13.6s-4.89 13.6-10.94 13.6a9.92 9.92 0 0 1 -7.57-3.78" stroke-width="4.3"/><path d="m531.83 316c12.06 7.61 25.34 12.85 32.37 13.66" stroke-width="4.3"/><path d="m507.34 290.12c1.6 5.14 5.28 10.18 10.11 14.84" stroke-width="4.3"/><path d="m508.85 293.81c-1.42 3.74-10.92 14-17.44 16.09" stroke-width="4.3"/><path d="m586.48 309.2c11.52 16.5 22.62 19.49 40 48.92 5.07 8.57 8.13 38.21 6.46 47.65" stroke-width="4.3"/><path d="m533.19 250.33h1.6c25.55 0 35.68 16.74 39.56 25 1.82 3.87 2 8 2.46 12.07" stroke-width="4.3"/><path d="m482.31 415.52c-4.24-14.48 8.12-33.9 8.12-56.49 0-9-11.12-36.37-11.12-59.85 0-21.25 8.92-36.21 26.06-43.6" stroke-width="4.3"/><path d="m565.52 391c-.66-10.62-1.11-20.54-.88-23.56" stroke-width="4.3"/><path d="m551.31 427c7.56-1.29 14.82-3.28 16.68-5.35-.37-2.49-1-9.29-1.56-17.3" stroke-width="4.3"/><path d="m528 389.34c1.09 4 3.94 32.8 3.88 38.38" stroke-width="4.3"/><path d="m485.75 436.57c10.62-12.63 25.23-21.83 44.82-26.12" stroke-width="4.3"/><path d="m462.83 549.88c-2.81-29.8-1.66-58.9 6.41-82.93" stroke-width="4.3"/><path d="m654.53 639.16c-1.19 24.81-4 42.11-6.31 44.65-9.84 10.75-120.72 43.19-134 36.24-5.56-2.91-29.3-56.22-43-118" stroke-width="4.3"/><path d="m636.79 483.41c12.74 37 17.45 81.53 18.22 119.26" stroke-width="4.3"/><path d="m566.78 408.94a70.82 70.82 0 0 1 36.94 18.68" stroke-width="4.3"/></g><path d="m524.25 326.37c0 3.33-1.29 6-2.88 6s-2.89-2.7-2.89-6 1.29-6 2.89-6 2.88 2.7 2.88 6" fill="#1b3c87"/><path d="m508.85 332.4c-.36 2.71-2.45 13.81-7 18.26" fill="none" stroke="#1b3c87" stroke-linecap="round" stroke-linejoin="round" stroke-width="4.3"/><path d="m517.22 365.23c1.87.33 9.45-2.15 11.21-7.26" fill="none" stroke="#1b3c87" stroke-linecap="round" stroke-linejoin="round" stroke-width="4.3"/><path d="m692.29 519s29.83 85.78 29.83 95.38-89.29 74.24-89.29 74.24l-45.61 3.81 79.16-81.29-29.71-74z" fill="#fff"/><path d="m631.09 531.53c1.71 4.31 29.72 74 29.72 74l-77.87 80.47" fill="none" stroke="#1b3c87" stroke-linecap="round" stroke-linejoin="round" stroke-width="4.3"/><path d="m710.06 586c3.78 12.38 6.48 21.64 6.48 22.78 0 3.8-14.35 15.64-14.35 15.64" fill="none" stroke="#1b3c87" stroke-linecap="round" stroke-linejoin="round" stroke-width="4.3"/><path d="m686.72 511.71s4.71 14.74 10.39 32.74" fill="none" stroke="#1b3c87" stroke-linecap="round" stroke-linejoin="round" stroke-width="4.3"/><path d="m610.56 419.47c52.66-14.89 95.43 76.9 90.59 89.54s-65.94 33.07-76.27 27.8-48.6-107.65-14.32-117.34" fill="#46dbc9"/><path d="m631.09 531.53c-5.44.79-9.67.78-11.78-.29-3.19-1.63-9-12.53-14.62-27.11" fill="none" stroke="#1b3c87" stroke-linecap="round" stroke-linejoin="round" stroke-width="4.3"/><path d="m694 490.75c1.81 5.95 2.4 10.5 1.56 12.68-2.55 6.65-20.68 15.46-38.79 21.55" fill="none" stroke="#1b3c87" stroke-linecap="round" stroke-linejoin="round" stroke-width="4.3"/><path d="m591.72 453.76c-2.23-19.64.44-36.24 13.26-39.87 29.09-8.22 55.17 16.11 71.86 41.67" fill="none" stroke="#1b3c87" stroke-linecap="round" stroke-linejoin="round" stroke-width="4.3"/><path d="m456.82 659.05c52.88 0 247.11 97.76 247.11 103.86s1.06 43.82-5.68 43.82c-206 0-298.31-39.6-298.31-106.81 0-26.75 27.59-40.87 56.88-40.87" fill="#3c3744"/><path d="m714.73 764.5c-4.12 0-6.49 38-4 42.23 7.12 2.77 35.16 6.95 39.35 6.95s28.62-4.18 28.62-28c0-15.91-24.65-21.14-64-21.14" fill="#fff"/><path d="m515 669.86c76.76 28.11 183.41 82.95 183.41 87.48 0 6.11 1 43.82-5.69 43.82-206 0-298.31-39.61-298.31-106.81 0-26.75 27.6-40.87 56.88-40.87a79 79 0 0 1 14.1 1.56" fill="none" stroke="#1b3c87" stroke-linecap="round" stroke-linejoin="round" stroke-width="4.3"/><path d="m709.15 758.92c-1.44 0-2.67 4.68-3.55 10.92" fill="none" stroke="#1b3c87" stroke-linecap="round" stroke-linejoin="round" stroke-width="4.3"/><path d="m705.6 769.84c-1.63 11.58-2.06 28.57-.43 31.31 7.12 2.76 35.16 7 39.35 7s28.63-4.19 28.63-28c0-12.51-15.24-18.42-40.88-20.37" fill="none" stroke="#1b3c87" stroke-linecap="round" stroke-linejoin="round" stroke-width="4.3"/><path d="m300.31 384.72a36.9 36.9 0 0 1 -3.84-5.47c-1.47-3.59-9.58 3.8-1.93 15.09" fill="none" stroke="#1b3c87" stroke-linecap="round" stroke-linejoin="round" stroke-width="4.3"/><path d="m322 409.42c-1.85-1.51-8.37-8.72-14.37-15.76" fill="none" stroke="#1b3c87" stroke-linecap="round" stroke-linejoin="round" stroke-width="4.3"/><path d="m295.25 407.34c-8.32 3.18 3.86 18.73 10 24.3" fill="none" stroke="#1b3c87" stroke-linecap="round" stroke-linejoin="round" stroke-width="4.3"/><path d="m286.65 415.54c-5 6.55 9.16 20.08 13.26 22.1" fill="none" stroke="#1b3c87" stroke-linecap="round" stroke-linejoin="round" stroke-width="4.3"/><path d="m734.69 621.13c28 0 44 28 44 44.66 0 95-273.45 140.94-280 140.94s-14.11-36.23-14.11-39 191.34-146.6 250.11-146.6" fill="#3c3744"/><path d="m531.53 722.45c31.65-22.51 73.07-50.39 111.06-72" fill="none" stroke="#1b3c87" stroke-linecap="round" stroke-linejoin="round" stroke-width="4.3"/><path d="m652.27 760.45c-74.14 27.31-155.58 40.71-159.1 40.71-6.54 0-14.12-36.23-14.12-39 0-.59 8.92-7.77 23.5-18.65" fill="none" stroke="#1b3c87" stroke-linecap="round" stroke-linejoin="round" stroke-width="4.3"/><path d="m673.82 633.76c22.61-11.09 42.23-18.2 55.3-18.2 28 0 44 28 44 44.66 0 23.17-16.26 43.42-40.95 60.8" fill="none" stroke="#1b3c87" stroke-linecap="round" stroke-linejoin="round" stroke-width="4.3"/><path d="m473.42 769.73c-5.65 0-64.88 10-64.88 28.46 0 21.14 12.77 29.72 19.89 29.72s50.85-9.62 54.83-16.32-9.84-41.86-9.84-41.86" fill="#fff"/><path d="m457.68 815c9.88-2.89 18.35-6.17 20-8.94 4-6.7-9.83-41.86-9.83-41.86-5.65 0-64.88 10.05-64.88 28.46 0 21.14 12.77 29.72 19.88 29.72a53.08 53.08 0 0 0 7.39-.94" fill="none" stroke="#1b3c87" stroke-linecap="round" stroke-linejoin="round" stroke-width="4.3"/><path d="m826.75 177.54a69.19 69.19 0 1 0 -133.27 0z" fill="none" stroke="#1b3c87" stroke-linecap="round" stroke-linejoin="round" stroke-width="4.3"/><path d="m890.95 782.23h91.94v25.88h-91.94z" fill="none" stroke="#1b3c87" stroke-linecap="round" stroke-linejoin="round" stroke-width="4.44"/><path d="m936.91 782.23v-728.8h-176.8v36.31" fill="none" stroke="#1b3c87" stroke-linecap="round" stroke-linejoin="round" stroke-width="4.44"/><path d="m92.57 795.17h188.4v27.17h-188.4z" fill="#d7e0ff"/><path d="m121.33 773.25h188.4v22.56h-188.4z" fill="#8088dc"/><path d="m99.7 750.69h188.4v22.56h-188.4z" fill="#d7e0ff"/><path d="m206.17 638.58c-4.57-.37-10.87-18.12-5.12-27 12.09-18.67 43.44-24.74 55.05-51.17-.09 9.09 9.15 83-49.93 78.15" fill="#8088dc"/><path d="m186.77 703.55c0-32.44 24.33-84.14 39.78-94.85" fill="none" stroke="#1b3c87" stroke-linecap="round" stroke-linejoin="round" stroke-width="2.33"/><path d="m212.69 625.24c-1.08-2.3-2.81-9.73-2.16-13.93" fill="none" stroke="#1b3c87" stroke-linecap="round" stroke-linejoin="round" stroke-width="2.33"/><path d="m220.83 614c1.92.51 10.59-.08 15.48-1.54" fill="none" stroke="#1b3c87" stroke-linecap="round" stroke-linejoin="round" stroke-width="2.33"/><path d="m190 679.62c-.14-3.09-4.91-19.63-23.14-17.49" fill="none" stroke="#1b3c87" stroke-linecap="round" stroke-linejoin="round" stroke-width="2.33"/><path d="m172.15 662c-.65-1.43-3.28-4.34-4.65-4.77" fill="none" stroke="#1b3c87" stroke-linecap="round" stroke-linejoin="round" stroke-width="2.33"/><path d="m209.29 750.69 9.71-47.14h-61.6l9.69 47.14z" fill="#fb5d64"/><path d="m1.75 275.72 114.32 288.71 182.8-202.82z" fill="none" stroke="#b2c3fb" stroke-linecap="round" stroke-linejoin="round" stroke-width="3.49"/><path d="m183.07 256v85.54h38.21l18.72 32.2 18.72-32.21h38.21v-85.53z" fill="#f4f7ff"/><path d="m223.1 297.54a5.95 5.95 0 1 1 -5.95-5.94 5.94 5.94 0 0 1 5.95 5.94" fill="#fb5d64"/><path d="m245.94 297.54a5.95 5.95 0 1 1 -5.94-5.94 5.94 5.94 0 0 1 5.95 5.94" fill="#fb5d64"/><path d="m268.78 297.54a5.94 5.94 0 1 1 -5.94-5.94 5.94 5.94 0 0 1 5.94 5.94" fill="#fb5d64"/></svg>