<svg viewBox="0 0 802.6 931.32" xmlns="http://www.w3.org/2000/svg"><path d="m560.7 215c39.44 82.92 62.37 135.57 113.18 214.26 50.63 78.52 129.12 183.26 115.2 260.67-13.76 77.23-119.79 127.31-226.91 160.33-107.31 33-215.54 49.16-297.36 11.19-81.63-38-136.84-130.06-155.55-216.82s-1.1-168.22 13.21-250.58 25.13-165.46 72.45-246.91c47.15-81.63 130.98-161.61 200.68-144.91 69.71 16.51 125.66 129.87 165.1 212.77z" fill="#f0f0f0"/><path d="m206.1 147.43h172.5v172.5h-172.5z" fill="#fff"/><path d="m315.6 299.93-93 152h302z" fill="none" stroke="#fb5d64" stroke-linecap="round" stroke-linejoin="round" stroke-width="4"/><path d="m455.6 581.93c-9-1-58 3-119 74l-.78.14c-6.17-6.61-18.15-14.42-37.72-23.64 6.64-9 11.5-29.73 17-41 20-41 45.26-124.16 49.5-148.5 13.5-77.5-25.92-88.65-41-55-5.61 12.51-29.37 57.13-53.89 106.92-21.9-7.16-36.73.69-42.11 6.08-2 2-10.71 14.78-22 32-11-6-21-9-36 0-14.61 8.76-57.28 47.23-82 124-12 37.36 2 78.34-12.26 139.17l.18-.35-.17.68c0-.21 0-.33 0-.33-8.26 35.23-29.25 87.33-63.75 128.83a39.2 39.2 0 0 0 14.06 1.26c33.06 4.91 137.27 15.91 219.44-24.76a12.23 12.23 0 0 0 0-3.37l.54-.13c25-14 85-141 127-167 26-20 49-85 92-132 5.23-5.76-3.08-16.34-9.04-17z" fill="#fff"/><g fill="none" stroke="#1b3c87" stroke-linecap="round" stroke-linejoin="round" stroke-width="3.19"><path d="m391.9 589.12c-18.7 11-41 28.58-65.3 56.81"/><path d="m297.53 787.91c22.75-29.23 47.24-55.94 65.07-67 26-20 49-85 92-132 5.27-5.76-3-16.34-9-17-3-.33-10.31-.11-21 2.88"/><path d="m235.6 887.93c2.15-10 13.69-31 29.55-55"/><path d="m279.8 458.28c16-38.47 29.25-70.22 33.8-80.35 15.08-33.65 50-24 41 55"/><path d="m198.6 646.93c8.9-16.81 33.94-75.7 58.56-134.43"/><path d="m266.6 664.93c4-7 30-58 39-83"/><path d="m157.56 581.93c25.19-39.82 56-87 60-91 6-6 23.7-15.07 49.85-3"/><path d="m128.6 628.93c2.82-4.86 6.79-11.43 11.51-19.09"/><path d="m72.32 724.38c.37-29.77-2.18-54.3 5.28-77.45 24.72-76.77 67.39-115.24 82-124 15-9 24.93-6 36 0"/><path d="m1.6 914.93c31.5-43.13 49.07-79.43 58.81-110.73"/></g><circle cx="524.6" cy="336.93" fill="#b2c3fb" r="72"/><path d="m615.6 70.93-98 93 186 106z" fill="#d8dfff"/><path d="m583.6 381.93h134v356h-134z" fill="#eaf0ff" transform="matrix(.8660254 .5 -.5 .8660254 367.13 -250.28)"/><circle cx="688.1" cy="746.43" fill="#d8dfff" opacity=".71" r="114.5"/></svg>