<svg viewBox="0 0 1001.79 1003.94" xmlns="http://www.w3.org/2000/svg"><path d="m804.85 117.73c93.76 75 158.93 187.75 152.53 292.48-6.4 104.51-84.61 201-143.84 312.38s-99.93 238.06-177.92 270.53c-78.2 32.48-193.92-29.27-305.06-79.81-111.14-50.76-217.7-90.55-276.47-169.22-58.78-78.44-70.21-196-31.56-285.4s127.15-150.93 209.24-228c82.33-77.06 158.23-169.45 257.5-197.12s221.59 9.15 315.58 84.16z" fill="#f0f0f0"/><path d="m143.47 3c-93.61 73.26-58.77 369.94 133.16 407.37 224.77 43.83 239.96-185.65 410.37-165.07 148.19 17.91 192.67 178.15 100.91 278.63" style="fill:none;stroke-linecap:round;stroke-linejoin:round;stroke:#fff;stroke-width:6;stroke-dasharray:36"/><path d="m348.29 510.08c-11-4.21-65.92-48.52-70.2-55.51s-32.7-51.42-32.7-51.42l47.84-36.48s43.1 38.74 51.49 46.54 40.81 20.25 44.33 20.24-40.76 76.63-40.76 76.63z" fill="#fff"/><path d="m335.68 497.47c-6.56-3.78-59.38-47.7-64.59-52.9s-26-38.3-29.34-46.21" fill="none" stroke="#1b3c87" stroke-linecap="round" stroke-linejoin="round" stroke-width="5.43"/><path d="m697 805.31c-11.26 5-213.17 51.31-248.2 51.73 8.07 45.18 38.05 133.57 40.15 142.54 17.93-4.35 236.32-86.5 244.41-91.89-6.71-12.93-32.65-76.1-36.36-102.38z" fill="#3b3744"/><rect fill="#d7e0ff" height="161.43" rx="80.72" transform="matrix(.87964857 -.47562421 .47562421 .87964857 -91.66 179.69)" width="594.33" x="12.08" y="190.26"/><path d="m283.29 315-41.07-13.18 13.19-41.08" fill="none" stroke="#fff" stroke-linecap="round" stroke-linejoin="round" stroke-width="5.3"/><path d="m351.68 211.26 41.07 13.19-13.18 41.07" fill="none" stroke="#fff" stroke-linecap="round" stroke-linejoin="round" stroke-width="5.3"/><path d="m293.71 207.5 29.54 122.16" fill="none" stroke="#fff" stroke-linecap="round" stroke-linejoin="round" stroke-width="5.3"/><path d="m257 211.84c-7.67-16.69-55.57.92-76 17.91 5.68 18.67 11.45 35.1 14.74 38.83 4.03.42 63.78-29.82 61.26-56.74z" fill="#fff"/><path d="m474.36 465.46c-28.52-23-67.81-38.4-79.17-43.09-8.26 3.57-18.88 22.43-28.24 43.83-16.74 31.43-22 69.63-22 69.63 25.92 16.11 79.69 26.4 89.17 26.4s40.24-96.77 40.24-96.77z" fill="#46dbc9"/><path d="m527.07 441.32c100.28-24.05 146.11 263.17 167.89 363-21.33 15.88-210.54 63.52-248.2 51.68-69.42-182.82-93.51-373 80.31-414.68z" fill="#46dbc9"/><path d="m519.07 431.32c100.28-24.05 146.11 263.17 167.89 363-21.33 15.88-210.54 63.52-248.2 51.68-69.42-182.82-93.51-373 80.31-414.68z" fill="none" stroke="#1b3c87" stroke-linecap="round" stroke-linejoin="round" stroke-width="5.3"/><path d="m581.06 620.66c-5.26 7.61-53.27 61.76-60.88 65.56s-37.8 3.31-43.61 0c-33.95-19.32-143.42-189.38-151.33-205.48s-19.31-38.92-29.56-47.41c-1.65-12.49 7.3-28.84-8.59-48.62 2.92-13.94-5.19-75.54 41-50.74 12.16 6.65 28.88 32.72 26.57 54.19s-5.1 45.86-.48 55.88 130.1 143.59 133.34 145.21c4-5.23 19.93-26.12 19.93-26.12z" fill="#fff"/><path d="m628.13 477.68c48.52 38.46-10.49 127.62-32.34 152.09-10 .44-96.86-50.7-101.31-71.68 12.59-18.79 79.58-123.28 133.65-80.41z" fill="#46dbc9"/><g fill="none" stroke-linecap="round" stroke-linejoin="round"><path d="m360 534.7a151 151 0 0 1 -22-10.87c-.59-2.39.32-7.74 3.25-17.8" stroke="#1b3c87" stroke-width="5.43"/><path d="m360.86 452.13c9.36-21.4 19.07-38.19 27.33-41.76 11.36 4.69 48.84 18.69 77.36 41.65" stroke="#1b3c87" stroke-width="5.3"/><path d="m426.42 523.12c-34.09-34.64-72.8-75.77-79.23-91.08-4.29-9-1.26-68.1 6.88-80.77" stroke="#1b3c87" stroke-width="5.43"/><path d="m494.56 559.36c-5.24 5.52-9.89 12.64-14 17.89-1.18-1.36-7.93-8-17.84-17.82" stroke="#1b3c87" stroke-width="5.43"/><path d="m522.36 666.35c-4.25 4.15-7.56 7.06-9.18 7.87-7.61 3.81-37.8 3.31-43.61 0-33.95-19.32-143.42-189.38-151.33-205.48s-19.31-38.92-29.56-47.41" stroke="#1b3c87" stroke-width="5.43"/><path d="m571 612.57c-1.67 2.41-7.31 9.08-14.48 17.2" stroke="#1b3c87" stroke-width="5.43"/><path d="m334.72 379.09c-1-17-11.08-53.17-18.71-61" stroke="#1b3c87" stroke-width="5.43"/><path d="m317.49 379.09c-2.71-11.07-13.54-45.78-24.62-63" stroke="#1b3c87" stroke-width="5.43"/><path d="m302.72 387.46c-.49-5.9-9.85-30.77-16.49-37.66" stroke="#1b3c87" stroke-width="5.43"/><path d="m291.39 399.52c-1.23-6.15-8.86-22.64-14.76-28.3" stroke="#1b3c87" stroke-width="5.43"/><path d="m723.32 896.69c-5-10.83-31.59-79.64-36.36-102.38" stroke="#1b3c87" stroke-width="5.3"/><path d="m586.26 945.27c-8-6.5-39.29-47-52.59-65.28" stroke="#1b3c87" stroke-width="5.3"/><path d="m478.91 988.58c-4.64-10.21-36.05-117.39-40.15-142.54" stroke="#1b3c87" stroke-width="5.3"/><path d="m375.85 423.45c-8.18-3.62-24.82-11.9-30.61-13.08" stroke="#1b3c87" stroke-width="5.43"/></g><path d="m171.2 437.36 64.83 53.09-8.93-83.32" fill="#d7e0ff"/><path d="m244.5 198.1c-3.94-4.17-38.79-19.07-11.83 41" fill="none" stroke="#1b3c87" stroke-linecap="round" stroke-linejoin="round" stroke-width="5.43"/><path d="m219.4 206.58c-4-4.17-38.79-19.07-11.84 41" fill="none" stroke="#1b3c87" stroke-linecap="round" stroke-linejoin="round" stroke-width="5.43"/><path d="m190.1 220.58c-3.82-3.51-33.47-13-1.42 42" fill="none" stroke="#1b3c87" stroke-linecap="round" stroke-linejoin="round" stroke-width="5.43"/><path d="m916.67 660.88 76.4-31.07-218.6-77.17 72.45 220.2 32.71-75.71" fill="#d7e0ff"/><path d="m916.67 660.88 85.12 86.97-37.04 36.25-85.12-86.97" fill="#d7e0ff"/><path d="m530.09 588c-21.29-14.4-40.57-30.31-42.61-39.92" fill="none" stroke="#1b3c87" stroke-linecap="round" stroke-linejoin="round" stroke-width="5.3"/><path d="m635.55 536.33c-9.82 34.59-34.31 69.5-46.76 83.44-4.07.18-20.75-8.12-39.45-19.44" fill="none" stroke="#1b3c87" stroke-linecap="round" stroke-linejoin="round" stroke-width="5.3"/><path d="m513.17 512.48c27.51-34.1 70.79-74.28 108-44.8a49.93 49.93 0 0 1 4.24 3.75" fill="none" stroke="#1b3c87" stroke-linecap="round" stroke-linejoin="round" stroke-width="5.3"/><path d="m800.93 12.38-95.79 96.35 229.04 53z" fill="none" stroke="#b6c6fc" stroke-linecap="round" stroke-linejoin="round" stroke-width="3.95"/><path d="m148.01 764.95h151v171.64h-151z" fill="none" stroke="#b6c6fc" stroke-linecap="round" stroke-linejoin="round" stroke-width="3.95" transform="matrix(.09931975 -.99505557 .99505557 .09931975 -645.25 988.65)"/><circle cx="117.48" cy="918.95" fill="none" r="83" stroke="#b6c6fc" stroke-linecap="round" stroke-linejoin="round" stroke-width="3.95"/><path d="m581.17 175.66c-4.32-15.62-22.58-18.94-31.79 14-4-11.54-12.35-27.94-21.06-27.94-5.44 0-13 5.62-18.83 15.86" fill="none" stroke="#1b3c87" stroke-linecap="round" stroke-linejoin="round" stroke-width="5.43"/><path d="m575.58 372.07c-4.23 14.17-18.18 61.11-18.61 93.67-6.76 4-52.23 5.71-64.49-3.38 3.38-14.38 9.09-55.19 7.61-69.36 6.35-1.26 75.49-20.93 75.49-20.93z" fill="#fff"/><path d="m493.43 416.91c1.47-12.84 2.35-25.28 1.66-31.91 6.35-1.26 75.49-20.93 75.49-20.93-4.23 14.17-18.18 61.11-18.61 93.67-4.14 2.46-22.8 4.05-39.46 2.83" fill="none" stroke="#1b3c87" stroke-linecap="round" stroke-linejoin="round" stroke-width="5.3"/><ellipse cx="531.52" cy="321.69" fill="#fff" rx="82.51" ry="64.55" transform="matrix(.2101305 -.97767335 .97767335 .2101305 105.29 773.71)"/><path d="m529 395.53a51.81 51.81 0 0 1 -20.86-.17c-17.7-3.8-31.7-16.56-39.93-34" fill="none" stroke="#1b3c87" stroke-linecap="round" stroke-linejoin="round" stroke-width="5.43"/><path d="m461.07 337.15a101.58 101.58 0 0 1 1.34-36c9.59-44.58 45.59-74.62 80.45-67.15s55.34 49.69 45.76 94.24a103.22 103.22 0 0 1 -9.76 26.86" fill="none" stroke="#1b3c87" stroke-linecap="round" stroke-linejoin="round" stroke-width="5.43"/><path d="m596.18 342c1.28-4.31 14.28-28.88 13-68-.83-25.74-21.17-76.29-21.12-83 .17-21.31-22.18-31-32.71 6.63-4-11.54-12.35-27.94-21.06-27.94s-22.88 14.38-26.53 39.08c-1.21-7.9-8.3-17-12.35-17s-13.77.61-13.36 34.22c-3.24-4.05-10.33-6.48-14-6.48-7.52 0-18.07 36.11 11.9 59.45 1.68-3.18 6.39-9.9 6.67-9.9 5.51 1.49 58.79 14.78 91.13 19.23-.81 4.85-11.92 55.59.41 70.95a31 31 0 0 0 18.02-17.24z" fill="#fb5d64"/><path d="m501.4 313.42c-1.37 5.5-9.7 14.6-13.92 16.24" fill="none" stroke="#1b3c87" stroke-linecap="round" stroke-linejoin="round" stroke-width="5.43"/><ellipse cx="536.7" cy="309.98" fill="#1b3c87" rx="6.93" ry="4.11" transform="matrix(.3452982 -.93849302 .93849302 .3452982 60.47 706.63)"/><path d="m524.81 355.12c-1.61 3.55-11.29 11.77-16.45 12.41" fill="none" stroke="#1b3c87" stroke-linecap="round" stroke-linejoin="round" stroke-width="5.43"/><path d="m571.8 280.32a311.85 311.85 0 0 0 -4.86 33.1" fill="none" stroke="#1b3c87" stroke-linecap="round" stroke-linejoin="round" stroke-width="5.43"/><path d="m501.79 200.81c-1.21-7.9-8.3-17-12.35-17s-13.77.61-13.36 34.22c-3.24-4.05-10.33-6.48-14-6.48-7.52 0-18.07 36.11 11.9 59.45 1.68-3.18 6.39-9.9 6.67-9.9 4.53 1.23 41.4 10.44 72.34 16.15" fill="none" stroke="#1b3c87" stroke-linecap="round" stroke-linejoin="round" stroke-width="5.43"/><path d="m594.52 322.78a152.45 152.45 0 0 0 8.69-56.78c-.47-14.38-7-36.51-12.71-54.4" fill="none" stroke="#1b3c87" stroke-linecap="round" stroke-linejoin="round" stroke-width="5.43"/><circle cx="581.76" cy="351.04" fill="#fff" r="16.5"/><path d="m573.86 330.5a16.5 16.5 0 1 1 -1.2 30.86" fill="none" stroke="#1b3c87" stroke-linecap="round" stroke-linejoin="round" stroke-width="5.43"/></svg>