<svg viewBox="0 0 754.97 710.39" xmlns="http://www.w3.org/2000/svg"><path d="m682.7 59.9c49.74 61.76 34.55 176.76 26.38 283.59s-8.85 205.51-58.59 272.56c-49.91 67.1-148.55 102.32-237.68 92.8-89.13-9.68-168.58-64.26-247-131.36s-155.92-146.49-153.59-223.66 84.46-151.89 162.91-213.64 153.22-110.5 248-130.53 209.87-11.51 259.57 50.24" fill="#f7f7f7"/><path d="m77.95 145.47h599.46v434.81h-599.46z" fill="#d7e0ff"/><path d="m77.95 145.47h599.46v47.68h-599.46z" fill="#eaf0ff"/><path d="m569.7 169.31a11.86 11.86 0 1 1 -11.85-11.85 11.86 11.86 0 0 1 11.85 11.85" fill="#fb5d64"/><path d="m615.26 169.31a11.86 11.86 0 1 1 -11.86-11.85 11.86 11.86 0 0 1 11.86 11.85" fill="#fb5d64"/><path d="m660.82 169.31a11.86 11.86 0 1 1 -11.82-11.85 11.86 11.86 0 0 1 11.86 11.85" fill="#fb5d64"/><path d="m602.84 250.39c-6.24 0-7.89 12.38-19 12.38h-65.51v65.85h104.77v-78.23z" fill="#f4f7ff"/><path d="m469.18 250.39c-6.24 0-7.89 12.38-19 12.38h-65.51v65.85h104.77v-78.23z" fill="#f4f7ff"/><path d="m316.52 262.77h-65.52v65.85h104.78v-78.23h-20.27c-6.23 0-7.88 12.38-19 12.38" fill="#f4f7ff"/><path d="m488.12 385.86-25.22 91.83 82.91-16.07z" fill="none" stroke="#eaf0ff" stroke-linecap="round" stroke-linejoin="round" stroke-width="3"/><circle cx="380.97" cy="584.65" fill="none" r="31.99" stroke="#eaf0ff" stroke-linecap="round" stroke-linejoin="round" stroke-width="3"/><circle cx="422.49" cy="532.85" fill="none" r="17.01" stroke="#eaf0ff" stroke-linecap="round" stroke-linejoin="round" stroke-width="3"/><path d="m232 107.15 94.18 20-119.86 90z" fill="none" stroke="#b2c3fb" stroke-linecap="round" stroke-linejoin="round" stroke-width="3"/><path d="m583.84 369.87h171.13v253.79h-171.13z" fill="#eaf0ff"/><path d="m722.76 448a53.36 53.36 0 1 1 -53.35-53.36 53.36 53.36 0 0 1 53.35 53.36" fill="#cbd7ff"/><path d="m602.92 525.72h132.98v29.23h-132.98z" fill="#b2c3fb"/><path d="m602.92 575.66h132.98v29.23h-132.98z" fill="#b2c3fb"/><path d="m38 556.79c-.26 5.75-4.5 46.9-9.68 62.44 17.35-2.29 111.9-21 140.34-37.44-2.26-15.38-122.35-26.6-130.66-25" fill="#3c3744"/><path d="m94.36 249a25.7 25.7 0 1 1 -25.7-25.7 25.69 25.69 0 0 1 25.7 25.7" fill="#eecb55"/><path d="m174.71 293.56c1.83-.86 4.49-6.65 4.49-15.23 0-21.33-16.2-31.33-42.11-31.33-18.09 0-39.41 6.76-53 32.14-10.15 18.86-14.28 60.5-22.75 75.48-5.36 9.47-16.73 28.65-25.46 46.69-3.28 4.58-19.77 39.52 5.41 51s142.11 6.76 145.22 1.83-14.37-40.14-20.12-47.27-14-16.2-9.3-51.27.45-55.74 4.48-57.41 8.92-1.77 13.14-4.63" fill="#eecb55"/><path d="m109.72 318.1a10.91 10.91 0 1 1 -10.91-10.91 10.92 10.92 0 0 1 10.91 10.91" fill="#fff"/><path d="m33.86 552.66c-.26 5.75-4.5 46.9-9.68 62.44" fill="none" stroke="#1b3c87" stroke-linecap="round" stroke-linejoin="round" stroke-width="3.69"/><path d="m275.58 382.64c8.45-13.38 6-28.81 2.37-24.06-1.21 1.59-17 33.58-20.15 36.83-2.45.08-4.4.4-5.22 1.07-3.2 2.6-2 20.82-3.2 22.42s-46.85 71.68-48.86 73.88c-.2.8-6-26.22-7.77-31-4.56 3.68-15.91 10.19-19.33 11.3.39 3.09 2.31 41.29 0 53.7 1.94 3.84 13.66 15.48 18.64 15.48 9.59 0 19.79-3.69 22.47-5.54 11.19-7.68 54.37-106.85 57.53-108.91 6.31-4.14 16.82-18.42 18.29-27.46 0-4 3.28-6.61-14.8-17.74" fill="#fff"/><path d="m148.11 396.32c28.17-9.2 53.8 54.76 51.8 59.92s-30.44 20.58-36.64 19.76-26.1-76.13-15.16-79.7" fill="#46dbc9"/><path d="m144 392.19c28.17-9.2 53.8 54.77 51.8 59.92s-30.44 20.58-36.64 19.78-26.16-76.13-15.16-79.7z" fill="none" stroke="#1b3c87" stroke-linecap="round" stroke-linejoin="round" stroke-width="3.69"/><path d="m114.2 380.33c79.73 1.87 59.59 179.94 55.93 186.3-4.93 8.56-107 16.33-131.34-7.55-5.63-5.52-.28-180.52 75.41-178.75" fill="#46dbc9"/><path d="m100.83 376.9a45.75 45.75 0 0 1 9.24-.69c24.5.57 39.57 17.78 48.59 41.54" fill="none" stroke="#1b3c87" stroke-linecap="round" stroke-linejoin="round" stroke-width="3.69"/><path d="m170.4 482.18c2.16 40.37-2.77 77.48-4.4 80.32-4.93 8.56-107 16.33-131.34-7.55-5.12-5-1.16-150.34 56.61-175.17" fill="none" stroke="#1b3c87" stroke-linecap="round" stroke-linejoin="round" stroke-width="3.69"/><path d="m168 273.86c.16 9.9-68.85 19.27-69.23 33.33s-.61 22.18-.61 22.18c2.47 13.11-2.88 59.46-4.39 64.3 5.79 5.39 34.83 5 38 1.74-.41-3.26-.35-25.46.48-28a28.08 28.08 0 0 0 3.68.25c22.21 0 40.22-26.21 40.22-58.55 0-16.9-.28-21.37-8.13-35.28" fill="#fff"/><path d="m73.05 385.74c30.87 9.59 12.39 84.37 6.49 87.32s-63.72-13.57-64.9-20.06 19.08-79.49 58.41-67.26" fill="#46dbc9"/><path d="m86.28 420.15c-.25 22.73-7.55 47.12-10.87 48.78-5.9 2.95-63.72-13.57-64.9-20.06-.35-1.91 1.15-9.55 4.45-19.09" fill="none" stroke="#1b3c87" stroke-linecap="round" stroke-linejoin="round" stroke-width="3.69"/><path d="m31.22 397.88c9.46-12.54 22.08-21.13 37.7-16.27a18.8 18.8 0 0 1 3.64 1.55" fill="none" stroke="#1b3c87" stroke-linecap="round" stroke-linejoin="round" stroke-width="3.69"/><path d="m218.34 455.82c12.69-19.32 26.29-40.13 26.94-41 1.2-1.6 0-19.82 3.2-22.42s23.6 0 23.6 2.32-8.33 10-10.37 10.57" fill="none" stroke="#1b3c87" stroke-linecap="round" stroke-linejoin="round" stroke-width="3.69"/><path d="m188.87 458.33c1.77 4.79 7.35 31.18 7.55 30.38.51-.57 3.86-5.54 8.59-12.66" fill="none" stroke="#1b3c87" stroke-linecap="round" stroke-linejoin="round" stroke-width="3.69"/><path d="m271.45 378.51c8.45-13.38 6-28.81 2.37-24.06-1.21 1.59-17 33.58-20.15 36.83" fill="none" stroke="#1b3c87" stroke-linecap="round" stroke-linejoin="round" stroke-width="3.69"/><path d="m274.27 382c-1.13 2.14-6.31 10.77-6.31 10.77" fill="none" stroke="#1b3c87" stroke-linecap="round" stroke-linejoin="round" stroke-width="3.69"/><path d="m279.81 385.41a104.08 104.08 0 0 1 -7.73 14.34" fill="none" stroke="#1b3c87" stroke-linecap="round" stroke-linejoin="round" stroke-width="3.69"/><path d="m284.78 389.13a134.24 134.24 0 0 1 -8.84 16.16" fill="none" stroke="#1b3c87" stroke-linecap="round" stroke-linejoin="round" stroke-width="3.69"/><path d="m271.39 420.88a24.35 24.35 0 0 1 -3.43 2.83c-3.16 2.07-46.34 101.23-57.53 108.92-2.68 1.84-12.88 5.53-22.47 5.53-5 0-15.63-10-17.56-13.81" fill="none" stroke="#1b3c87" stroke-linecap="round" stroke-linejoin="round" stroke-width="3.69"/><path d="m286.25 396.25c-.61 3.77-2.8 8.45-5.59 12.93" fill="none" stroke="#1b3c87" stroke-linecap="round" stroke-linejoin="round" stroke-width="3.69"/><path d="m163 342.05c-7.38 13.13-18.59 21.51-31.15 21.51-8 0-15.49-3.42-21.77-9.31" fill="none" stroke="#1b3c87" stroke-linecap="round" stroke-linejoin="round" stroke-width="3.69"/><path d="m163.89 269.73a77 77 0 0 1 8.11 35.27 83 83 0 0 1 -2 18.35" fill="none" stroke="#1b3c87" stroke-linecap="round" stroke-linejoin="round" stroke-width="3.69"/><path d="m100.83 322.91a10.89 10.89 0 1 1 -1.94-19" fill="none" stroke="#1b3c87" stroke-linecap="round" stroke-linejoin="round" stroke-width="3.69"/><path d="m134.07 301.67c0 2.31-1 4.19-2.28 4.19s-2.27-1.88-2.27-4.19 1-4.2 2.27-4.2 2.28 1.88 2.28 4.2" fill="#1b3c87"/><g fill="none" stroke-linecap="round" stroke-linejoin="round"><path d="m154.84 321.26a10.67 10.67 0 0 0 1.4 2.1" stroke="#1b3c87" stroke-width="3.69"/><path d="m152.61 308.36a28.74 28.74 0 0 0 .83 9.14" stroke="#1b3c87" stroke-width="3.69"/><path d="m121.28 329.54c.44 2.94 3.68 6.76 8.23 8.23" stroke="#1b3c87" stroke-width="3.69"/><path d="m127.64 391.28c-.41-3.26-.35-25.46.48-28" stroke="#1b3c87" stroke-width="3.69"/><path d="m92.44 369.87c-1 9.85-2.2 17.81-2.78 19.67 2.3 2.14 8.25 3.36 14.8 3.86" stroke="#1b3c87" stroke-width="3.69"/><path d="m94.05 325.25c1 5.09.74 15.19 0 25.93" stroke="#1b3c87" stroke-width="3.69"/><path d="m45.51 262.15a25.69 25.69 0 0 1 11.27-41.78" stroke="#1b3c87" stroke-width="3.69"/><path d="m88.21 234.88a25.72 25.72 0 0 1 -29.79 35" stroke="#1b3c87" stroke-width="3.69"/><path d="m154.19 245.81c13.2 4.4 20.88 13.73 20.88 28.39 0 8.58-2.66 14.37-4.5 15.23" stroke="#1b3c87" stroke-width="3.69"/><path d="m64.53 328.78c4.52-18.23 8.61-41.15 15.41-53.82 12.75-23.79 32.28-31.21 49.58-32" stroke="#1b3c87" stroke-width="3.69"/><path d="m31.75 397.18c6-12.41 13.26-25.37 19-35.32" stroke="#1b3c87" stroke-width="3.69"/><path d="m152.31 383.16c.43 3.95 1.08 7.26 2 9.06" stroke="#1b3c87" stroke-width="3.69"/><path d="m152.53 355.19c-.73 2.53-1.09 10.68-.83 18.83" stroke="#1b3c87" stroke-width="3.69"/><path d="m166.58 263.21c0 20.73-71.92 22.6-71.92 39.85" stroke="#1b3c87" stroke-width="3.69"/></g><path d="m202.69 566.38c6.93 1.16 10.88-10.25 15.1-9.64 3.08.44 17.81 2.33 18.46 3.35s-1.76 11.64-1.76 11.64" fill="#eaf0ff"/><path d="m143.64 542.31h65.98v106.26h-65.98z" fill="#eaf0ff" transform="matrix(.16590824 -.98614119 .98614119 .16590824 -439.87 670.82)"/><path d="m224.34 603.42-4.92 29.24-60.76-10.22" fill="none" stroke="#1b3c87" stroke-linecap="round" stroke-linejoin="round" stroke-width="3.69"/><path d="m230.37 567.6-2.06 12.23" fill="none" stroke="#1b3c87" stroke-linecap="round" stroke-linejoin="round" stroke-width="3.69"/><path d="m124.18 616.64-9.55-1.64 11-65.07 89.23 15" fill="none" stroke="#1b3c87" stroke-linecap="round" stroke-linejoin="round" stroke-width="3.69"/><path d="m198.56 562.25c6.93 1.16 10.89-10.25 15.1-9.64 3.08.44 17.81 2.33 18.46 3.35s-1.76 11.64-1.76 11.64" fill="none" stroke="#1b3c87" stroke-linecap="round" stroke-linejoin="round" stroke-width="3.69"/><path d="m194.42 581.23h28.17v15.44h-28.17z" fill="#fb5d64" transform="matrix(.16590824 -.98614119 .98614119 .16590824 -406.88 696.82)"/><path d="m134.61 567.6 59.83 10.06" fill="none" stroke="#1b3c87" stroke-linecap="round" stroke-linejoin="round" stroke-width="3.69"/><path d="m183.27 588.85 8.9 1.5" fill="none" stroke="#1b3c87" stroke-linecap="round" stroke-linejoin="round" stroke-width="3.69"/><path d="m132.35 580.29 34.37 5.78" fill="none" stroke="#1b3c87" stroke-linecap="round" stroke-linejoin="round" stroke-width="3.69"/><path d="m199.58 570.41c-1.56-12-5.17-24.74-30.68-23.64-3.45-2.77-70.45-21.77-110.85-32.25 4.7-9.71 10.18-39.3 10.46-42-3-.56-47.27-14.18-47.27-14.18s-18.51 77.4-14.49 83.87c24.77 15.78 117.69 27.15 159.64 24.2 2.94 2.31 2.54 3.76 6.71 4.35s26.48-.35 26.48-.35" fill="#fff"/><path d="m119.64 528.35c23.88 6.84 43.31 12.81 45.12 14.29 25.53-1.1 29.13 11.59 30.69 23.64" fill="none" stroke="#1b3c87" stroke-linecap="round" stroke-linejoin="round" stroke-width="3.69"/><path d="m64.38 468.43c-.29 2.66-5.77 32.25-10.46 42 14.06 3.63 31.35 8.3 48.06 13" fill="none" stroke="#1b3c87" stroke-linecap="round" stroke-linejoin="round" stroke-width="3.69"/><path d="m173.36 555a36.3 36.3 0 0 1 1.25 12.65" fill="none" stroke="#1b3c87" stroke-linecap="round" stroke-linejoin="round" stroke-width="3.69"/><path d="m181.06 555a35.83 35.83 0 0 1 1.25 12.65" fill="none" stroke="#1b3c87" stroke-linecap="round" stroke-linejoin="round" stroke-width="3.69"/><path d="m187.27 555a36.08 36.08 0 0 1 1.24 12.65" fill="none" stroke="#1b3c87" stroke-linecap="round" stroke-linejoin="round" stroke-width="3.69"/><path d="m3.65 518.32c-1.75 10.78-2.49 18.84-1 19.76 34.63 22 139.29 25.44 159.64 24.2" fill="none" stroke="#1b3c87" stroke-linecap="round" stroke-linejoin="round" stroke-width="3.69"/><path d="m17.11 454.25c-.38 1.34-3.95 16.34-7.54 33.31" fill="none" stroke="#1b3c87" stroke-linecap="round" stroke-linejoin="round" stroke-width="3.69"/></svg>