<svg viewBox="0 0 942.98 904.96" xmlns="http://www.w3.org/2000/svg"><path d="m845.58 9.7c67.88 36 62.29 180.44 65.08 307s14 235.19-17.59 346.92-105.87 226.49-199.44 239.9c-93.85 13.69-207.25-73.74-335.46-120.38s-271.17-52.52-327.92-122.07-26.81-202.78 32.96-294.07c60.05-91.34 150-140.5 227.09-174.85 76.81-34.36 141.05-53.91 243.56-100 102.79-45.86 243.85-118.48 311.72-82.45z" fill="#f0f0f0"/><path d="m95.5 532.46c-7-2-28-15-32-20s-13.5 7.13 3.75 23.54" fill="#fff"/><path d="m87.5 524.46c-7-2-28-15-32-20s-13.5 7.13 3.75 23.54" fill="none" stroke="#1b3c87" stroke-linecap="round" stroke-linejoin="round" stroke-width="4.78"/><path d="m175.5 563.46c-5-6-22-31-25-39s-23.43-16-10.22 39" fill="#fff"/><path d="m165.5 553.46c-5-6-22-31-25-39-2.59-6.89-18.1-13.78-13.91 19.6" fill="none" stroke="#1b3c87" stroke-linecap="round" stroke-linejoin="round" stroke-width="4.78"/><path d="m286.88 654.22c-6.38 13.24-34.38 65.24-34.38 65.24s-64-137-71-140-114-40-134-51c-8-4-32 3 12 32s87 53 92 63 41 165 41 165h134.12c8.88 0 38.88-98 38.88-98s-71.23-44.46-78.62-36.24z" fill="#fff"/><path d="m172.89 737.54c5.56 23.52 9.61 40.92 9.61 40.92h134.12c8.88 0 38.88-98 38.88-98s-71.23-44.46-78.62-36.24c-6.38 13.24-34.38 65.24-34.38 65.24s-64-137-71-140c-2.16-.92-13.8-5.07-29.46-10.69" fill="none" stroke="#1b3c87" stroke-linecap="round" stroke-linejoin="round" stroke-width="4.78"/><path d="m76.38 567.76c33.3 21 61.15 37.77 65.12 45.7 2.63 5.27 13.89 50.86 23.94 92.78" fill="none" stroke="#1b3c87" stroke-linecap="round" stroke-linejoin="round" stroke-width="4.78"/><path d="m115.79 549.3c-31.9-11.59-67.58-24.95-78.29-30.84-7.29-3.64-27.84 1.84 1.77 24.75" fill="none" stroke="#1b3c87" stroke-linecap="round" stroke-linejoin="round" stroke-width="4.78"/><path d="m468.06 490.46c59.94 31.12-7.15 186-44 225.2-30.17 6.54-136.6-44.58-149.75-78.52 11.06-33.45 108.33-191.04 193.75-146.68z" fill="#46dbc9"/><g fill="none" stroke-linecap="round" stroke-linejoin="round" stroke-width="4.78"><path d="m880.73 217.46 59.86 137.29-244.09 41.56z" stroke="#b6c6fc"/><path d="m109.83 254.72h182.84v160.86h-182.84z" stroke="#b6c6fc" transform="matrix(.64372303 -.76525856 .76525856 .64372303 -184.78 273.45)"/><path d="m346.88 511.32c33.8-30.84 73.63-50.36 111.18-30.86 59.94 31.12-7.15 186-44 225.2-30.17 6.54-136.6-44.58-149.75-78.52 3.45-10.45 15.32-33 32.62-57.78" stroke="#1b3c87"/><path d="m454.3 454.13c24.16-16.19 52.34-25.67 85.2-25.67 124 0 176 164 179 351" stroke="#1b3c87"/><path d="m347.86 623.4c16-51.75 38.73-101.52 70.9-137.81" stroke="#1b3c87"/><path d="m316.61 778.62c2.58-22.47 6.19-47.6 11.21-73.81" stroke="#1b3c87"/></g><path d="m728.26 778.46c-4.84-182.38-57.2-340-178.76-340-154.21 0-205.33 208.84-221.68 340z" fill="#46dbc9"/><path d="m797.54 706.23-29-67.77-111 68c3.4 12.24 15.12 49.44 22.27 72" fill="none" stroke="#1b3c87" stroke-linecap="round" stroke-linejoin="round" stroke-width="4.78"/><path d="m797 779v-87.37l-18.5-43.17-111 68c3 10.64 12.2 40.15 19.26 62.5z" fill="#fff"/><path d="m648.5 479.46c61-29 144 118 153 171-13 28-118 82-153 72-20-29-86.93-201.67 0-243z" fill="#46dbc9"/><path d="m699.2 485.59c44.94 37.56 86.11 118.43 92.3 154.87-13 28-118 82-153 72a104.61 104.61 0 0 1 -6.56-11.46" fill="none" stroke="#1b3c87" stroke-linecap="round" stroke-linejoin="round" stroke-width="4.78"/><path d="m602.12 615c-11.88-53.55-12.5-113.55 27.14-140.26" fill="none" stroke="#1b3c87" stroke-linecap="round" stroke-linejoin="round" stroke-width="4.78"/><path d="m762.88 156.46h34.62v622h-622v-29.89" fill="none" stroke="#1b3c87" stroke-linecap="round" stroke-linejoin="round" stroke-width="4.78"/><path d="m175.5 204.63v-48.17h453.76" fill="none" stroke="#1b3c87" stroke-linecap="round" stroke-linejoin="round" stroke-width="4.78"/><path d="m175.5 574.6v-217.84" fill="none" stroke="#1b3c87" stroke-linecap="round" stroke-linejoin="round" stroke-width="4.78"/><path d="m596 344c-5 20-14 63-11 121-17 15-74 18-100-2 5-31 5-61 4-81s107-38 107-38z" fill="#fff"/><path d="m477 455c5-31 5-61 4-81s107-38 107-38c-5 20-14 63-11 121-10.07 8.88-34.14 13.55-57.51 11.74" fill="none" stroke="#1b3c87" stroke-linecap="round" stroke-linejoin="round" stroke-width="4.78"/><ellipse cx="517" cy="274.46" fill="#fff" rx="103.5" ry="132"/><path d="m555.21 382.6a85.44 85.44 0 0 1 -46.21 13.86c-31.74 0-60.14-18.22-79.13-46.91" fill="none" stroke="#1b3c87" stroke-linecap="round" stroke-linejoin="round" stroke-width="4.78"/><path d="m410.87 306.55a165.42 165.42 0 0 1 -5.37-42.09c0-72.9 46.33-132 103.5-132s103.5 59.1 103.5 132a163.55 163.55 0 0 1 -7.94 50.78" fill="none" stroke="#1b3c87" stroke-linecap="round" stroke-linejoin="round" stroke-width="4.78"/><path d="m466.5 252.46c-1 10-14 38-24 48" fill="none" stroke="#1b3c87" stroke-linecap="round" stroke-linejoin="round" stroke-width="4.78"/><path d="m473.5 340.46c5 0 15-2 23-14" fill="none" stroke="#1b3c87" stroke-linecap="round" stroke-linejoin="round" stroke-width="4.78"/><ellipse cx="437.25" cy="260.21" fill="#1b3c87" rx="10.25" ry="4.75" transform="matrix(.165564 -.98619905 .98619905 .165564 108.26 648.36)"/><path d="m640.5 220.46c0-53-58-89-97-101-31.53-9.7-81-25-107-25-32 0-57 33-57 66 0 36 19 63 42 69 4-12 6-17 6-17 4 5 111 18 147 17-3 13-5 59 15 60 11 1 51 13 51-69z" fill="#fb5d64"/><path d="m568 124.46a179.28 179.28 0 0 0 -34.52-15c-31.53-9.7-81-25-107-25-24.87 0-45.51 19.92-53.47 44.29" fill="none" stroke="#1b3c87" stroke-linecap="round" stroke-linejoin="round" stroke-width="4.78"/><path d="m564.5 219.46c-3 13-5 59 15 60 11 1 51 13 51-69 0-23.74-11.64-44.06-28-60.35" fill="none" stroke="#1b3c87" stroke-linecap="round" stroke-linejoin="round" stroke-width="4.78"/><path d="m372 172.56c5.92 24.66 21.46 42.2 39.46 46.9 4-12 6-17 6-17 2.86 3.58 58.57 11.27 103.18 15" fill="none" stroke="#1b3c87" stroke-linecap="round" stroke-linejoin="round" stroke-width="4.78"/><circle cx="596.5" cy="292.46" fill="#fff" r="27"/><path d="m561.5 284.46a27 27 0 0 1 18.87-25.76" fill="none" stroke="#1b3c87" stroke-linecap="round" stroke-linejoin="round" stroke-width="4.78"/><path d="m580.37 258.7a27 27 0 1 1 8.13 52.76 27.34 27.34 0 0 1 -6.76-.85" fill="none" stroke="#1b3c87" stroke-linecap="round" stroke-linejoin="round" stroke-width="4.78"/></svg>